<svg id="Layer_1" data-name="Layer 1" xmlns="http://www.w3.org/2000/svg" viewBox="0 0 400 300"><path d="M251.09,137.25s-20.83,7.29-12.77,35.8c4.24,15,24.32,10.38,24.32,10.38l-5.75-6Z" fill="#f4a28c"/><path d="M251.09,137.25s-20.83,7.29-12.77,35.8c4.24,15,24.32,10.38,24.32,10.38l-5.75-6Z" opacity="0.08"/><path d="M150.82,122.63a5.4,5.4,0,0,0-9.15,1.27c-2,4.76-3.44,11.55-.17,18.49,6,12.81,14.56,22.35,23.42,11.18s7.78-24.73,7.78-24.73.05-8-3.56-7.5,0,7.35,0,7.35l-10.34,18.42A37.1,37.1,0,0,0,150.82,122.63Z" fill="#f4a28c"/><path d="M150.82,122.63a5.4,5.4,0,0,0-9.15,1.27c-2,4.76-3.44,11.55-.17,18.49,6,12.81,14.56,22.35,23.42,11.18s7.78-24.73,7.78-24.73.05-8-3.56-7.5,0,7.35,0,7.35l-10.34,18.42A37.1,37.1,0,0,0,150.82,122.63Z" opacity="0.08"/><ellipse cx="199.19" cy="257.64" rx="117.73" ry="12.09" fill="#e6e6e6" opacity="0.45"/><path d="M198.66,73.52a23,23,0,0,1,2.24,5.84,1.89,1.89,0,0,1-1.56,2.18A4.17,4.17,0,0,1,195.08,80l-2.35-2.55a3.37,3.37,0,0,1-.1-3.91C194,71.27,197.66,71.46,198.66,73.52Z" fill="#f4a28c"/><polygon points="194.09 76.84 193.24 89.15 200.06 89.14 197.94 80.18 194.09 76.84" fill="#f4a28c"/><path d="M197.87,74a15,15,0,0,1-3.28,1.16A3.14,3.14,0,0,1,196,78.35a2.56,2.56,0,0,1-2.42,2.18l-1.89-4.45a3.83,3.83,0,0,1,.39-3.91,14.88,14.88,0,0,1,1.16-1.38c1.05-1.07,3.29-1,4.06-2.41a.91.91,0,0,1,1.56,0c.79,1.26,1.48,3.49,0,5A3.53,3.53,0,0,1,197.87,74Z" fill="#24285b"/><path d="M196.3,78.09s-.61-1.32-1.56-.77-.08,2.44,1.35,2Z" fill="#f4a28c"/><path d="M199.7,75.66l1.54.91a.6.6,0,0,1,0,1l-1.21.83Z" fill="#f4a28c"/><path d="M198.49,82.12A4.43,4.43,0,0,1,196.18,81a7,7,0,0,0,3,4.24Z" fill="#ce8172" opacity="0.31"/><path d="M135.19,100.88a23.42,23.42,0,0,1,2.24,5.84,1.89,1.89,0,0,1-1.56,2.18,4.15,4.15,0,0,1-4.26-1.56l-2.36-2.55a3.39,3.39,0,0,1-.1-3.91C130.48,98.63,134.18,98.81,135.19,100.88Z" fill="#f4a28c"/><polygon points="130.62 104.2 129.77 116.51 136.59 116.5 134.47 107.54 130.62 104.2" fill="#f4a28c"/><path d="M136.22,103l1.55.9a.6.6,0,0,1,0,1l-1.2.83Z" fill="#f4a28c"/><path d="M135,109.48a4.46,4.46,0,0,1-2.31-1.11,7.08,7.08,0,0,0,3,4.24Z" fill="#ce8172" opacity="0.31"/><path d="M264,118.63a23.42,23.42,0,0,0-2.24,5.84,1.89,1.89,0,0,0,1.56,2.18,4.18,4.18,0,0,0,4.26-1.56l2.36-2.56a3.37,3.37,0,0,0,.09-3.9C268.75,116.37,265,116.56,264,118.63Z" fill="#f4a28c"/><polygon points="268.61 121.94 269.46 134.26 262.64 134.24 264.76 125.29 268.61 121.94" fill="#f4a28c"/><path d="M263,120.77l-1.55.9a.61.61,0,0,0,0,1l1.21.83Z" fill="#f4a28c"/><path d="M264.21,127.23a4.54,4.54,0,0,0,2.32-1.12,7.08,7.08,0,0,1-3,4.24Z" fill="#ce8172" opacity="0.31"/><path d="M130.65,108.37l-2.85-3.83s-4-.9-2.94-3,3.53-1.31,2.81-3.66S130,95,131.16,96.37s1.36.29,2.89-.17,3.57.76,2.83,2.63-4.74,3.92-4.74,3.92,2.85,2.1.3,4.43Z" fill="#24285b"/><rect x="198.47" y="43.66" width="2.51" height="7.78" fill="#ffd200"/><path d="M191.4,30.19h17.2a0,0,0,0,1,0,0v9a6.19,6.19,0,0,1-6.19,6.19h-4.82a6.19,6.19,0,0,1-6.19-6.19v-9a0,0,0,0,1,0,0Z" transform="translate(1.55 -7.46) rotate(2.14)" fill="#ffd200"/><rect x="195.42" y="49.46" width="9.07" height="6.84" fill="#24285b"/><rect x="197.53" y="51.05" width="4.86" height="3.67" fill="#fff" opacity="0.13"/><path d="M198.79,41.57h-8.28a4.75,4.75,0,0,1,0-9.5h8.28Zm-8.28-8.37a3.62,3.62,0,0,0,0,7.23h7.15V33.2Z" fill="#ffd200"/><path d="M210.52,41.57h-8.28v-9.5h8.28a4.75,4.75,0,0,1,0,9.5Zm-7.14-1.14h7.14a3.62,3.62,0,0,0,0-7.23h-7.14Z" fill="#ffd200"/><path d="M193.5,33c-.34,2.5-.57,7.86,3.18,10a.54.54,0,0,0,.74-.73,13,13,0,0,1-1.25-9.2A1.16,1.16,0,0,0,195,31.67h0A1.53,1.53,0,0,0,193.5,33Z" fill="#fff" opacity="0.43"/><rect x="228.34" y="228.71" width="58.42" height="26.39" fill="#b2b2b2"/><rect x="112.4" y="211.78" width="58.42" height="43.32" fill="#c9c9c9"/><rect x="170.82" y="195.42" width="58.42" height="59.68" fill="#e6e6e6"/><path d="M191.82,53.45s1.27-5.25,3.53-1.83-.17,6.15-1.6,6.32-20.49,11.32-19.81,21.15,21.65,14,13.82,28S164.24,96.4,163.05,88.57,158.8,64,191.82,53.45Z" fill="#f4a28c"/><path d="M207.43,54.3s-1.28-5.26-3.53-1.83.17,6.14,1.59,6.31S226,70.1,225.3,79.93,204.19,92.34,212,106.29s23-9,24.18-16.87S240.45,64.8,207.43,54.3Z" fill="#f4a28c"/><path d="M193.24,89.15h6.82s23.95.62,22.15,19.69-12,35.06-12,35.06l-24.59-1.4S158.92,89.91,193.24,89.15Z" fill="#68e1fd"/><path d="M193.45,86.17s-5.55,2.4-3.34,9.55,7.39,13.81,7.39,13.81l2.2-.77s-10.37-14.17-6.46-19.61Z" fill="#24285b"/><path d="M199.32,86s4.66.78,3.63,9.7a58.38,58.38,0,0,1-3.24,13.36l-2.29-.11s3.51-11.34,2.4-19.82Z" fill="#24285b"/><circle cx="200.28" cy="111.66" r="5.37" fill="#ffd200"/><path d="M185.61,142.49l4,48.43h3.73l1.82-31.39a12.41,12.41,0,0,1,5.78-9.8l9.28-5.84Z" fill="#f4a28c"/><polygon points="210.2 143.89 215.27 190.92 211.25 190.92 199.19 147.71 210.2 143.89" fill="#f4a28c"/><polygon points="185.61 142.49 183.89 161.31 196.65 162.33 199.02 155.35 200.26 162.33 214.36 162.33 210.2 143.89 185.61 142.49" fill="#24285b"/><path d="M189.59,190.92s-6.89,2.18-5.7,4.5h10l-.61-4.5Z" fill="#68e1fd"/><path d="M214.82,190.92s6.89,2.18,5.7,4.5H210.47l.61-4.5Z" fill="#68e1fd"/><path d="M129.77,116.51l6.82,0s18.79,0,18.53,19.11-6.8,28.6-6.8,28.6H123.8S93,121,129.77,116.51Z" fill="#68e1fd"/><path d="M134,105.28s-.61-1.31-1.56-.77-.08,2.45,1.35,2Z" fill="#f4a28c"/><path d="M124.21,124.51s7.34,10.55,8.77,19.38,7-3.54,7-3.54l3.07-8.92s7.28,2.91,2.79,10.47-9.41,15.93-4.65,22.3H123.8s-1.53-2.18-2.23-3.41S124.21,124.51,124.21,124.51Z" opacity="0.08"/><path d="M130,113.74s-5.18,2.55-3,9.69,7.38,13.82,7.38,13.82l2.2-.77s-10.48-14.55-6.57-20Z" fill="#24285b"/><path d="M135.9,113.61s5,.91,3.92,9.82a58.08,58.08,0,0,1-3.23,13.37l-2.29-.12s3.51-11.34,2.39-19.81Z" fill="#24285b"/><circle cx="135.81" cy="139.49" r="5.37" fill="#ffd200"/><path d="M124.21,124.51a5.4,5.4,0,0,0-9.09-1.67c-3.39,3.89-6.88,9.88-6,17.5,1.7,14,6.81,25.8,18.72,18S143,137.26,143,137.26s2.55-7.55-1-8.23-2.28,7-2.28,7l-15.6,14.25A37.09,37.09,0,0,0,124.21,124.51Z" fill="#f4a28c"/><polygon points="123.8 164.2 127.89 209.14 131.51 209.14 135.66 174.41 148.31 164.2 123.8 164.2" fill="#f4a28c"/><polygon points="148.31 164.2 155.13 209.14 151.04 209.14 138.07 169.31 148.31 164.2" fill="#f4a28c"/><polygon points="123.8 164.2 123.8 183.09 137.46 182.07 138.07 174.92 148.31 164.2 123.8 164.2" fill="#24285b"/><polygon points="138.07 171.86 139.97 181.9 153.59 180.88 148.31 164.2 138.07 171.86" fill="#24285b"/><path d="M131.45,207.26s6.89,2.18,5.7,4.5h-10l.61-4.5Z" fill="#68e1fd"/><path d="M154.29,207.26s6.89,2.18,5.7,4.5H150l.61-4.5Z" fill="#68e1fd"/><path d="M269.64,133.45l-6.82,0s-18.8,0-18.54,19.11,6.81,28.6,6.81,28.6H275.6S306.41,138,269.64,133.45Z" fill="#68e1fd"/><path d="M269.14,130.67s5.08,2.74,2.59,9.8S263.82,154,263.82,154l-2.17-.86s11-14.13,7.34-19.71Z" fill="#24285b"/><path d="M263.56,130.35s-5.35.68-4.66,9.63a58.17,58.17,0,0,0,2.72,13.47l2.29,0s-4-13.19-1.09-20Z" fill="#24285b"/><circle cx="262.29" cy="156.17" r="5.37" fill="#ffd200"/><polygon points="275.6 181.14 271.51 226.08 267.89 226.08 263.74 191.35 251.09 181.14 275.6 181.14" fill="#f4a28c"/><polygon points="251.09 181.14 244.28 226.08 248.36 226.08 261.34 186.25 251.09 181.14" fill="#f4a28c"/><polygon points="275.6 181.14 275.6 200.03 261.95 199.01 261.34 191.86 251.09 181.14 275.6 181.14" fill="#24285b"/><path d="M272.47,144.88s-3.12,6.76,3.13,14.29-14.22,22-14.22,22h13.45l11.23-11,1.28-14.55Z" opacity="0.08"/><polygon points="261.34 188.8 259.44 198.84 245.81 197.82 251.09 181.14 261.34 188.8" fill="#24285b"/><path d="M268,224.2s-6.89,2.18-5.7,4.5H272.3l-.61-4.5Z" fill="#68e1fd"/><path d="M245.12,224.2s-6.9,2.18-5.71,4.5h10.05l-.61-4.5Z" fill="#68e1fd"/><path d="M267,114.11a3,3,0,0,0-3.35,4,3.06,3.06,0,0,0,1.43,1.42c2.66,1.34-.65,4.2,3.78,5.42,0,0,5-2.23,3.22-5.16,0,0,.57-4.47-2.23-5C268.73,114.55,267.79,114.27,267,114.11Z" fill="#24285b"/><path d="M266.4,123.19s.61-1.31,1.56-.77.08,2.45-1.35,2Z" fill="#f4a28c"/><path d="M273,140.93a5.94,5.94,0,0,1,9-3.25c5.69,3.75,13.69,10.73,14.18,20.54.77,15.32-21.32,24.38-21.32,24.38s.1,5.32-2.25,4.77-.55-7.92-.55-7.92,13.78-10.55,11.1-18.51C280.83,154.25,270,150.93,273,140.93Z" fill="#f4a28c"/><text transform="translate(195.18 230.07)" opacity="0.34" font-size="15.19" font-family="Panton-Black, Panton Black" font-weight="800">1</text><text transform="translate(136.06 240.07)" opacity="0.34" font-size="15.19" font-family="Panton-Black, Panton Black" font-weight="800">2</text><text transform="translate(251.85 247.32)" opacity="0.34" font-size="15.19" font-family="Panton-Black, Panton Black" font-weight="800">3</text></svg>