<svg width="704" height="483" viewBox="0 0 704 483" fill="none" xmlns="http://www.w3.org/2000/svg">
<path d="M699.251 142.201C701.874 142.201 704 140.076 704 137.455C704 134.834 701.874 132.709 699.251 132.709C696.628 132.709 694.502 134.834 694.502 137.455C694.502 140.076 696.628 142.201 699.251 142.201Z" fill="#383A48"/>
<path d="M699.251 165.648C701.874 165.648 704 163.523 704 160.902C704 158.28 701.874 156.155 699.251 156.155C696.628 156.155 694.502 158.28 694.502 160.902C694.502 163.523 696.628 165.648 699.251 165.648Z" fill="#383A48"/>
<path d="M699.251 189.096C701.874 189.096 704 186.971 704 184.349C704 181.728 701.874 179.603 699.251 179.603C696.628 179.603 694.502 181.728 694.502 184.349C694.502 186.971 696.628 189.096 699.251 189.096Z" fill="#383A48"/>
<path d="M699.251 212.447C701.874 212.447 704 210.322 704 207.701C704 205.08 701.874 202.955 699.251 202.955C696.628 202.955 694.502 205.08 694.502 207.701C694.502 210.322 696.628 212.447 699.251 212.447Z" fill="#383A48"/>
<path d="M699.251 235.894C701.874 235.894 704 233.769 704 231.148C704 228.526 701.874 226.401 699.251 226.401C696.628 226.401 694.502 228.526 694.502 231.148C694.502 233.769 696.628 235.894 699.251 235.894Z" fill="#383A48"/>
<path d="M699.251 259.342C701.874 259.342 704 257.217 704 254.595C704 251.974 701.874 249.849 699.251 249.849C696.628 249.849 694.502 251.974 694.502 254.595C694.502 257.217 696.628 259.342 699.251 259.342Z" fill="#383A48"/>
<path d="M699.251 282.694C701.874 282.694 704 280.569 704 277.947C704 275.326 701.874 273.201 699.251 273.201C696.628 273.201 694.502 275.326 694.502 277.947C694.502 280.569 696.628 282.694 699.251 282.694Z" fill="#383A48"/>
<path d="M699.251 306.141C701.874 306.141 704 304.016 704 301.395C704 298.773 701.874 296.648 699.251 296.648C696.628 296.648 694.502 298.773 694.502 301.395C694.502 304.016 696.628 306.141 699.251 306.141Z" fill="#383A48"/>
<path d="M699.251 329.588C701.874 329.588 704 327.463 704 324.842C704 322.221 701.874 320.096 699.251 320.096C696.628 320.096 694.502 322.221 694.502 324.842C694.502 327.463 696.628 329.588 699.251 329.588Z" fill="#383A48"/>
<path d="M699.251 352.94C701.874 352.94 704 350.815 704 348.193C704 345.572 701.874 343.447 699.251 343.447C696.628 343.447 694.502 345.572 694.502 348.193C694.502 350.815 696.628 352.94 699.251 352.94Z" fill="#383A48"/>
<path d="M699.251 376.387C701.874 376.387 704 374.262 704 371.641C704 369.019 701.874 366.894 699.251 366.894C696.628 366.894 694.502 369.019 694.502 371.641C694.502 374.262 696.628 376.387 699.251 376.387Z" fill="#383A48"/>
<path d="M699.251 399.835C701.874 399.835 704 397.71 704 395.088C704 392.467 701.874 390.342 699.251 390.342C696.628 390.342 694.502 392.467 694.502 395.088C694.502 397.71 696.628 399.835 699.251 399.835Z" fill="#383A48"/>
<path d="M699.251 423.186C701.874 423.186 704 421.061 704 418.439C704 415.818 701.874 413.693 699.251 413.693C696.628 413.693 694.502 415.818 694.502 418.439C694.502 421.061 696.628 423.186 699.251 423.186Z" fill="#383A48"/>
<path d="M699.251 446.633C701.874 446.633 704 444.508 704 441.887C704 439.265 701.874 437.14 699.251 437.14C696.628 437.14 694.502 439.265 694.502 441.887C694.502 444.508 696.628 446.633 699.251 446.633Z" fill="#383A48"/>
<path d="M699.251 470.081C701.874 470.081 704 467.956 704 465.334C704 462.713 701.874 460.588 699.251 460.588C696.628 460.588 694.502 462.713 694.502 465.334C694.502 467.956 696.628 470.081 699.251 470.081Z" fill="#383A48"/>
<path d="M675.789 142.201C678.412 142.201 680.538 140.076 680.538 137.455C680.538 134.834 678.412 132.709 675.789 132.709C673.166 132.709 671.04 134.834 671.04 137.455C671.04 140.076 673.166 142.201 675.789 142.201Z" fill="#383A48"/>
<path d="M675.789 165.648C678.412 165.648 680.538 163.523 680.538 160.902C680.538 158.28 678.412 156.155 675.789 156.155C673.166 156.155 671.04 158.28 671.04 160.902C671.04 163.523 673.166 165.648 675.789 165.648Z" fill="#383A48"/>
<path d="M675.789 189.096C678.412 189.096 680.538 186.971 680.538 184.349C680.538 181.728 678.412 179.603 675.789 179.603C673.166 179.603 671.04 181.728 671.04 184.349C671.04 186.971 673.166 189.096 675.789 189.096Z" fill="#383A48"/>
<path d="M675.789 212.447C678.412 212.447 680.538 210.322 680.538 207.701C680.538 205.08 678.412 202.955 675.789 202.955C673.166 202.955 671.04 205.08 671.04 207.701C671.04 210.322 673.166 212.447 675.789 212.447Z" fill="#383A48"/>
<path d="M675.789 235.894C678.412 235.894 680.538 233.769 680.538 231.148C680.538 228.526 678.412 226.401 675.789 226.401C673.166 226.401 671.04 228.526 671.04 231.148C671.04 233.769 673.166 235.894 675.789 235.894Z" fill="#383A48"/>
<path d="M675.789 259.342C678.412 259.342 680.538 257.217 680.538 254.595C680.538 251.974 678.412 249.849 675.789 249.849C673.166 249.849 671.04 251.974 671.04 254.595C671.04 257.217 673.166 259.342 675.789 259.342Z" fill="#383A48"/>
<path d="M675.789 282.694C678.412 282.694 680.538 280.569 680.538 277.947C680.538 275.326 678.412 273.201 675.789 273.201C673.166 273.201 671.04 275.326 671.04 277.947C671.04 280.569 673.166 282.694 675.789 282.694Z" fill="#383A48"/>
<path d="M675.789 306.141C678.412 306.141 680.538 304.016 680.538 301.395C680.538 298.773 678.412 296.648 675.789 296.648C673.166 296.648 671.04 298.773 671.04 301.395C671.04 304.016 673.166 306.141 675.789 306.141Z" fill="#383A48"/>
<path d="M675.789 329.588C678.412 329.588 680.538 327.463 680.538 324.842C680.538 322.221 678.412 320.096 675.789 320.096C673.166 320.096 671.04 322.221 671.04 324.842C671.04 327.463 673.166 329.588 675.789 329.588Z" fill="#383A48"/>
<path d="M675.789 352.94C678.412 352.94 680.538 350.815 680.538 348.193C680.538 345.572 678.412 343.447 675.789 343.447C673.166 343.447 671.04 345.572 671.04 348.193C671.04 350.815 673.166 352.94 675.789 352.94Z" fill="#383A48"/>
<path d="M675.789 376.387C678.412 376.387 680.538 374.262 680.538 371.641C680.538 369.019 678.412 366.894 675.789 366.894C673.166 366.894 671.04 369.019 671.04 371.641C671.04 374.262 673.166 376.387 675.789 376.387Z" fill="#383A48"/>
<path d="M675.789 399.835C678.412 399.835 680.538 397.71 680.538 395.088C680.538 392.467 678.412 390.342 675.789 390.342C673.166 390.342 671.04 392.467 671.04 395.088C671.04 397.71 673.166 399.835 675.789 399.835Z" fill="#383A48"/>
<path d="M675.789 423.186C678.412 423.186 680.538 421.061 680.538 418.439C680.538 415.818 678.412 413.693 675.789 413.693C673.166 413.693 671.04 415.818 671.04 418.439C671.04 421.061 673.166 423.186 675.789 423.186Z" fill="#383A48"/>
<path d="M675.789 446.633C678.412 446.633 680.538 444.508 680.538 441.887C680.538 439.265 678.412 437.14 675.789 437.14C673.166 437.14 671.04 439.265 671.04 441.887C671.04 444.508 673.166 446.633 675.789 446.633Z" fill="#383A48"/>
<path d="M675.789 470.081C678.412 470.081 680.538 467.956 680.538 465.334C680.538 462.713 678.412 460.588 675.789 460.588C673.166 460.588 671.04 462.713 671.04 465.334C671.04 467.956 673.166 470.081 675.789 470.081Z" fill="#383A48"/>
<path d="M652.424 142.201C655.047 142.201 657.173 140.076 657.173 137.455C657.173 134.834 655.047 132.709 652.424 132.709C649.801 132.709 647.675 134.834 647.675 137.455C647.675 140.076 649.801 142.201 652.424 142.201Z" fill="#383A48"/>
<path d="M652.424 165.648C655.047 165.648 657.173 163.523 657.173 160.902C657.173 158.28 655.047 156.155 652.424 156.155C649.801 156.155 647.675 158.28 647.675 160.902C647.675 163.523 649.801 165.648 652.424 165.648Z" fill="#383A48"/>
<path d="M652.424 189.096C655.047 189.096 657.173 186.971 657.173 184.349C657.173 181.728 655.047 179.603 652.424 179.603C649.801 179.603 647.675 181.728 647.675 184.349C647.675 186.971 649.801 189.096 652.424 189.096Z" fill="#383A48"/>
<path d="M652.424 212.447C655.047 212.447 657.173 210.322 657.173 207.701C657.173 205.08 655.047 202.955 652.424 202.955C649.801 202.955 647.675 205.08 647.675 207.701C647.675 210.322 649.801 212.447 652.424 212.447Z" fill="#383A48"/>
<path d="M652.424 235.894C655.047 235.894 657.173 233.769 657.173 231.148C657.173 228.526 655.047 226.401 652.424 226.401C649.801 226.401 647.675 228.526 647.675 231.148C647.675 233.769 649.801 235.894 652.424 235.894Z" fill="#383A48"/>
<path d="M652.424 259.342C655.047 259.342 657.173 257.217 657.173 254.595C657.173 251.974 655.047 249.849 652.424 249.849C649.801 249.849 647.675 251.974 647.675 254.595C647.675 257.217 649.801 259.342 652.424 259.342Z" fill="#383A48"/>
<path d="M652.424 282.694C655.047 282.694 657.173 280.569 657.173 277.947C657.173 275.326 655.047 273.201 652.424 273.201C649.801 273.201 647.675 275.326 647.675 277.947C647.675 280.569 649.801 282.694 652.424 282.694Z" fill="#383A48"/>
<path d="M652.424 306.141C655.047 306.141 657.173 304.016 657.173 301.395C657.173 298.773 655.047 296.648 652.424 296.648C649.801 296.648 647.675 298.773 647.675 301.395C647.675 304.016 649.801 306.141 652.424 306.141Z" fill="#383A48"/>
<path d="M652.424 329.588C655.047 329.588 657.173 327.463 657.173 324.842C657.173 322.221 655.047 320.096 652.424 320.096C649.801 320.096 647.675 322.221 647.675 324.842C647.675 327.463 649.801 329.588 652.424 329.588Z" fill="#383A48"/>
<path d="M652.424 352.94C655.047 352.94 657.173 350.815 657.173 348.193C657.173 345.572 655.047 343.447 652.424 343.447C649.801 343.447 647.675 345.572 647.675 348.193C647.675 350.815 649.801 352.94 652.424 352.94Z" fill="#383A48"/>
<path d="M652.424 376.387C655.047 376.387 657.173 374.262 657.173 371.641C657.173 369.019 655.047 366.894 652.424 366.894C649.801 366.894 647.675 369.019 647.675 371.641C647.675 374.262 649.801 376.387 652.424 376.387Z" fill="#383A48"/>
<path d="M652.424 399.835C655.047 399.835 657.173 397.71 657.173 395.088C657.173 392.467 655.047 390.342 652.424 390.342C649.801 390.342 647.675 392.467 647.675 395.088C647.675 397.71 649.801 399.835 652.424 399.835Z" fill="#383A48"/>
<path d="M652.424 423.186C655.047 423.186 657.173 421.061 657.173 418.439C657.173 415.818 655.047 413.693 652.424 413.693C649.801 413.693 647.675 415.818 647.675 418.439C647.675 421.061 649.801 423.186 652.424 423.186Z" fill="#383A48"/>
<path d="M652.424 446.633C655.047 446.633 657.173 444.508 657.173 441.887C657.173 439.265 655.047 437.14 652.424 437.14C649.801 437.14 647.675 439.265 647.675 441.887C647.675 444.508 649.801 446.633 652.424 446.633Z" fill="#383A48"/>
<path d="M652.424 470.081C655.047 470.081 657.173 467.956 657.173 465.334C657.173 462.713 655.047 460.588 652.424 460.588C649.801 460.588 647.675 462.713 647.675 465.334C647.675 467.956 649.801 470.081 652.424 470.081Z" fill="#383A48"/>
<path d="M628.965 142.202C631.588 142.202 633.714 140.076 633.714 137.455C633.714 134.834 631.588 132.709 628.965 132.709C626.342 132.709 624.216 134.834 624.216 137.455C624.216 140.076 626.342 142.202 628.965 142.202Z" fill="#383A48"/>
<path d="M628.965 165.648C631.588 165.648 633.714 163.523 633.714 160.902C633.714 158.28 631.588 156.155 628.965 156.155C626.342 156.155 624.216 158.28 624.216 160.902C624.216 163.523 626.342 165.648 628.965 165.648Z" fill="#383A48"/>
<path d="M628.965 189.096C631.588 189.096 633.714 186.971 633.714 184.349C633.714 181.728 631.588 179.603 628.965 179.603C626.342 179.603 624.216 181.728 624.216 184.349C624.216 186.971 626.342 189.096 628.965 189.096Z" fill="#383A48"/>
<path d="M628.965 212.447C631.588 212.447 633.714 210.322 633.714 207.701C633.714 205.08 631.588 202.955 628.965 202.955C626.342 202.955 624.216 205.08 624.216 207.701C624.216 210.322 626.342 212.447 628.965 212.447Z" fill="#383A48"/>
<path d="M628.965 235.894C631.588 235.894 633.714 233.769 633.714 231.148C633.714 228.526 631.588 226.401 628.965 226.401C626.342 226.401 624.216 228.526 624.216 231.148C624.216 233.769 626.342 235.894 628.965 235.894Z" fill="#383A48"/>
<path d="M628.965 259.342C631.588 259.342 633.714 257.217 633.714 254.595C633.714 251.974 631.588 249.849 628.965 249.849C626.342 249.849 624.216 251.974 624.216 254.595C624.216 257.217 626.342 259.342 628.965 259.342Z" fill="#383A48"/>
<path d="M628.965 282.694C631.588 282.694 633.714 280.569 633.714 277.947C633.714 275.326 631.588 273.201 628.965 273.201C626.342 273.201 624.216 275.326 624.216 277.947C624.216 280.569 626.342 282.694 628.965 282.694Z" fill="#383A48"/>
<path d="M628.965 306.141C631.588 306.141 633.714 304.016 633.714 301.395C633.714 298.773 631.588 296.648 628.965 296.648C626.342 296.648 624.216 298.773 624.216 301.395C624.216 304.016 626.342 306.141 628.965 306.141Z" fill="#383A48"/>
<path d="M628.965 329.588C631.588 329.588 633.714 327.463 633.714 324.842C633.714 322.221 631.588 320.096 628.965 320.096C626.342 320.096 624.216 322.221 624.216 324.842C624.216 327.463 626.342 329.588 628.965 329.588Z" fill="#383A48"/>
<path d="M628.965 352.94C631.588 352.94 633.714 350.815 633.714 348.193C633.714 345.572 631.588 343.447 628.965 343.447C626.342 343.447 624.216 345.572 624.216 348.193C624.216 350.815 626.342 352.94 628.965 352.94Z" fill="#383A48"/>
<path d="M628.965 376.387C631.588 376.387 633.714 374.262 633.714 371.641C633.714 369.019 631.588 366.894 628.965 366.894C626.342 366.894 624.216 369.019 624.216 371.641C624.216 374.262 626.342 376.387 628.965 376.387Z" fill="#383A48"/>
<path d="M628.965 399.835C631.588 399.835 633.714 397.71 633.714 395.088C633.714 392.467 631.588 390.342 628.965 390.342C626.342 390.342 624.216 392.467 624.216 395.088C624.216 397.71 626.342 399.835 628.965 399.835Z" fill="#383A48"/>
<path d="M628.965 423.186C631.588 423.186 633.714 421.061 633.714 418.439C633.714 415.818 631.588 413.693 628.965 413.693C626.342 413.693 624.216 415.818 624.216 418.439C624.216 421.061 626.342 423.186 628.965 423.186Z" fill="#383A48"/>
<path d="M628.965 446.633C631.588 446.633 633.714 444.508 633.714 441.887C633.714 439.265 631.588 437.14 628.965 437.14C626.342 437.14 624.216 439.265 624.216 441.887C624.216 444.508 626.342 446.633 628.965 446.633Z" fill="#383A48"/>
<path d="M628.965 470.081C631.588 470.081 633.714 467.956 633.714 465.334C633.714 462.713 631.588 460.588 628.965 460.588C626.342 460.588 624.216 462.713 624.216 465.334C624.216 467.956 626.342 470.081 628.965 470.081Z" fill="#383A48"/>
<path d="M636.374 131.19H126.61V477.295H636.374V131.19Z" fill="#F3F6E6"/>
<path d="M636.469 482.043H126.61C123.951 482.043 121.861 479.955 121.861 477.297V131.192C121.861 128.534 123.951 126.446 126.61 126.446H636.374C639.034 126.446 641.123 128.534 641.123 131.192V477.297C641.218 479.86 639.034 482.043 636.469 482.043ZM131.359 472.551H631.625V135.939H131.359V472.551Z" fill="#383A48"/>
<path d="M636.376 131.19H126.612V260.291H636.376V131.19Z" fill="#AAC6FC"/>
<path d="M636.47 264.942H126.611C123.952 264.942 121.862 262.854 121.862 260.196V131.095C121.862 128.437 123.952 126.349 126.611 126.349H636.375C639.035 126.349 641.124 128.437 641.124 131.095V260.196C641.219 262.854 639.035 264.942 636.47 264.942ZM131.36 255.45H631.626V135.842H131.36V255.45Z" fill="#383A48"/>
<path d="M553.303 126H514.697C512.067 126 510 128.091 510 130.752V477.248C510 479.909 512.067 482 514.697 482H553.303C555.933 482 558 479.909 558 477.248V130.752C558 128.091 555.84 126 553.303 126Z" fill="#383A48"/>
<path d="M514.513 4.7467H4.74902V477.2H514.513V4.7467Z" fill="#F3F6E6"/>
<path d="M514.513 482.041H4.74906C2.08959 482.041 0 479.952 0 477.294V4.74636C0 2.0884 2.08959 0 4.74906 0H514.513C517.173 0 519.262 2.0884 519.262 4.74636V477.294C519.262 479.857 517.173 482.041 514.513 482.041ZM9.49812 472.548H509.764V9.49272H9.49812V472.548Z" fill="#383A48"/>
<path d="M514.513 4.7467H4.74902V131.095H514.513V4.7467Z" fill="#F6E049"/>
<path d="M519.262 135.936H0V0H519.262V135.936ZM9.49812 126.443H509.764V9.49273H9.49812V126.443Z" fill="#383A48"/>
<path d="M127.499 388.431C164.506 388.431 194.507 358.447 194.507 321.46C194.507 284.473 164.506 254.489 127.499 254.489C90.4906 254.489 60.4897 284.473 60.4897 321.46C60.4897 358.447 90.4906 388.431 127.499 388.431Z" fill="#0066FF"/>
<path d="M127.5 392.919C88.0672 392.919 56 360.87 56 321.459C56 282.049 88.0672 250 127.5 250C166.933 250 199 282.049 199 321.459C199 360.87 166.933 392.919 127.5 392.919ZM127.5 259.067C93.0075 259.067 64.9824 287.076 64.9824 321.549C64.9824 356.022 93.0075 384.031 127.5 384.031C161.992 384.031 190.018 356.022 190.018 321.549C190.018 287.076 161.992 259.067 127.5 259.067Z" fill="#0066FF"/>
<path d="M115.804 311.274C125.428 311.274 133.23 303.476 133.23 293.858C133.23 284.239 125.428 276.442 115.804 276.442C106.18 276.442 98.3779 284.239 98.3779 293.858C98.3779 303.476 106.18 311.274 115.804 311.274Z" fill="#F3F6E6"/>
<path d="M143.291 345.388H88.3188V338.834C88.3188 323.663 100.625 311.364 115.805 311.364C130.985 311.364 143.291 323.663 143.291 338.834V345.388Z" fill="#F3F6E6"/>
<path d="M153.999 323.026C163.623 323.026 171.425 315.228 171.425 305.61C171.425 295.991 163.623 288.194 153.999 288.194C144.375 288.194 136.573 295.991 136.573 305.61C136.573 315.228 144.375 323.026 153.999 323.026Z" fill="#DBDED0"/>
<path d="M181.486 357.14H126.514V350.587C126.514 335.415 138.82 323.116 154 323.116C169.18 323.116 181.486 335.415 181.486 350.587V357.14Z" fill="#DBDED0"/>
<path d="M391.498 388.431C428.506 388.431 458.507 358.447 458.507 321.46C458.507 284.473 428.506 254.489 391.498 254.489C354.49 254.489 324.489 284.473 324.489 321.46C324.489 358.447 354.49 388.431 391.498 388.431Z" fill="#0066FF"/>
<path d="M391.5 392.919C352.067 392.919 320 360.87 320 321.459C320 282.049 352.067 250 391.5 250C430.933 250 463 282.049 463 321.459C463 360.87 430.933 392.919 391.5 392.919ZM391.5 259.067C357.008 259.067 328.982 287.076 328.982 321.549C328.982 356.022 357.008 384.031 391.5 384.031C425.992 384.031 454.018 356.022 454.018 321.549C454.018 287.076 425.992 259.067 391.5 259.067Z" fill="#0066FF"/>
<path d="M379.805 311.274C389.429 311.274 397.231 303.476 397.231 293.858C397.231 284.239 389.429 276.442 379.805 276.442C370.181 276.442 362.379 284.239 362.379 293.858C362.379 303.476 370.181 311.274 379.805 311.274Z" fill="#F3F6E6"/>
<path d="M407.292 345.388H352.319V338.834C352.319 323.663 364.625 311.364 379.805 311.364C394.986 311.364 407.292 323.663 407.292 338.834V345.388Z" fill="#F3F6E6"/>
<path d="M417.999 323.026C427.623 323.026 435.425 315.228 435.425 305.61C435.425 295.991 427.623 288.194 417.999 288.194C408.375 288.194 400.573 295.991 400.573 305.61C400.573 315.228 408.375 323.026 417.999 323.026Z" fill="#DBDED0"/>
<path d="M445.486 357.14H390.514V350.587C390.514 335.415 402.82 323.116 418 323.116C433.18 323.116 445.486 335.415 445.486 350.587V357.14Z" fill="#DBDED0"/>
<path d="M147.639 179.704H154.791V192.52H154.935L164.199 179.704H171.975L162.615 192.184L172.887 211H165.063L158.439 197.8L154.791 202.6V211H147.639V179.704ZM176.084 204.376C176.084 203.032 176.372 201.864 176.948 200.872C177.524 199.848 178.436 198.984 179.684 198.28C180.964 197.576 182.596 197.016 184.58 196.6C186.564 196.152 188.964 195.848 191.78 195.688C191.652 194.6 191.172 193.752 190.34 193.144C189.54 192.536 188.324 192.232 186.692 192.232C185.54 192.232 184.372 192.44 183.188 192.856C182.036 193.24 180.788 193.768 179.444 194.44L176.948 189.832C178.58 188.904 180.324 188.136 182.18 187.528C184.068 186.92 186.036 186.616 188.084 186.616C191.412 186.616 194.036 187.496 195.956 189.256C197.876 191.016 198.836 193.72 198.836 197.368V211H193.076L192.548 208.312H192.356C191.14 209.24 189.812 210.024 188.372 210.664C186.932 211.272 185.444 211.576 183.908 211.576C182.692 211.576 181.604 211.384 180.644 211C179.684 210.648 178.868 210.152 178.196 209.512C177.524 208.84 176.996 208.072 176.612 207.208C176.26 206.344 176.084 205.4 176.084 204.376ZM182.852 203.848C182.852 204.616 183.14 205.192 183.716 205.576C184.324 205.928 185.14 206.104 186.164 206.104C187.22 206.104 188.212 205.896 189.14 205.48C190.068 205.032 190.948 204.488 191.78 203.848V199.912C190.02 200.008 188.564 200.168 187.412 200.392C186.26 200.616 185.348 200.904 184.676 201.256C184.004 201.576 183.524 201.96 183.236 202.408C182.98 202.856 182.852 203.336 182.852 203.848ZM205.394 187.192H211.154L211.682 190.36H211.874C212.898 189.336 214.066 188.456 215.378 187.72C216.722 186.984 218.29 186.616 220.082 186.616C222.77 186.616 224.738 187.48 225.986 189.208C227.234 190.936 227.858 193.304 227.858 196.312V211H220.802V197.224C220.802 195.624 220.546 194.456 220.034 193.72C219.522 192.984 218.61 192.616 217.298 192.616C216.338 192.616 215.49 192.824 214.754 193.24C214.05 193.656 213.282 194.28 212.45 195.112V211H205.394V187.192ZM232.975 199.096C232.975 197.144 233.263 195.4 233.839 193.864C234.415 192.328 235.167 191.032 236.095 189.976C237.055 188.888 238.143 188.056 239.359 187.48C240.575 186.904 241.839 186.616 243.151 186.616C244.527 186.616 245.679 186.856 246.607 187.336C247.535 187.784 248.415 188.392 249.247 189.16L249.007 185.464V177.352H256.063V211H250.303L249.775 208.552H249.631C248.735 209.416 247.711 210.136 246.559 210.712C245.407 211.288 244.223 211.576 243.007 211.576C241.503 211.576 240.127 211.288 238.879 210.712C237.663 210.136 236.607 209.32 235.711 208.264C234.847 207.176 234.175 205.864 233.695 204.328C233.215 202.792 232.975 201.048 232.975 199.096ZM240.223 199C240.223 201.368 240.623 203.096 241.423 204.184C242.223 205.272 243.359 205.816 244.831 205.816C245.631 205.816 246.367 205.656 247.039 205.336C247.711 204.984 248.367 204.408 249.007 203.608V193.96C248.367 193.384 247.711 192.984 247.039 192.76C246.399 192.504 245.727 192.376 245.023 192.376C243.711 192.376 242.575 192.92 241.615 194.008C240.687 195.096 240.223 196.76 240.223 199ZM263.292 187.192H279.9V211H272.844V192.712H263.292V187.192ZM276.06 183.688C274.684 183.688 273.548 183.304 272.652 182.536C271.788 181.768 271.356 180.728 271.356 179.416C271.356 178.104 271.788 177.048 272.652 176.248C273.548 175.416 274.684 175 276.06 175C277.436 175 278.556 175.416 279.42 176.248C280.316 177.048 280.764 178.104 280.764 179.416C280.764 180.728 280.316 181.768 279.42 182.536C278.556 183.304 277.436 183.688 276.06 183.688ZM290.537 199.096C290.537 197.144 290.825 195.4 291.401 193.864C291.977 192.328 292.729 191.032 293.657 189.976C294.617 188.888 295.705 188.056 296.921 187.48C298.137 186.904 299.401 186.616 300.713 186.616C302.089 186.616 303.241 186.856 304.169 187.336C305.097 187.784 305.977 188.392 306.809 189.16L306.569 185.464V177.352H313.625V211H307.865L307.337 208.552H307.193C306.297 209.416 305.273 210.136 304.121 210.712C302.969 211.288 301.785 211.576 300.569 211.576C299.065 211.576 297.689 211.288 296.441 210.712C295.225 210.136 294.169 209.32 293.273 208.264C292.409 207.176 291.737 205.864 291.257 204.328C290.777 202.792 290.537 201.048 290.537 199.096ZM297.785 199C297.785 201.368 298.185 203.096 298.985 204.184C299.785 205.272 300.921 205.816 302.393 205.816C303.193 205.816 303.929 205.656 304.601 205.336C305.273 204.984 305.929 204.408 306.569 203.608V193.96C305.929 193.384 305.273 192.984 304.601 192.76C303.961 192.504 303.289 192.376 302.585 192.376C301.273 192.376 300.137 192.92 299.177 194.008C298.249 195.096 297.785 196.76 297.785 199ZM319.991 204.376C319.991 203.032 320.279 201.864 320.855 200.872C321.431 199.848 322.343 198.984 323.591 198.28C324.871 197.576 326.503 197.016 328.487 196.6C330.471 196.152 332.871 195.848 335.687 195.688C335.559 194.6 335.079 193.752 334.247 193.144C333.447 192.536 332.231 192.232 330.599 192.232C329.447 192.232 328.279 192.44 327.095 192.856C325.943 193.24 324.695 193.768 323.351 194.44L320.855 189.832C322.487 188.904 324.231 188.136 326.087 187.528C327.975 186.92 329.943 186.616 331.991 186.616C335.319 186.616 337.943 187.496 339.863 189.256C341.783 191.016 342.743 193.72 342.743 197.368V211H336.983L336.455 208.312H336.263C335.047 209.24 333.719 210.024 332.279 210.664C330.839 211.272 329.351 211.576 327.815 211.576C326.599 211.576 325.511 211.384 324.551 211C323.591 210.648 322.775 210.152 322.103 209.512C321.431 208.84 320.903 208.072 320.519 207.208C320.167 206.344 319.991 205.4 319.991 204.376ZM326.759 203.848C326.759 204.616 327.047 205.192 327.623 205.576C328.231 205.928 329.047 206.104 330.071 206.104C331.127 206.104 332.119 205.896 333.047 205.48C333.975 205.032 334.855 204.488 335.687 203.848V199.912C333.927 200.008 332.471 200.168 331.319 200.392C330.167 200.616 329.255 200.904 328.583 201.256C327.911 201.576 327.431 201.96 327.143 202.408C326.887 202.856 326.759 203.336 326.759 203.848ZM354.196 192.712H348.196V187.48L354.532 187.192L355.444 180.856H361.252V187.192H371.332V192.712H361.252V201.064C361.252 202.888 361.652 204.184 362.452 204.952C363.252 205.688 364.516 206.056 366.244 206.056C367.172 206.056 368.02 205.976 368.788 205.816C369.556 205.656 370.292 205.448 370.996 205.192L372.244 210.28C371.188 210.6 370.004 210.888 368.692 211.144C367.412 211.432 366.004 211.576 364.468 211.576C362.58 211.576 360.98 211.32 359.668 210.808C358.356 210.296 357.284 209.592 356.452 208.696C355.652 207.768 355.076 206.664 354.724 205.384C354.372 204.104 354.196 202.68 354.196 201.112V192.712Z" fill="#383A48"/>
<path d="M64.0177 87.1433C53.4748 87.1433 44.8315 78.5998 44.8315 67.968C44.8315 57.3361 53.3798 48.7927 64.0177 48.7927C74.6556 48.7927 83.2039 57.3361 83.2039 67.968C83.2039 78.5998 74.5606 87.1433 64.0177 87.1433ZM64.0177 58.2854C58.6988 58.2854 54.3297 62.6521 54.3297 67.968C54.3297 73.2839 58.6988 77.6505 64.0177 77.6505C69.3367 77.6505 73.7058 73.2839 73.7058 67.968C73.7058 62.6521 69.3367 58.2854 64.0177 58.2854Z" fill="#383A48"/>
<path d="M111.794 87.1433C101.251 87.1433 92.6074 78.5998 92.6074 67.968C92.6074 57.3361 101.156 48.7927 111.794 48.7927C122.432 48.7927 130.98 57.3361 130.98 67.968C130.98 78.5998 122.337 87.1433 111.794 87.1433ZM111.794 58.2854C106.475 58.2854 102.106 62.6521 102.106 67.968C102.106 73.2839 106.475 77.6505 111.794 77.6505C117.113 77.6505 121.482 73.2839 121.482 67.968C121.482 62.6521 117.113 58.2854 111.794 58.2854Z" fill="#383A48"/>
<path d="M159.665 87.1433C149.122 87.1433 140.479 78.5998 140.479 67.968C140.479 57.3361 149.027 48.7927 159.665 48.7927C170.303 48.7927 178.851 57.3361 178.851 67.968C178.851 78.5998 170.208 87.1433 159.665 87.1433ZM159.665 58.2854C154.346 58.2854 149.977 62.6521 149.977 67.968C149.977 73.2839 154.346 77.6505 159.665 77.6505C164.984 77.6505 169.353 73.2839 169.353 67.968C169.353 62.6521 164.984 58.2854 159.665 58.2854Z" fill="#383A48"/>
</svg>
