<svg width="704" height="483" viewBox="0 0 704 483" fill="none" xmlns="http://www.w3.org/2000/svg">
<path d="M699.251 142.201C701.874 142.201 704 140.076 704 137.455C704 134.834 701.874 132.709 699.251 132.709C696.628 132.709 694.502 134.834 694.502 137.455C694.502 140.076 696.628 142.201 699.251 142.201Z" fill="#383A48"/>
<path d="M699.251 165.648C701.874 165.648 704 163.523 704 160.902C704 158.28 701.874 156.155 699.251 156.155C696.628 156.155 694.502 158.28 694.502 160.902C694.502 163.523 696.628 165.648 699.251 165.648Z" fill="#383A48"/>
<path d="M699.251 189.096C701.874 189.096 704 186.971 704 184.349C704 181.728 701.874 179.603 699.251 179.603C696.628 179.603 694.502 181.728 694.502 184.349C694.502 186.971 696.628 189.096 699.251 189.096Z" fill="#383A48"/>
<path d="M699.251 212.447C701.874 212.447 704 210.322 704 207.701C704 205.08 701.874 202.955 699.251 202.955C696.628 202.955 694.502 205.08 694.502 207.701C694.502 210.322 696.628 212.447 699.251 212.447Z" fill="#383A48"/>
<path d="M699.251 235.894C701.874 235.894 704 233.769 704 231.148C704 228.526 701.874 226.401 699.251 226.401C696.628 226.401 694.502 228.526 694.502 231.148C694.502 233.769 696.628 235.894 699.251 235.894Z" fill="#383A48"/>
<path d="M699.251 259.342C701.874 259.342 704 257.217 704 254.595C704 251.974 701.874 249.849 699.251 249.849C696.628 249.849 694.502 251.974 694.502 254.595C694.502 257.217 696.628 259.342 699.251 259.342Z" fill="#383A48"/>
<path d="M699.251 282.694C701.874 282.694 704 280.569 704 277.947C704 275.326 701.874 273.201 699.251 273.201C696.628 273.201 694.502 275.326 694.502 277.947C694.502 280.569 696.628 282.694 699.251 282.694Z" fill="#383A48"/>
<path d="M699.251 306.141C701.874 306.141 704 304.016 704 301.395C704 298.773 701.874 296.648 699.251 296.648C696.628 296.648 694.502 298.773 694.502 301.395C694.502 304.016 696.628 306.141 699.251 306.141Z" fill="#383A48"/>
<path d="M699.251 329.588C701.874 329.588 704 327.463 704 324.842C704 322.221 701.874 320.096 699.251 320.096C696.628 320.096 694.502 322.221 694.502 324.842C694.502 327.463 696.628 329.588 699.251 329.588Z" fill="#383A48"/>
<path d="M699.251 352.94C701.874 352.94 704 350.815 704 348.193C704 345.572 701.874 343.447 699.251 343.447C696.628 343.447 694.502 345.572 694.502 348.193C694.502 350.815 696.628 352.94 699.251 352.94Z" fill="#383A48"/>
<path d="M699.251 376.387C701.874 376.387 704 374.262 704 371.641C704 369.019 701.874 366.894 699.251 366.894C696.628 366.894 694.502 369.019 694.502 371.641C694.502 374.262 696.628 376.387 699.251 376.387Z" fill="#383A48"/>
<path d="M699.251 399.835C701.874 399.835 704 397.71 704 395.088C704 392.467 701.874 390.342 699.251 390.342C696.628 390.342 694.502 392.467 694.502 395.088C694.502 397.71 696.628 399.835 699.251 399.835Z" fill="#383A48"/>
<path d="M699.251 423.186C701.874 423.186 704 421.061 704 418.439C704 415.818 701.874 413.693 699.251 413.693C696.628 413.693 694.502 415.818 694.502 418.439C694.502 421.061 696.628 423.186 699.251 423.186Z" fill="#383A48"/>
<path d="M699.251 446.633C701.874 446.633 704 444.508 704 441.887C704 439.265 701.874 437.14 699.251 437.14C696.628 437.14 694.502 439.265 694.502 441.887C694.502 444.508 696.628 446.633 699.251 446.633Z" fill="#383A48"/>
<path d="M699.251 470.081C701.874 470.081 704 467.956 704 465.334C704 462.713 701.874 460.588 699.251 460.588C696.628 460.588 694.502 462.713 694.502 465.334C694.502 467.956 696.628 470.081 699.251 470.081Z" fill="#383A48"/>
<path d="M675.789 142.201C678.412 142.201 680.538 140.076 680.538 137.455C680.538 134.834 678.412 132.709 675.789 132.709C673.166 132.709 671.04 134.834 671.04 137.455C671.04 140.076 673.166 142.201 675.789 142.201Z" fill="#383A48"/>
<path d="M675.789 165.648C678.412 165.648 680.538 163.523 680.538 160.902C680.538 158.28 678.412 156.155 675.789 156.155C673.166 156.155 671.04 158.28 671.04 160.902C671.04 163.523 673.166 165.648 675.789 165.648Z" fill="#383A48"/>
<path d="M675.789 189.096C678.412 189.096 680.538 186.971 680.538 184.349C680.538 181.728 678.412 179.603 675.789 179.603C673.166 179.603 671.04 181.728 671.04 184.349C671.04 186.971 673.166 189.096 675.789 189.096Z" fill="#383A48"/>
<path d="M675.789 212.447C678.412 212.447 680.538 210.322 680.538 207.701C680.538 205.08 678.412 202.955 675.789 202.955C673.166 202.955 671.04 205.08 671.04 207.701C671.04 210.322 673.166 212.447 675.789 212.447Z" fill="#383A48"/>
<path d="M675.789 235.894C678.412 235.894 680.538 233.769 680.538 231.148C680.538 228.526 678.412 226.401 675.789 226.401C673.166 226.401 671.04 228.526 671.04 231.148C671.04 233.769 673.166 235.894 675.789 235.894Z" fill="#383A48"/>
<path d="M675.789 259.342C678.412 259.342 680.538 257.217 680.538 254.595C680.538 251.974 678.412 249.849 675.789 249.849C673.166 249.849 671.04 251.974 671.04 254.595C671.04 257.217 673.166 259.342 675.789 259.342Z" fill="#383A48"/>
<path d="M675.789 282.694C678.412 282.694 680.538 280.569 680.538 277.947C680.538 275.326 678.412 273.201 675.789 273.201C673.166 273.201 671.04 275.326 671.04 277.947C671.04 280.569 673.166 282.694 675.789 282.694Z" fill="#383A48"/>
<path d="M675.789 306.141C678.412 306.141 680.538 304.016 680.538 301.395C680.538 298.773 678.412 296.648 675.789 296.648C673.166 296.648 671.04 298.773 671.04 301.395C671.04 304.016 673.166 306.141 675.789 306.141Z" fill="#383A48"/>
<path d="M675.789 329.588C678.412 329.588 680.538 327.463 680.538 324.842C680.538 322.221 678.412 320.096 675.789 320.096C673.166 320.096 671.04 322.221 671.04 324.842C671.04 327.463 673.166 329.588 675.789 329.588Z" fill="#383A48"/>
<path d="M675.789 352.94C678.412 352.94 680.538 350.815 680.538 348.193C680.538 345.572 678.412 343.447 675.789 343.447C673.166 343.447 671.04 345.572 671.04 348.193C671.04 350.815 673.166 352.94 675.789 352.94Z" fill="#383A48"/>
<path d="M675.789 376.387C678.412 376.387 680.538 374.262 680.538 371.641C680.538 369.019 678.412 366.894 675.789 366.894C673.166 366.894 671.04 369.019 671.04 371.641C671.04 374.262 673.166 376.387 675.789 376.387Z" fill="#383A48"/>
<path d="M675.789 399.835C678.412 399.835 680.538 397.71 680.538 395.088C680.538 392.467 678.412 390.342 675.789 390.342C673.166 390.342 671.04 392.467 671.04 395.088C671.04 397.71 673.166 399.835 675.789 399.835Z" fill="#383A48"/>
<path d="M675.789 423.186C678.412 423.186 680.538 421.061 680.538 418.439C680.538 415.818 678.412 413.693 675.789 413.693C673.166 413.693 671.04 415.818 671.04 418.439C671.04 421.061 673.166 423.186 675.789 423.186Z" fill="#383A48"/>
<path d="M675.789 446.633C678.412 446.633 680.538 444.508 680.538 441.887C680.538 439.265 678.412 437.14 675.789 437.14C673.166 437.14 671.04 439.265 671.04 441.887C671.04 444.508 673.166 446.633 675.789 446.633Z" fill="#383A48"/>
<path d="M675.789 470.081C678.412 470.081 680.538 467.956 680.538 465.334C680.538 462.713 678.412 460.588 675.789 460.588C673.166 460.588 671.04 462.713 671.04 465.334C671.04 467.956 673.166 470.081 675.789 470.081Z" fill="#383A48"/>
<path d="M652.424 142.201C655.047 142.201 657.173 140.076 657.173 137.455C657.173 134.834 655.047 132.709 652.424 132.709C649.801 132.709 647.675 134.834 647.675 137.455C647.675 140.076 649.801 142.201 652.424 142.201Z" fill="#383A48"/>
<path d="M652.424 165.648C655.047 165.648 657.173 163.523 657.173 160.902C657.173 158.28 655.047 156.155 652.424 156.155C649.801 156.155 647.675 158.28 647.675 160.902C647.675 163.523 649.801 165.648 652.424 165.648Z" fill="#383A48"/>
<path d="M652.424 189.096C655.047 189.096 657.173 186.971 657.173 184.349C657.173 181.728 655.047 179.603 652.424 179.603C649.801 179.603 647.675 181.728 647.675 184.349C647.675 186.971 649.801 189.096 652.424 189.096Z" fill="#383A48"/>
<path d="M652.424 212.447C655.047 212.447 657.173 210.322 657.173 207.701C657.173 205.08 655.047 202.955 652.424 202.955C649.801 202.955 647.675 205.08 647.675 207.701C647.675 210.322 649.801 212.447 652.424 212.447Z" fill="#383A48"/>
<path d="M652.424 235.894C655.047 235.894 657.173 233.769 657.173 231.148C657.173 228.526 655.047 226.401 652.424 226.401C649.801 226.401 647.675 228.526 647.675 231.148C647.675 233.769 649.801 235.894 652.424 235.894Z" fill="#383A48"/>
<path d="M652.424 259.342C655.047 259.342 657.173 257.217 657.173 254.595C657.173 251.974 655.047 249.849 652.424 249.849C649.801 249.849 647.675 251.974 647.675 254.595C647.675 257.217 649.801 259.342 652.424 259.342Z" fill="#383A48"/>
<path d="M652.424 282.694C655.047 282.694 657.173 280.569 657.173 277.947C657.173 275.326 655.047 273.201 652.424 273.201C649.801 273.201 647.675 275.326 647.675 277.947C647.675 280.569 649.801 282.694 652.424 282.694Z" fill="#383A48"/>
<path d="M652.424 306.141C655.047 306.141 657.173 304.016 657.173 301.395C657.173 298.773 655.047 296.648 652.424 296.648C649.801 296.648 647.675 298.773 647.675 301.395C647.675 304.016 649.801 306.141 652.424 306.141Z" fill="#383A48"/>
<path d="M652.424 329.588C655.047 329.588 657.173 327.463 657.173 324.842C657.173 322.221 655.047 320.096 652.424 320.096C649.801 320.096 647.675 322.221 647.675 324.842C647.675 327.463 649.801 329.588 652.424 329.588Z" fill="#383A48"/>
<path d="M652.424 352.94C655.047 352.94 657.173 350.815 657.173 348.193C657.173 345.572 655.047 343.447 652.424 343.447C649.801 343.447 647.675 345.572 647.675 348.193C647.675 350.815 649.801 352.94 652.424 352.94Z" fill="#383A48"/>
<path d="M652.424 376.387C655.047 376.387 657.173 374.262 657.173 371.641C657.173 369.019 655.047 366.894 652.424 366.894C649.801 366.894 647.675 369.019 647.675 371.641C647.675 374.262 649.801 376.387 652.424 376.387Z" fill="#383A48"/>
<path d="M652.424 399.835C655.047 399.835 657.173 397.71 657.173 395.088C657.173 392.467 655.047 390.342 652.424 390.342C649.801 390.342 647.675 392.467 647.675 395.088C647.675 397.71 649.801 399.835 652.424 399.835Z" fill="#383A48"/>
<path d="M652.424 423.186C655.047 423.186 657.173 421.061 657.173 418.439C657.173 415.818 655.047 413.693 652.424 413.693C649.801 413.693 647.675 415.818 647.675 418.439C647.675 421.061 649.801 423.186 652.424 423.186Z" fill="#383A48"/>
<path d="M652.424 446.633C655.047 446.633 657.173 444.508 657.173 441.887C657.173 439.265 655.047 437.14 652.424 437.14C649.801 437.14 647.675 439.265 647.675 441.887C647.675 444.508 649.801 446.633 652.424 446.633Z" fill="#383A48"/>
<path d="M652.424 470.081C655.047 470.081 657.173 467.956 657.173 465.334C657.173 462.713 655.047 460.588 652.424 460.588C649.801 460.588 647.675 462.713 647.675 465.334C647.675 467.956 649.801 470.081 652.424 470.081Z" fill="#383A48"/>
<path d="M628.965 142.202C631.588 142.202 633.714 140.077 633.714 137.455C633.714 134.834 631.588 132.709 628.965 132.709C626.342 132.709 624.216 134.834 624.216 137.455C624.216 140.077 626.342 142.202 628.965 142.202Z" fill="#383A48"/>
<path d="M628.965 165.648C631.588 165.648 633.714 163.523 633.714 160.902C633.714 158.28 631.588 156.155 628.965 156.155C626.342 156.155 624.216 158.28 624.216 160.902C624.216 163.523 626.342 165.648 628.965 165.648Z" fill="#383A48"/>
<path d="M628.965 189.096C631.588 189.096 633.714 186.971 633.714 184.349C633.714 181.728 631.588 179.603 628.965 179.603C626.342 179.603 624.216 181.728 624.216 184.349C624.216 186.971 626.342 189.096 628.965 189.096Z" fill="#383A48"/>
<path d="M628.965 212.447C631.588 212.447 633.714 210.322 633.714 207.701C633.714 205.08 631.588 202.955 628.965 202.955C626.342 202.955 624.216 205.08 624.216 207.701C624.216 210.322 626.342 212.447 628.965 212.447Z" fill="#383A48"/>
<path d="M628.965 235.894C631.588 235.894 633.714 233.769 633.714 231.148C633.714 228.526 631.588 226.401 628.965 226.401C626.342 226.401 624.216 228.526 624.216 231.148C624.216 233.769 626.342 235.894 628.965 235.894Z" fill="#383A48"/>
<path d="M628.965 259.342C631.588 259.342 633.714 257.217 633.714 254.595C633.714 251.974 631.588 249.849 628.965 249.849C626.342 249.849 624.216 251.974 624.216 254.595C624.216 257.217 626.342 259.342 628.965 259.342Z" fill="#383A48"/>
<path d="M628.965 282.694C631.588 282.694 633.714 280.569 633.714 277.947C633.714 275.326 631.588 273.201 628.965 273.201C626.342 273.201 624.216 275.326 624.216 277.947C624.216 280.569 626.342 282.694 628.965 282.694Z" fill="#383A48"/>
<path d="M628.965 306.141C631.588 306.141 633.714 304.016 633.714 301.395C633.714 298.773 631.588 296.648 628.965 296.648C626.342 296.648 624.216 298.773 624.216 301.395C624.216 304.016 626.342 306.141 628.965 306.141Z" fill="#383A48"/>
<path d="M628.965 329.588C631.588 329.588 633.714 327.463 633.714 324.842C633.714 322.221 631.588 320.096 628.965 320.096C626.342 320.096 624.216 322.221 624.216 324.842C624.216 327.463 626.342 329.588 628.965 329.588Z" fill="#383A48"/>
<path d="M628.965 352.94C631.588 352.94 633.714 350.815 633.714 348.193C633.714 345.572 631.588 343.447 628.965 343.447C626.342 343.447 624.216 345.572 624.216 348.193C624.216 350.815 626.342 352.94 628.965 352.94Z" fill="#383A48"/>
<path d="M628.965 376.387C631.588 376.387 633.714 374.262 633.714 371.641C633.714 369.019 631.588 366.894 628.965 366.894C626.342 366.894 624.216 369.019 624.216 371.641C624.216 374.262 626.342 376.387 628.965 376.387Z" fill="#383A48"/>
<path d="M628.965 399.835C631.588 399.835 633.714 397.71 633.714 395.088C633.714 392.467 631.588 390.342 628.965 390.342C626.342 390.342 624.216 392.467 624.216 395.088C624.216 397.71 626.342 399.835 628.965 399.835Z" fill="#383A48"/>
<path d="M628.965 423.186C631.588 423.186 633.714 421.061 633.714 418.439C633.714 415.818 631.588 413.693 628.965 413.693C626.342 413.693 624.216 415.818 624.216 418.439C624.216 421.061 626.342 423.186 628.965 423.186Z" fill="#383A48"/>
<path d="M628.965 446.633C631.588 446.633 633.714 444.508 633.714 441.887C633.714 439.265 631.588 437.14 628.965 437.14C626.342 437.14 624.216 439.265 624.216 441.887C624.216 444.508 626.342 446.633 628.965 446.633Z" fill="#383A48"/>
<path d="M628.965 470.081C631.588 470.081 633.714 467.956 633.714 465.334C633.714 462.713 631.588 460.588 628.965 460.588C626.342 460.588 624.216 462.713 624.216 465.334C624.216 467.956 626.342 470.081 628.965 470.081Z" fill="#383A48"/>
<path d="M636.374 131.19H126.61V477.295H636.374V131.19Z" fill="#F3F6E6"/>
<path d="M636.469 482.043H126.61C123.951 482.043 121.861 479.955 121.861 477.297V131.192C121.861 128.534 123.951 126.446 126.61 126.446H636.374C639.034 126.446 641.123 128.534 641.123 131.192V477.297C641.218 479.86 639.034 482.043 636.469 482.043ZM131.359 472.551H631.625V135.939H131.359V472.551Z" fill="#383A48"/>
<path d="M636.376 131.19H126.612V260.291H636.376V131.19Z" fill="#AAC6FC"/>
<path d="M636.47 264.942H126.611C123.952 264.942 121.862 262.854 121.862 260.196V131.095C121.862 128.437 123.952 126.349 126.611 126.349H636.375C639.035 126.349 641.124 128.437 641.124 131.095V260.196C641.219 262.854 639.035 264.942 636.47 264.942ZM131.36 255.45H631.626V135.842H131.36V255.45Z" fill="#383A48"/>
<path d="M553.303 126H514.697C512.067 126 510 128.091 510 130.752V477.248C510 479.909 512.067 482 514.697 482H553.303C555.933 482 558 479.909 558 477.248V130.752C558 128.091 555.84 126 553.303 126Z" fill="#383A48"/>
<path d="M514.513 4.7467H4.74902V477.2H514.513V4.7467Z" fill="#F3F6E6"/>
<path d="M514.513 482.041H4.74906C2.08959 482.041 0 479.952 0 477.294V4.74636C0 2.0884 2.08959 0 4.74906 0H514.513C517.173 0 519.262 2.0884 519.262 4.74636V477.294C519.262 479.857 517.173 482.041 514.513 482.041ZM9.49812 472.548H509.764V9.49272H9.49812V472.548Z" fill="#383A48"/>
<path d="M514.513 4.7467H4.74902V131.095H514.513V4.7467Z" fill="#F6E049"/>
<path d="M519.262 135.936H0V0H519.262V135.936ZM9.49812 126.443H509.764V9.49273H9.49812V126.443Z" fill="#383A48"/>
<path d="M56 179H464V242H56V179Z" fill="#F3F6E6" stroke="#383A48" stroke-width="2"/>
<path d="M79.772 195.616H86.072L91.868 209.266L94.22 215.272H94.388C94.248 213.816 94.066 212.192 93.842 210.4C93.618 208.608 93.506 206.914 93.506 205.318V195.616H99.428V223H93.128L87.332 209.35L84.98 203.386H84.812C84.952 204.898 85.134 206.522 85.358 208.258C85.582 209.994 85.694 211.674 85.694 213.298V223H79.772V195.616ZM105.292 217.792H111.676V200.824H105.292V195.616H124.276V200.824H117.892V217.792H124.276V223H105.292V217.792ZM130.097 195.616H136.271L139.043 205.318L139.967 209.098H140.093L141.017 205.318L143.663 195.616H149.837V223H144.839V214.054C144.839 213.298 144.867 212.374 144.923 211.282C144.979 210.162 145.049 209.014 145.133 207.838C145.217 206.662 145.301 205.528 145.385 204.436C145.469 203.316 145.553 202.392 145.637 201.664H145.511L143.369 209.182L141.269 215.692H138.539L136.439 209.182L134.381 201.664H134.213C134.297 202.392 134.381 203.316 134.465 204.436C134.549 205.528 134.633 206.662 134.717 207.838C134.801 209.014 134.871 210.162 134.927 211.282C134.983 212.374 135.011 213.298 135.011 214.054V223H130.097V195.616Z" fill="#383A48"/>
<path d="M56 270H464V332H56V270Z" fill="#F3F6E6" stroke="#383A48" stroke-width="2"/>
<path d="M86.492 290.824H78.302V285.616H100.898V290.824H92.708V313H86.492V290.824ZM104.158 302.584C104.158 300.848 104.452 299.308 105.04 297.964C105.628 296.592 106.412 295.444 107.392 294.52C108.4 293.596 109.534 292.896 110.794 292.42C112.082 291.916 113.412 291.664 114.784 291.664C116.156 291.664 117.472 291.916 118.732 292.42C120.02 292.896 121.154 293.596 122.134 294.52C123.142 295.444 123.94 296.592 124.528 297.964C125.116 299.308 125.41 300.848 125.41 302.584C125.41 304.32 125.116 305.874 124.528 307.246C123.94 308.59 123.142 309.724 122.134 310.648C121.154 311.572 120.02 312.286 118.732 312.79C117.472 313.266 116.156 313.504 114.784 313.504C113.412 313.504 112.082 313.266 110.794 312.79C109.534 312.286 108.4 311.572 107.392 310.648C106.412 309.724 105.628 308.59 105.04 307.246C104.452 305.874 104.158 304.32 104.158 302.584ZM110.5 302.584C110.5 304.404 110.85 305.846 111.55 306.91C112.278 307.974 113.356 308.506 114.784 308.506C116.212 308.506 117.276 307.974 117.976 306.91C118.704 305.846 119.068 304.404 119.068 302.584C119.068 300.764 118.704 299.322 117.976 298.258C117.276 297.194 116.212 296.662 114.784 296.662C113.356 296.662 112.278 297.194 111.55 298.258C110.85 299.322 110.5 300.764 110.5 302.584ZM130.559 283.558H136.733V300.568H136.901L144.545 292.168H151.307L143.411 300.736L151.937 313H145.259L139.799 304.516L136.733 307.75V313H130.559V283.558ZM154.861 302.584C154.861 300.876 155.155 299.35 155.743 298.006C156.359 296.662 157.171 295.528 158.179 294.604C159.187 293.652 160.335 292.924 161.623 292.42C162.939 291.916 164.297 291.664 165.697 291.664C167.293 291.664 168.707 291.916 169.939 292.42C171.171 292.924 172.193 293.624 173.005 294.52C173.817 295.416 174.433 296.48 174.853 297.712C175.273 298.916 175.483 300.232 175.483 301.66C175.483 302.22 175.455 302.752 175.399 303.256C175.343 303.76 175.287 304.138 175.231 304.39H161.203C161.427 305.958 162.099 307.092 163.219 307.792C164.367 308.464 165.711 308.8 167.251 308.8C168.203 308.8 169.099 308.688 169.939 308.464C170.807 308.212 171.703 307.848 172.627 307.372L174.643 311.068C173.467 311.824 172.151 312.426 170.695 312.874C169.239 313.294 167.811 313.504 166.411 313.504C164.787 313.504 163.275 313.266 161.875 312.79C160.475 312.286 159.257 311.572 158.221 310.648C157.185 309.696 156.359 308.548 155.743 307.204C155.155 305.86 154.861 304.32 154.861 302.584ZM169.897 300.316C169.897 299.14 169.575 298.188 168.931 297.46C168.287 296.732 167.251 296.368 165.823 296.368C164.703 296.368 163.709 296.69 162.841 297.334C161.973 297.978 161.399 298.972 161.119 300.316H169.897ZM180.758 292.168H185.798L186.26 294.94H186.428C187.324 294.044 188.346 293.274 189.494 292.63C190.67 291.986 192.042 291.664 193.61 291.664C195.962 291.664 197.684 292.42 198.776 293.932C199.868 295.444 200.414 297.516 200.414 300.148V313H194.24V300.946C194.24 299.546 194.016 298.524 193.568 297.88C193.12 297.236 192.322 296.914 191.174 296.914C190.334 296.914 189.592 297.096 188.948 297.46C188.332 297.824 187.66 298.37 186.932 299.098V313H180.758V292.168Z" fill="#383A48"/>
<path d="M465 359H55V414H465V359Z" fill="#0066FF"/>
<path d="M199.494 372.616H205.668V394.792H217.848V400H199.494V372.616ZM222.158 389.584C222.158 387.848 222.452 386.308 223.04 384.964C223.628 383.592 224.412 382.444 225.392 381.52C226.4 380.596 227.534 379.896 228.794 379.42C230.082 378.916 231.412 378.664 232.784 378.664C234.156 378.664 235.472 378.916 236.732 379.42C238.02 379.896 239.154 380.596 240.134 381.52C241.142 382.444 241.94 383.592 242.528 384.964C243.116 386.308 243.41 387.848 243.41 389.584C243.41 391.32 243.116 392.874 242.528 394.246C241.94 395.59 241.142 396.724 240.134 397.648C239.154 398.572 238.02 399.286 236.732 399.79C235.472 400.266 234.156 400.504 232.784 400.504C231.412 400.504 230.082 400.266 228.794 399.79C227.534 399.286 226.4 398.572 225.392 397.648C224.412 396.724 223.628 395.59 223.04 394.246C222.452 392.874 222.158 391.32 222.158 389.584ZM228.5 389.584C228.5 391.404 228.85 392.846 229.55 393.91C230.278 394.974 231.356 395.506 232.784 395.506C234.212 395.506 235.276 394.974 235.976 393.91C236.704 392.846 237.068 391.404 237.068 389.584C237.068 387.764 236.704 386.322 235.976 385.258C235.276 384.194 234.212 383.662 232.784 383.662C231.356 383.662 230.278 384.194 229.55 385.258C228.85 386.322 228.5 387.764 228.5 389.584ZM252.591 402.604C252.591 403.388 253.053 403.976 253.977 404.368C254.929 404.788 256.231 404.998 257.883 404.998C259.563 404.998 260.921 404.746 261.957 404.242C262.993 403.766 263.511 403.164 263.511 402.436C263.511 401.764 263.203 401.316 262.587 401.092C261.971 400.896 261.061 400.798 259.857 400.798H257.253C256.497 400.798 255.867 400.77 255.363 400.714C254.887 400.686 254.453 400.63 254.061 400.546C253.529 400.882 253.151 401.204 252.927 401.512C252.703 401.848 252.591 402.212 252.591 402.604ZM247.551 403.528C247.551 401.82 248.629 400.434 250.785 399.37V399.202C250.225 398.838 249.735 398.376 249.315 397.816C248.895 397.256 248.685 396.528 248.685 395.632C248.685 394.932 248.909 394.232 249.357 393.532C249.833 392.832 250.435 392.23 251.163 391.726V391.558C250.407 391.054 249.763 390.354 249.231 389.458C248.699 388.534 248.433 387.456 248.433 386.224C248.433 384.964 248.671 383.872 249.147 382.948C249.651 381.996 250.309 381.212 251.121 380.596C251.933 379.952 252.871 379.476 253.935 379.168C255.027 378.832 256.161 378.664 257.337 378.664C258.625 378.664 259.773 378.832 260.781 379.168H269.223V383.662H264.981C265.233 383.97 265.457 384.376 265.653 384.88C265.849 385.356 265.947 385.874 265.947 386.434C265.947 387.638 265.723 388.674 265.275 389.542C264.827 390.41 264.211 391.138 263.427 391.726C262.671 392.286 261.761 392.706 260.697 392.986C259.661 393.266 258.541 393.406 257.337 393.406C256.441 393.406 255.489 393.266 254.481 392.986C254.173 393.21 253.935 393.434 253.767 393.658C253.627 393.882 253.557 394.162 253.557 394.498C253.557 395.058 253.837 395.464 254.397 395.716C254.957 395.968 255.853 396.094 257.085 396.094H260.949C263.693 396.094 265.779 396.5 267.207 397.312C268.663 398.124 269.391 399.468 269.391 401.344C269.391 402.436 269.097 403.444 268.509 404.368C267.921 405.292 267.095 406.076 266.031 406.72C264.967 407.392 263.665 407.91 262.125 408.274C260.585 408.666 258.877 408.862 257.001 408.862C255.657 408.862 254.397 408.75 253.221 408.526C252.073 408.33 251.079 408.008 250.239 407.56C249.399 407.14 248.741 406.594 248.265 405.922C247.789 405.25 247.551 404.452 247.551 403.528ZM257.337 389.668C258.205 389.668 258.947 389.388 259.563 388.828C260.207 388.24 260.529 387.372 260.529 386.224C260.529 385.104 260.207 384.264 259.563 383.704C258.947 383.116 258.205 382.822 257.337 382.822C256.469 382.822 255.727 383.116 255.111 383.704C254.523 384.264 254.229 385.104 254.229 386.224C254.229 387.372 254.523 388.24 255.111 388.828C255.727 389.388 256.469 389.668 257.337 389.668ZM273.869 379.168H288.401V400H282.227V383.998H273.869V379.168ZM285.041 376.102C283.837 376.102 282.843 375.766 282.059 375.094C281.303 374.422 280.925 373.512 280.925 372.364C280.925 371.216 281.303 370.292 282.059 369.592C282.843 368.864 283.837 368.5 285.041 368.5C286.245 368.5 287.225 368.864 287.981 369.592C288.765 370.292 289.157 371.216 289.157 372.364C289.157 373.512 288.765 374.422 287.981 375.094C287.225 375.766 286.245 376.102 285.041 376.102ZM298.758 379.168H303.798L304.26 381.94H304.428C305.324 381.044 306.346 380.274 307.494 379.63C308.67 378.986 310.042 378.664 311.61 378.664C313.962 378.664 315.684 379.42 316.776 380.932C317.868 382.444 318.414 384.516 318.414 387.148V400H312.24V387.946C312.24 386.546 312.016 385.524 311.568 384.88C311.12 384.236 310.322 383.914 309.174 383.914C308.334 383.914 307.592 384.096 306.948 384.46C306.332 384.824 305.66 385.37 304.932 386.098V400H298.758V379.168Z" fill="white"/>
<path d="M64.0177 87.1433C53.4748 87.1433 44.8315 78.5998 44.8315 67.968C44.8315 57.3361 53.3798 48.7927 64.0177 48.7927C74.6556 48.7927 83.2039 57.3361 83.2039 67.968C83.2039 78.5998 74.5606 87.1433 64.0177 87.1433ZM64.0177 58.2854C58.6988 58.2854 54.3297 62.6521 54.3297 67.968C54.3297 73.2839 58.6988 77.6505 64.0177 77.6505C69.3367 77.6505 73.7058 73.2839 73.7058 67.968C73.7058 62.6521 69.3367 58.2854 64.0177 58.2854Z" fill="#383A48"/>
<path d="M111.794 87.1433C101.251 87.1433 92.6074 78.5998 92.6074 67.968C92.6074 57.3361 101.156 48.7927 111.794 48.7927C122.432 48.7927 130.98 57.3361 130.98 67.968C130.98 78.5998 122.337 87.1433 111.794 87.1433ZM111.794 58.2854C106.475 58.2854 102.106 62.6521 102.106 67.968C102.106 73.2839 106.475 77.6505 111.794 77.6505C117.113 77.6505 121.482 73.2839 121.482 67.968C121.482 62.6521 117.113 58.2854 111.794 58.2854Z" fill="#383A48"/>
<path d="M159.665 87.1433C149.122 87.1433 140.479 78.5998 140.479 67.968C140.479 57.3361 149.027 48.7927 159.665 48.7927C170.303 48.7927 178.851 57.3361 178.851 67.968C178.851 78.5998 170.208 87.1433 159.665 87.1433ZM159.665 58.2854C154.346 58.2854 149.977 62.6521 149.977 67.968C149.977 73.2839 154.346 77.6505 159.665 77.6505C164.984 77.6505 169.353 73.2839 169.353 67.968C169.353 62.6521 164.984 58.2854 159.665 58.2854Z" fill="#383A48"/>
</svg>
