<svg width="704" height="483" viewBox="0 0 704 483" fill="none" xmlns="http://www.w3.org/2000/svg">
<path d="M699.251 142.202C701.874 142.202 704 140.076 704 137.455C704 134.834 701.874 132.709 699.251 132.709C696.628 132.709 694.502 134.834 694.502 137.455C694.502 140.076 696.628 142.202 699.251 142.202Z" fill="#383A48"/>
<path d="M699.251 165.648C701.874 165.648 704 163.523 704 160.902C704 158.281 701.874 156.156 699.251 156.156C696.628 156.156 694.502 158.281 694.502 160.902C694.502 163.523 696.628 165.648 699.251 165.648Z" fill="#383A48"/>
<path d="M699.251 189.096C701.874 189.096 704 186.971 704 184.349C704 181.728 701.874 179.603 699.251 179.603C696.628 179.603 694.502 181.728 694.502 184.349C694.502 186.971 696.628 189.096 699.251 189.096Z" fill="#383A48"/>
<path d="M699.251 212.448C701.874 212.448 704 210.323 704 207.701C704 205.08 701.874 202.955 699.251 202.955C696.628 202.955 694.502 205.08 694.502 207.701C694.502 210.323 696.628 212.448 699.251 212.448Z" fill="#383A48"/>
<path d="M699.251 235.894C701.874 235.894 704 233.769 704 231.148C704 228.526 701.874 226.401 699.251 226.401C696.628 226.401 694.502 228.526 694.502 231.148C694.502 233.769 696.628 235.894 699.251 235.894Z" fill="#383A48"/>
<path d="M699.251 259.342C701.874 259.342 704 257.217 704 254.595C704 251.974 701.874 249.849 699.251 249.849C696.628 249.849 694.502 251.974 694.502 254.595C694.502 257.217 696.628 259.342 699.251 259.342Z" fill="#383A48"/>
<path d="M699.251 282.694C701.874 282.694 704 280.569 704 277.947C704 275.326 701.874 273.201 699.251 273.201C696.628 273.201 694.502 275.326 694.502 277.947C694.502 280.569 696.628 282.694 699.251 282.694Z" fill="#383A48"/>
<path d="M699.251 306.141C701.874 306.141 704 304.016 704 301.395C704 298.773 701.874 296.648 699.251 296.648C696.628 296.648 694.502 298.773 694.502 301.395C694.502 304.016 696.628 306.141 699.251 306.141Z" fill="#383A48"/>
<path d="M699.251 329.588C701.874 329.588 704 327.463 704 324.842C704 322.221 701.874 320.096 699.251 320.096C696.628 320.096 694.502 322.221 694.502 324.842C694.502 327.463 696.628 329.588 699.251 329.588Z" fill="#383A48"/>
<path d="M699.251 352.94C701.874 352.94 704 350.815 704 348.193C704 345.572 701.874 343.447 699.251 343.447C696.628 343.447 694.502 345.572 694.502 348.193C694.502 350.815 696.628 352.94 699.251 352.94Z" fill="#383A48"/>
<path d="M699.251 376.387C701.874 376.387 704 374.262 704 371.641C704 369.019 701.874 366.894 699.251 366.894C696.628 366.894 694.502 369.019 694.502 371.641C694.502 374.262 696.628 376.387 699.251 376.387Z" fill="#383A48"/>
<path d="M699.251 399.835C701.874 399.835 704 397.71 704 395.088C704 392.467 701.874 390.342 699.251 390.342C696.628 390.342 694.502 392.467 694.502 395.088C694.502 397.71 696.628 399.835 699.251 399.835Z" fill="#383A48"/>
<path d="M699.251 423.186C701.874 423.186 704 421.061 704 418.439C704 415.818 701.874 413.693 699.251 413.693C696.628 413.693 694.502 415.818 694.502 418.439C694.502 421.061 696.628 423.186 699.251 423.186Z" fill="#383A48"/>
<path d="M699.251 446.633C701.874 446.633 704 444.508 704 441.887C704 439.265 701.874 437.14 699.251 437.14C696.628 437.14 694.502 439.265 694.502 441.887C694.502 444.508 696.628 446.633 699.251 446.633Z" fill="#383A48"/>
<path d="M699.251 470.081C701.874 470.081 704 467.956 704 465.334C704 462.713 701.874 460.588 699.251 460.588C696.628 460.588 694.502 462.713 694.502 465.334C694.502 467.956 696.628 470.081 699.251 470.081Z" fill="#383A48"/>
<path d="M675.789 142.202C678.412 142.202 680.538 140.076 680.538 137.455C680.538 134.834 678.412 132.709 675.789 132.709C673.166 132.709 671.04 134.834 671.04 137.455C671.04 140.076 673.166 142.202 675.789 142.202Z" fill="#383A48"/>
<path d="M675.789 165.648C678.412 165.648 680.538 163.523 680.538 160.902C680.538 158.281 678.412 156.156 675.789 156.156C673.166 156.156 671.04 158.281 671.04 160.902C671.04 163.523 673.166 165.648 675.789 165.648Z" fill="#383A48"/>
<path d="M675.789 189.096C678.412 189.096 680.538 186.971 680.538 184.349C680.538 181.728 678.412 179.603 675.789 179.603C673.166 179.603 671.04 181.728 671.04 184.349C671.04 186.971 673.166 189.096 675.789 189.096Z" fill="#383A48"/>
<path d="M675.789 212.448C678.412 212.448 680.538 210.323 680.538 207.701C680.538 205.08 678.412 202.955 675.789 202.955C673.166 202.955 671.04 205.08 671.04 207.701C671.04 210.323 673.166 212.448 675.789 212.448Z" fill="#383A48"/>
<path d="M675.789 235.894C678.412 235.894 680.538 233.769 680.538 231.148C680.538 228.526 678.412 226.401 675.789 226.401C673.166 226.401 671.04 228.526 671.04 231.148C671.04 233.769 673.166 235.894 675.789 235.894Z" fill="#383A48"/>
<path d="M675.789 259.342C678.412 259.342 680.538 257.217 680.538 254.595C680.538 251.974 678.412 249.849 675.789 249.849C673.166 249.849 671.04 251.974 671.04 254.595C671.04 257.217 673.166 259.342 675.789 259.342Z" fill="#383A48"/>
<path d="M675.789 282.694C678.412 282.694 680.538 280.569 680.538 277.947C680.538 275.326 678.412 273.201 675.789 273.201C673.166 273.201 671.04 275.326 671.04 277.947C671.04 280.569 673.166 282.694 675.789 282.694Z" fill="#383A48"/>
<path d="M675.789 306.141C678.412 306.141 680.538 304.016 680.538 301.395C680.538 298.773 678.412 296.648 675.789 296.648C673.166 296.648 671.04 298.773 671.04 301.395C671.04 304.016 673.166 306.141 675.789 306.141Z" fill="#383A48"/>
<path d="M675.789 329.588C678.412 329.588 680.538 327.463 680.538 324.842C680.538 322.221 678.412 320.096 675.789 320.096C673.166 320.096 671.04 322.221 671.04 324.842C671.04 327.463 673.166 329.588 675.789 329.588Z" fill="#383A48"/>
<path d="M675.789 352.94C678.412 352.94 680.538 350.815 680.538 348.193C680.538 345.572 678.412 343.447 675.789 343.447C673.166 343.447 671.04 345.572 671.04 348.193C671.04 350.815 673.166 352.94 675.789 352.94Z" fill="#383A48"/>
<path d="M675.789 376.387C678.412 376.387 680.538 374.262 680.538 371.641C680.538 369.019 678.412 366.894 675.789 366.894C673.166 366.894 671.04 369.019 671.04 371.641C671.04 374.262 673.166 376.387 675.789 376.387Z" fill="#383A48"/>
<path d="M675.789 399.835C678.412 399.835 680.538 397.71 680.538 395.088C680.538 392.467 678.412 390.342 675.789 390.342C673.166 390.342 671.04 392.467 671.04 395.088C671.04 397.71 673.166 399.835 675.789 399.835Z" fill="#383A48"/>
<path d="M675.789 423.186C678.412 423.186 680.538 421.061 680.538 418.439C680.538 415.818 678.412 413.693 675.789 413.693C673.166 413.693 671.04 415.818 671.04 418.439C671.04 421.061 673.166 423.186 675.789 423.186Z" fill="#383A48"/>
<path d="M675.789 446.633C678.412 446.633 680.538 444.508 680.538 441.887C680.538 439.265 678.412 437.14 675.789 437.14C673.166 437.14 671.04 439.265 671.04 441.887C671.04 444.508 673.166 446.633 675.789 446.633Z" fill="#383A48"/>
<path d="M675.789 470.081C678.412 470.081 680.538 467.956 680.538 465.334C680.538 462.713 678.412 460.588 675.789 460.588C673.166 460.588 671.04 462.713 671.04 465.334C671.04 467.956 673.166 470.081 675.789 470.081Z" fill="#383A48"/>
<path d="M652.424 142.202C655.047 142.202 657.173 140.076 657.173 137.455C657.173 134.834 655.047 132.709 652.424 132.709C649.801 132.709 647.675 134.834 647.675 137.455C647.675 140.076 649.801 142.202 652.424 142.202Z" fill="#383A48"/>
<path d="M652.424 165.648C655.047 165.648 657.173 163.523 657.173 160.902C657.173 158.281 655.047 156.156 652.424 156.156C649.801 156.156 647.675 158.281 647.675 160.902C647.675 163.523 649.801 165.648 652.424 165.648Z" fill="#383A48"/>
<path d="M652.424 189.096C655.047 189.096 657.173 186.971 657.173 184.349C657.173 181.728 655.047 179.603 652.424 179.603C649.801 179.603 647.675 181.728 647.675 184.349C647.675 186.971 649.801 189.096 652.424 189.096Z" fill="#383A48"/>
<path d="M652.424 212.448C655.047 212.448 657.173 210.323 657.173 207.701C657.173 205.08 655.047 202.955 652.424 202.955C649.801 202.955 647.675 205.08 647.675 207.701C647.675 210.323 649.801 212.448 652.424 212.448Z" fill="#383A48"/>
<path d="M652.424 235.894C655.047 235.894 657.173 233.769 657.173 231.148C657.173 228.526 655.047 226.401 652.424 226.401C649.801 226.401 647.675 228.526 647.675 231.148C647.675 233.769 649.801 235.894 652.424 235.894Z" fill="#383A48"/>
<path d="M652.424 259.342C655.047 259.342 657.173 257.217 657.173 254.595C657.173 251.974 655.047 249.849 652.424 249.849C649.801 249.849 647.675 251.974 647.675 254.595C647.675 257.217 649.801 259.342 652.424 259.342Z" fill="#383A48"/>
<path d="M652.424 282.694C655.047 282.694 657.173 280.569 657.173 277.947C657.173 275.326 655.047 273.201 652.424 273.201C649.801 273.201 647.675 275.326 647.675 277.947C647.675 280.569 649.801 282.694 652.424 282.694Z" fill="#383A48"/>
<path d="M652.424 306.141C655.047 306.141 657.173 304.016 657.173 301.395C657.173 298.773 655.047 296.648 652.424 296.648C649.801 296.648 647.675 298.773 647.675 301.395C647.675 304.016 649.801 306.141 652.424 306.141Z" fill="#383A48"/>
<path d="M652.424 329.588C655.047 329.588 657.173 327.463 657.173 324.842C657.173 322.221 655.047 320.096 652.424 320.096C649.801 320.096 647.675 322.221 647.675 324.842C647.675 327.463 649.801 329.588 652.424 329.588Z" fill="#383A48"/>
<path d="M652.424 352.94C655.047 352.94 657.173 350.815 657.173 348.193C657.173 345.572 655.047 343.447 652.424 343.447C649.801 343.447 647.675 345.572 647.675 348.193C647.675 350.815 649.801 352.94 652.424 352.94Z" fill="#383A48"/>
<path d="M652.424 376.387C655.047 376.387 657.173 374.262 657.173 371.641C657.173 369.019 655.047 366.894 652.424 366.894C649.801 366.894 647.675 369.019 647.675 371.641C647.675 374.262 649.801 376.387 652.424 376.387Z" fill="#383A48"/>
<path d="M652.424 399.835C655.047 399.835 657.173 397.71 657.173 395.088C657.173 392.467 655.047 390.342 652.424 390.342C649.801 390.342 647.675 392.467 647.675 395.088C647.675 397.71 649.801 399.835 652.424 399.835Z" fill="#383A48"/>
<path d="M652.424 423.186C655.047 423.186 657.173 421.061 657.173 418.439C657.173 415.818 655.047 413.693 652.424 413.693C649.801 413.693 647.675 415.818 647.675 418.439C647.675 421.061 649.801 423.186 652.424 423.186Z" fill="#383A48"/>
<path d="M652.424 446.633C655.047 446.633 657.173 444.508 657.173 441.887C657.173 439.265 655.047 437.14 652.424 437.14C649.801 437.14 647.675 439.265 647.675 441.887C647.675 444.508 649.801 446.633 652.424 446.633Z" fill="#383A48"/>
<path d="M652.424 470.081C655.047 470.081 657.173 467.956 657.173 465.334C657.173 462.713 655.047 460.588 652.424 460.588C649.801 460.588 647.675 462.713 647.675 465.334C647.675 467.956 649.801 470.081 652.424 470.081Z" fill="#383A48"/>
<path d="M628.965 142.202C631.588 142.202 633.714 140.076 633.714 137.455C633.714 134.834 631.588 132.709 628.965 132.709C626.342 132.709 624.216 134.834 624.216 137.455C624.216 140.076 626.342 142.202 628.965 142.202Z" fill="#383A48"/>
<path d="M628.965 165.648C631.588 165.648 633.714 163.523 633.714 160.902C633.714 158.281 631.588 156.156 628.965 156.156C626.342 156.156 624.216 158.281 624.216 160.902C624.216 163.523 626.342 165.648 628.965 165.648Z" fill="#383A48"/>
<path d="M628.965 189.096C631.588 189.096 633.714 186.971 633.714 184.349C633.714 181.728 631.588 179.603 628.965 179.603C626.342 179.603 624.216 181.728 624.216 184.349C624.216 186.971 626.342 189.096 628.965 189.096Z" fill="#383A48"/>
<path d="M628.965 212.448C631.588 212.448 633.714 210.323 633.714 207.701C633.714 205.08 631.588 202.955 628.965 202.955C626.342 202.955 624.216 205.08 624.216 207.701C624.216 210.323 626.342 212.448 628.965 212.448Z" fill="#383A48"/>
<path d="M628.965 235.894C631.588 235.894 633.714 233.769 633.714 231.148C633.714 228.526 631.588 226.401 628.965 226.401C626.342 226.401 624.216 228.526 624.216 231.148C624.216 233.769 626.342 235.894 628.965 235.894Z" fill="#383A48"/>
<path d="M628.965 259.342C631.588 259.342 633.714 257.217 633.714 254.595C633.714 251.974 631.588 249.849 628.965 249.849C626.342 249.849 624.216 251.974 624.216 254.595C624.216 257.217 626.342 259.342 628.965 259.342Z" fill="#383A48"/>
<path d="M628.965 282.694C631.588 282.694 633.714 280.569 633.714 277.947C633.714 275.326 631.588 273.201 628.965 273.201C626.342 273.201 624.216 275.326 624.216 277.947C624.216 280.569 626.342 282.694 628.965 282.694Z" fill="#383A48"/>
<path d="M628.965 306.141C631.588 306.141 633.714 304.016 633.714 301.395C633.714 298.773 631.588 296.648 628.965 296.648C626.342 296.648 624.216 298.773 624.216 301.395C624.216 304.016 626.342 306.141 628.965 306.141Z" fill="#383A48"/>
<path d="M628.965 329.588C631.588 329.588 633.714 327.463 633.714 324.842C633.714 322.221 631.588 320.096 628.965 320.096C626.342 320.096 624.216 322.221 624.216 324.842C624.216 327.463 626.342 329.588 628.965 329.588Z" fill="#383A48"/>
<path d="M628.965 352.94C631.588 352.94 633.714 350.815 633.714 348.193C633.714 345.572 631.588 343.447 628.965 343.447C626.342 343.447 624.216 345.572 624.216 348.193C624.216 350.815 626.342 352.94 628.965 352.94Z" fill="#383A48"/>
<path d="M628.965 376.387C631.588 376.387 633.714 374.262 633.714 371.641C633.714 369.019 631.588 366.894 628.965 366.894C626.342 366.894 624.216 369.019 624.216 371.641C624.216 374.262 626.342 376.387 628.965 376.387Z" fill="#383A48"/>
<path d="M628.965 399.835C631.588 399.835 633.714 397.71 633.714 395.088C633.714 392.467 631.588 390.342 628.965 390.342C626.342 390.342 624.216 392.467 624.216 395.088C624.216 397.71 626.342 399.835 628.965 399.835Z" fill="#383A48"/>
<path d="M628.965 423.186C631.588 423.186 633.714 421.061 633.714 418.439C633.714 415.818 631.588 413.693 628.965 413.693C626.342 413.693 624.216 415.818 624.216 418.439C624.216 421.061 626.342 423.186 628.965 423.186Z" fill="#383A48"/>
<path d="M628.965 446.633C631.588 446.633 633.714 444.508 633.714 441.887C633.714 439.265 631.588 437.14 628.965 437.14C626.342 437.14 624.216 439.265 624.216 441.887C624.216 444.508 626.342 446.633 628.965 446.633Z" fill="#383A48"/>
<path d="M628.965 470.081C631.588 470.081 633.714 467.956 633.714 465.334C633.714 462.713 631.588 460.588 628.965 460.588C626.342 460.588 624.216 462.713 624.216 465.334C624.216 467.956 626.342 470.081 628.965 470.081Z" fill="#383A48"/>
<path d="M636.374 131.19H126.61V477.295H636.374V131.19Z" fill="#F3F6E6"/>
<path d="M636.469 482.044H126.61C123.951 482.044 121.861 479.955 121.861 477.297V131.192C121.861 128.534 123.951 126.446 126.61 126.446H636.374C639.034 126.446 641.123 128.534 641.123 131.192V477.297C641.218 479.86 639.034 482.044 636.469 482.044ZM131.359 472.551H631.625V135.939H131.359V472.551Z" fill="#383A48"/>
<path d="M636.376 131.19H126.612V260.291H636.376V131.19Z" fill="#AAC6FC"/>
<path d="M636.47 264.942H126.611C123.952 264.942 121.862 262.854 121.862 260.196V131.095C121.862 128.437 123.952 126.349 126.611 126.349H636.375C639.035 126.349 641.124 128.437 641.124 131.095V260.196C641.219 262.854 639.035 264.942 636.47 264.942ZM131.36 255.45H631.626V135.842H131.36V255.45Z" fill="#383A48"/>
<path d="M553.303 126H514.697C512.067 126 510 128.091 510 130.752V477.248C510 479.909 512.067 482 514.697 482H553.303C555.933 482 558 479.909 558 477.248V130.752C558 128.091 555.84 126 553.303 126Z" fill="#383A48"/>
<path d="M514.513 4.74658H4.74902V477.199H514.513V4.74658Z" fill="#F3F6E6"/>
<path d="M514.513 482.041H4.74906C2.08959 482.041 0 479.952 0 477.294V4.74636C0 2.0884 2.08959 0 4.74906 0H514.513C517.173 0 519.262 2.0884 519.262 4.74636V477.294C519.262 479.857 517.173 482.041 514.513 482.041ZM9.49812 472.548H509.764V9.49272H9.49812V472.548Z" fill="#383A48"/>
<path d="M514.513 4.74658H4.74902V131.095H514.513V4.74658Z" fill="#F6E049"/>
<path d="M519.262 135.936H0V0H519.262V135.936ZM9.49812 126.443H509.764V9.49273H9.49812V126.443Z" fill="#383A48"/>
<path d="M163.48 423.216C164.664 424.176 165.944 424.96 167.32 425.568C168.728 426.176 170.12 426.48 171.496 426.48C173.128 426.48 174.312 426.208 175.048 425.664C175.816 425.12 176.2 424.384 176.2 423.456C176.2 422.976 176.088 422.56 175.864 422.208C175.64 421.856 175.32 421.552 174.904 421.296C174.488 421.008 173.976 420.752 173.368 420.528C172.792 420.272 172.12 420 171.352 419.712L167.32 417.984C166.456 417.664 165.608 417.248 164.776 416.736C163.976 416.224 163.272 415.632 162.664 414.96C162.056 414.256 161.56 413.456 161.176 412.56C160.824 411.632 160.648 410.592 160.648 409.44C160.648 408.16 160.92 406.96 161.464 405.84C162.04 404.688 162.824 403.696 163.816 402.864C164.84 402 166.056 401.328 167.464 400.848C168.872 400.368 170.424 400.128 172.12 400.128C174.04 400.128 175.896 400.48 177.688 401.184C179.48 401.888 181.096 402.912 182.536 404.256L178.936 408.72C177.848 407.92 176.776 407.312 175.72 406.896C174.664 406.448 173.464 406.224 172.12 406.224C170.744 406.224 169.672 406.48 168.904 406.992C168.168 407.472 167.8 408.16 167.8 409.056C167.8 410.016 168.28 410.736 169.24 411.216C170.2 411.696 171.432 412.208 172.936 412.752L176.728 414.384C178.808 415.152 180.44 416.208 181.624 417.552C182.84 418.896 183.448 420.672 183.448 422.88C183.448 424.192 183.176 425.44 182.632 426.624C182.088 427.776 181.304 428.8 180.28 429.696C179.256 430.56 177.992 431.264 176.488 431.808C174.984 432.32 173.256 432.576 171.304 432.576C169.192 432.576 167.096 432.208 165.016 431.472C162.968 430.704 161.096 429.568 159.4 428.064L163.48 423.216ZM210.981 432H205.221L204.693 428.592H204.501C203.445 429.808 202.277 430.784 200.997 431.52C199.717 432.224 198.213 432.576 196.485 432.576C193.765 432.576 191.797 431.712 190.581 429.984C189.365 428.256 188.757 425.888 188.757 422.88V408.192H195.813V421.968C195.813 423.568 196.053 424.736 196.533 425.472C197.013 426.208 197.925 426.576 199.269 426.576C200.165 426.576 200.949 426.384 201.621 426C202.325 425.616 203.093 424.896 203.925 423.84V408.192H210.981V432ZM217.779 420.096C217.779 418.112 218.147 416.352 218.883 414.816C219.651 413.248 220.659 411.936 221.907 410.88C223.187 409.824 224.659 409.024 226.323 408.48C227.987 407.904 229.731 407.616 231.555 407.616C233.443 407.616 235.139 407.92 236.643 408.528C238.179 409.136 239.459 409.904 240.483 410.832L237.219 415.2C235.459 413.952 233.699 413.328 231.939 413.328C229.891 413.328 228.227 413.936 226.947 415.152C225.667 416.368 225.027 418.016 225.027 420.096C225.027 422.176 225.635 423.824 226.851 425.04C228.099 426.256 229.715 426.864 231.699 426.864C232.947 426.864 234.099 426.64 235.155 426.192C236.211 425.744 237.155 425.216 237.987 424.608L240.867 429.072C239.427 430.288 237.827 431.184 236.067 431.76C234.339 432.304 232.659 432.576 231.027 432.576C229.139 432.576 227.395 432.304 225.795 431.76C224.195 431.184 222.787 430.368 221.571 429.312C220.387 428.256 219.459 426.96 218.787 425.424C218.115 423.856 217.779 422.08 217.779 420.096ZM246.56 420.096C246.56 418.112 246.928 416.352 247.664 414.816C248.432 413.248 249.44 411.936 250.688 410.88C251.968 409.824 253.44 409.024 255.104 408.48C256.768 407.904 258.512 407.616 260.336 407.616C262.224 407.616 263.92 407.92 265.424 408.528C266.96 409.136 268.24 409.904 269.264 410.832L266 415.2C264.24 413.952 262.48 413.328 260.72 413.328C258.672 413.328 257.008 413.936 255.728 415.152C254.448 416.368 253.808 418.016 253.808 420.096C253.808 422.176 254.416 423.824 255.632 425.04C256.88 426.256 258.496 426.864 260.48 426.864C261.728 426.864 262.88 426.64 263.936 426.192C264.992 425.744 265.936 425.216 266.768 424.608L269.648 429.072C268.208 430.288 266.608 431.184 264.848 431.76C263.12 432.304 261.44 432.576 259.808 432.576C257.92 432.576 256.176 432.304 254.576 431.76C252.976 431.184 251.568 430.368 250.352 429.312C249.168 428.256 248.24 426.96 247.568 425.424C246.896 423.856 246.56 422.08 246.56 420.096ZM274.765 420.096C274.765 418.144 275.101 416.4 275.773 414.864C276.477 413.328 277.405 412.032 278.557 410.976C279.709 409.888 281.021 409.056 282.493 408.48C283.997 407.904 285.549 407.616 287.149 407.616C288.973 407.616 290.589 407.904 291.997 408.48C293.405 409.056 294.573 409.856 295.501 410.88C296.429 411.904 297.133 413.12 297.613 414.528C298.093 415.904 298.333 417.408 298.333 419.04C298.333 419.68 298.301 420.288 298.237 420.864C298.173 421.44 298.109 421.872 298.045 422.16H282.013C282.269 423.952 283.037 425.248 284.317 426.048C285.629 426.816 287.165 427.2 288.925 427.2C290.013 427.2 291.037 427.072 291.997 426.816C292.989 426.528 294.013 426.112 295.069 425.568L297.373 429.792C296.029 430.656 294.525 431.344 292.861 431.856C291.197 432.336 289.565 432.576 287.965 432.576C286.109 432.576 284.381 432.304 282.781 431.76C281.181 431.184 279.789 430.368 278.605 429.312C277.421 428.224 276.477 426.912 275.773 425.376C275.101 423.84 274.765 422.08 274.765 420.096ZM291.949 417.504C291.949 416.16 291.581 415.072 290.845 414.24C290.109 413.408 288.925 412.992 287.293 412.992C286.013 412.992 284.877 413.36 283.885 414.096C282.893 414.832 282.237 415.968 281.917 417.504H291.949ZM306.618 424.512C307.994 425.376 309.37 426.064 310.746 426.576C312.154 427.088 313.658 427.344 315.258 427.344C316.89 427.344 318.058 427.168 318.762 426.816C319.466 426.464 319.818 425.968 319.818 425.328C319.818 424.592 319.226 424 318.042 423.552C316.89 423.072 315.354 422.56 313.434 422.016C312.378 421.728 311.338 421.392 310.314 421.008C309.322 420.592 308.426 420.112 307.626 419.568C306.826 418.992 306.17 418.336 305.658 417.6C305.178 416.864 304.938 416.016 304.938 415.056C304.938 413.968 305.194 412.96 305.706 412.032C306.218 411.104 306.938 410.32 307.866 409.68C308.826 409.04 309.978 408.544 311.322 408.192C312.698 407.808 314.234 407.616 315.93 407.616C318.042 407.616 319.962 407.968 321.69 408.672C323.45 409.344 324.954 410.08 326.202 410.88L323.034 415.104C321.946 414.464 320.826 413.936 319.674 413.52C318.522 413.072 317.322 412.848 316.074 412.848C314.57 412.848 313.498 413.008 312.858 413.328C312.25 413.648 311.946 414.112 311.946 414.72C311.946 415.072 312.106 415.392 312.426 415.68C312.746 415.968 313.178 416.224 313.722 416.448C314.266 416.672 314.906 416.896 315.642 417.12C316.41 417.312 317.21 417.52 318.042 417.744C319.226 418.064 320.346 418.432 321.402 418.848C322.458 419.232 323.386 419.696 324.186 420.24C324.986 420.784 325.626 421.44 326.106 422.208C326.586 422.976 326.826 423.872 326.826 424.896C326.826 425.984 326.57 426.992 326.058 427.92C325.546 428.848 324.794 429.664 323.802 430.368C322.842 431.04 321.626 431.584 320.154 432C318.714 432.384 317.034 432.576 315.114 432.576C312.97 432.576 310.874 432.224 308.826 431.52C306.778 430.816 304.986 429.952 303.45 428.928L306.618 424.512ZM335.4 424.512C336.776 425.376 338.152 426.064 339.528 426.576C340.936 427.088 342.44 427.344 344.04 427.344C345.672 427.344 346.84 427.168 347.544 426.816C348.248 426.464 348.6 425.968 348.6 425.328C348.6 424.592 348.008 424 346.824 423.552C345.672 423.072 344.136 422.56 342.216 422.016C341.16 421.728 340.12 421.392 339.096 421.008C338.104 420.592 337.208 420.112 336.408 419.568C335.608 418.992 334.952 418.336 334.44 417.6C333.96 416.864 333.72 416.016 333.72 415.056C333.72 413.968 333.976 412.96 334.488 412.032C335 411.104 335.72 410.32 336.648 409.68C337.608 409.04 338.76 408.544 340.104 408.192C341.48 407.808 343.016 407.616 344.712 407.616C346.824 407.616 348.744 407.968 350.472 408.672C352.232 409.344 353.736 410.08 354.984 410.88L351.816 415.104C350.728 414.464 349.608 413.936 348.456 413.52C347.304 413.072 346.104 412.848 344.856 412.848C343.352 412.848 342.28 413.008 341.64 413.328C341.032 413.648 340.728 414.112 340.728 414.72C340.728 415.072 340.888 415.392 341.208 415.68C341.528 415.968 341.96 416.224 342.504 416.448C343.048 416.672 343.688 416.896 344.424 417.12C345.192 417.312 345.992 417.52 346.824 417.744C348.008 418.064 349.128 418.432 350.184 418.848C351.24 419.232 352.168 419.696 352.968 420.24C353.768 420.784 354.408 421.44 354.888 422.208C355.368 422.976 355.608 423.872 355.608 424.896C355.608 425.984 355.352 426.992 354.84 427.92C354.328 428.848 353.576 429.664 352.584 430.368C351.624 431.04 350.408 431.584 348.936 432C347.496 432.384 345.816 432.576 343.896 432.576C341.752 432.576 339.656 432.224 337.608 431.52C335.56 430.816 333.768 429.952 332.232 428.928L335.4 424.512Z" fill="#383A48"/>
<path d="M259.499 355.595C312.69 355.595 355.81 312.5 355.81 259.339C355.81 206.178 312.69 163.083 259.499 163.083C206.308 163.083 163.188 206.178 163.188 259.339C163.188 312.5 206.308 355.595 259.499 355.595Z" fill="#F6E049"/>
<path d="M259.5 360.885C203.561 360.885 158 315.35 158 259.442C158 203.535 203.561 158 259.5 158C315.439 158 361 203.535 361 259.442C361 315.35 315.543 360.885 259.5 360.885ZM259.5 168.269C209.269 168.269 168.378 209.136 168.378 259.339C168.378 309.541 209.269 350.409 259.5 350.409C309.731 350.409 350.622 309.541 350.622 259.339C350.622 209.136 309.731 168.269 259.5 168.269Z" fill="#383A48"/>
<path d="M257.015 279.871L296.957 222.857C296.958 222.856 296.958 222.855 296.959 222.855C300.054 218.503 306.035 217.451 310.369 220.535C314.721 223.631 315.774 229.617 312.69 233.955L312.687 233.96L264.865 302.161C264.863 302.162 264.862 302.164 264.861 302.165C263.111 304.594 260.41 306.126 257.442 306.221L256.474 306.253V306.303C253.925 306.117 251.503 304.899 249.816 302.944L208.913 255.519C208.913 255.519 208.912 255.519 208.912 255.518C205.439 251.463 205.919 245.377 209.874 241.898C213.927 238.426 220.008 238.907 223.484 242.864C223.485 242.865 223.486 242.867 223.487 242.868L255.438 279.95L256.277 280.924L257.015 279.871ZM257.252 306.327C257.252 306.327 257.252 306.327 257.252 306.327C257.259 306.326 257.259 306.326 257.252 306.327Z" fill="white" stroke="#383A48" stroke-width="2"/>
<path d="M64.0177 87.1433C53.4748 87.1433 44.8315 78.5998 44.8315 67.968C44.8315 57.3361 53.3798 48.7927 64.0177 48.7927C74.6556 48.7927 83.2039 57.3361 83.2039 67.968C83.2039 78.5998 74.5606 87.1433 64.0177 87.1433ZM64.0177 58.2854C58.6988 58.2854 54.3297 62.6521 54.3297 67.968C54.3297 73.2839 58.6988 77.6505 64.0177 77.6505C69.3367 77.6505 73.7058 73.2839 73.7058 67.968C73.7058 62.6521 69.3367 58.2854 64.0177 58.2854Z" fill="#383A48"/>
<path d="M111.794 87.1433C101.251 87.1433 92.6074 78.5998 92.6074 67.968C92.6074 57.3361 101.156 48.7927 111.794 48.7927C122.432 48.7927 130.98 57.3361 130.98 67.968C130.98 78.5998 122.337 87.1433 111.794 87.1433ZM111.794 58.2854C106.475 58.2854 102.106 62.6521 102.106 67.968C102.106 73.2839 106.475 77.6505 111.794 77.6505C117.113 77.6505 121.482 73.2839 121.482 67.968C121.482 62.6521 117.113 58.2854 111.794 58.2854Z" fill="#383A48"/>
<path d="M159.665 87.1433C149.122 87.1433 140.479 78.5998 140.479 67.968C140.479 57.3361 149.027 48.7927 159.665 48.7927C170.303 48.7927 178.851 57.3361 178.851 67.968C178.851 78.5998 170.208 87.1433 159.665 87.1433ZM159.665 58.2854C154.346 58.2854 149.977 62.6521 149.977 67.968C149.977 73.2839 154.346 77.6505 159.665 77.6505C164.984 77.6505 169.353 73.2839 169.353 67.968C169.353 62.6521 164.984 58.2854 159.665 58.2854Z" fill="#383A48"/>
</svg>
