<svg width="400" height="300" viewBox="0 0 400 300" fill="none" xmlns="http://www.w3.org/2000/svg">
<path d="M295.53 223.37C296.167 223.755 296.695 224.296 297.064 224.942C297.433 225.589 297.631 226.319 297.639 227.063C297.647 227.807 297.465 228.541 297.11 229.195C296.755 229.849 296.238 230.401 295.61 230.8L195.28 287.11C193.263 288.239 190.987 288.823 188.675 288.804C186.364 288.785 184.098 288.163 182.1 287L87.4499 232.1C86.7233 231.679 86.12 231.075 85.7007 230.347C85.2813 229.62 85.0605 228.795 85.0605 227.955C85.0605 227.115 85.2813 226.29 85.7007 225.563C86.12 224.835 86.7233 224.231 87.4499 223.81L188.14 165.81C189.182 165.212 190.363 164.897 191.565 164.897C192.767 164.897 193.948 165.212 194.99 165.81L295.53 223.37Z" fill="#1251AA"/>
<path style="mix-blend-mode:multiply" d="M179 223.49C164.27 232.08 153.74 237.85 131.08 250.79C148.23 261.21 161.52 270.79 163.45 271.93L214.35 242C210.39 240 197.31 232.56 179 223.49Z" fill="url(#paint0_linear)"/>
<path d="M319.36 205.72V94C319.372 93.1927 319.169 92.3967 318.772 91.6938C318.375 90.9909 317.798 90.4063 317.1 90C307.82 84.61 202.68 25.06 182.27 13.5C181.854 13.2648 181.372 13.1767 180.9 13.25C180.874 13.24 180.846 13.24 180.82 13.25C179.191 13.9406 177.604 14.7287 176.07 15.61C176.943 16.2261 178.006 16.513 179.07 16.42V25.35L179.33 131.17C179.33 133.29 267.33 181.79 269.16 182.85L313.52 208.1C312.08 209.2 311.29 210.95 312.17 211.1C313.35 211.32 315.91 209.86 317.31 208.99C317.658 208.84 317.979 208.634 318.26 208.38C318.629 208.046 318.92 207.634 319.11 207.174C319.3 206.714 319.386 206.217 319.36 205.72V205.72Z" fill="#68E1FD"/>
<path d="M319.36 205.72V94C319.372 93.1927 319.169 92.3967 318.772 91.6938C318.375 90.9909 317.798 90.4063 317.1 90C307.82 84.61 202.68 25.06 182.27 13.5C181.854 13.2648 181.372 13.1767 180.9 13.25C180.874 13.24 180.846 13.24 180.82 13.25C179.191 13.9406 177.604 14.7287 176.07 15.61C176.943 16.2261 178.006 16.513 179.07 16.42V25.35L179.33 131.17C179.33 133.29 267.33 181.79 269.16 182.85L313.52 208.1C312.08 209.2 311.29 210.95 312.17 211.1C313.35 211.32 315.91 209.86 317.31 208.99C317.658 208.84 317.979 208.634 318.26 208.38C318.629 208.046 318.92 207.634 319.11 207.174C319.3 206.714 319.386 206.217 319.36 205.72V205.72Z" fill="#1251AA"/>
<path d="M313.57 95.9201L313.57 95.9351V95.95V207.61V207.684L313.576 207.759C313.601 208.106 313.403 208.583 312.969 208.908C312.563 209.211 312.255 209.179 312.052 209.064L312.048 209.061L266.311 183.063C266.311 183.063 266.311 183.063 266.31 183.062C266.113 182.95 264.939 182.299 262.999 181.224C255.82 177.245 238.152 167.454 220.697 157.619C209.585 151.358 198.542 145.07 190.28 140.217C186.146 137.789 182.726 135.73 180.347 134.218C179.153 133.459 178.251 132.857 177.66 132.424C177.597 132.378 177.54 132.336 177.488 132.297L177.23 27.3V27.2976V17.3086C177.235 17.2895 177.243 17.2712 177.253 17.2545C177.27 17.229 177.292 17.208 177.319 17.1936C177.346 17.1792 177.376 17.1718 177.406 17.172C177.436 17.1722 177.466 17.1801 177.493 17.195L178.47 15.45L177.485 17.1908C197.911 28.7442 302.999 88.2917 312.307 93.6801C312.696 93.9077 313.019 94.2347 313.241 94.6276C313.463 95.0216 313.577 95.4677 313.57 95.9201ZM177.078 131.962C177.078 131.962 177.08 131.963 177.082 131.966C177.079 131.963 177.078 131.962 177.078 131.962ZM177.49 133.12L177.49 133.115L177.49 133.12Z" fill="white" stroke="#383A48" stroke-width="4"/>
<path d="M189.04 87.8V129.5L241.15 159.58V117.84L189.04 87.8Z" fill="#1251AA"/>
<path d="M243.89 119.76V161.46L295.99 191.54V149.81L243.89 119.76Z" fill="#1251AA"/>
<path d="M189.04 42.02V83.72L241.15 113.8V72.06L189.04 42.02Z" fill="#1251AA"/>
<path d="M243.89 73.14V114.84L295.99 144.92V103.19L243.89 73.14Z" fill="#1251AA"/>
<path d="M244.863 66.8043C246.086 66.4847 246.641 64.5491 246.1 62.4812C245.56 60.4132 244.13 58.996 242.907 59.3156C241.683 59.6353 241.129 61.5708 241.669 63.6388C242.209 65.7067 243.639 67.124 244.863 66.8043Z" fill="#34323D"/>
<path d="M218.077 83.8278C221.22 82.7093 222.436 78.0613 220.794 73.4461C219.151 68.8309 215.272 65.9962 212.129 67.1146C208.987 68.2331 207.77 72.8811 209.413 77.4963C211.055 82.1115 214.935 84.9462 218.077 83.8278Z" fill="#CECECE"/>
<path d="M200.48 90.32C200.48 90.32 203.89 78.7 212.58 81.23C221.27 83.76 226.75 90.97 226.75 105.68" fill="#CECECE"/>
<path d="M272.211 114.879C275.353 113.76 276.57 109.112 274.927 104.497C273.285 99.8818 269.405 97.0471 266.263 98.1655C263.12 99.284 261.904 103.932 263.546 108.547C265.189 113.162 269.068 115.997 272.211 114.879Z" fill="#CECECE"/>
<path d="M254.63 121.36C254.63 121.36 258.04 109.74 266.73 112.27C275.42 114.8 280.9 122 280.9 136.73" fill="#CECECE"/>
<path d="M216.095 128.222C219.238 127.104 220.454 122.456 218.812 117.84C217.169 113.225 213.29 110.391 210.147 111.509C207.005 112.627 205.789 117.276 207.431 121.891C209.074 126.506 212.953 129.341 216.095 128.222Z" fill="#CECECE"/>
<path d="M198.51 134.71C198.51 134.71 201.92 123.09 210.61 125.62C219.3 128.15 224.78 135.36 224.78 150.07" fill="#CECECE"/>
<path d="M268.59 159.046C271.733 157.927 272.949 153.279 271.306 148.664C269.664 144.049 265.785 141.214 262.642 142.333C259.499 143.451 258.283 148.099 259.926 152.714C261.568 157.329 265.447 160.164 268.59 159.046Z" fill="#CECECE"/>
<path d="M251 165.54C251 165.54 254.41 153.92 263.1 156.45C271.79 158.98 277.27 166.19 277.27 180.9" fill="#CECECE"/>
<path d="M191.14 189.65C186.83 186.65 181.76 184.99 176.28 186.2C170.44 187.48 165.39 191.2 159.44 192.05C158.5 192.19 154.75 191.95 154.17 192.49C137.62 208.15 183.88 206.49 183.88 206.49C188.37 202.81 192.6 199.19 197.05 195.49C195.71 192.45 193.45 191.27 191.14 189.65Z" fill="#F8997C"/>
<path d="M169.36 212.36L167.72 259.61C167.66 261.4 170.44 261.4 170.5 259.61L172.14 212.36C172.21 210.56 169.43 210.57 169.36 212.36Z" fill="#F8997C"/>
<path d="M204.05 237.64C195.623 229.393 187.573 220.79 179.9 211.83C178.73 210.47 176.77 212.44 177.9 213.83C185.567 222.783 193.617 231.387 202.05 239.64C203.36 240.86 205.34 238.89 204.05 237.64Z" fill="#F8997C"/>
<path d="M159.71 208C153.17 220.347 147.01 232.88 141.23 245.6C140.49 247.22 142.89 248.6 143.63 247.01C149.41 234.29 155.57 221.757 162.11 209.41C163 207.81 160.55 206.4 159.71 208Z" fill="#F8997C"/>
<path d="M201.24 178.48C201.24 178.48 207.24 179.71 208.61 181.06C209.98 182.41 212.17 188.06 211.56 189.77C210.95 191.48 209.23 188.77 208.49 187.69C207.615 186.542 206.674 185.447 205.67 184.41C203.693 184.714 201.67 184.447 199.84 183.64" fill="#FCBF81"/>
<path d="M203.25 229.65C204.12 228.76 204.68 227.78 204.38 226.81C203.85 225.07 201.49 224.37 199.88 224.46C198.27 224.55 196.59 225.37 194.96 225.86C193.251 226.473 191.427 226.699 189.62 226.52C189.328 226.481 189.061 226.335 188.87 226.11C188.368 225.99 187.906 225.743 187.528 225.393C187.149 225.043 186.868 224.601 186.71 224.11L181.36 222.19C181.36 222.19 180 233.51 180 234.31C180.4 240.41 189.51 236.93 189.51 236.93C189.51 236.93 189.83 234.17 189.92 233.8C190.01 233.43 193.5 234.51 194.92 234.29C195.587 234.104 196.219 233.81 196.79 233.42C197.87 232.83 198.92 232.19 199.97 231.55C201.02 230.91 202.16 230.3 203.25 229.65Z" fill="#E55600"/>
<path d="M183.29 187.91C181.29 188.11 179.29 188.37 177.29 188.65C178.123 201.49 179.047 214.32 180.06 227.14C185.26 229.27 187.37 228.28 190.6 224.98C191.21 212.74 192.29 199.92 192.25 187.56C189.25 187.69 186.27 187.82 183.29 187.91Z" fill="#34323D"/>
<path d="M161.65 184.39C161.65 184.39 160.79 198.44 167.85 201.58C174.91 204.72 189.4 203.15 196.52 198.97C200.205 196.726 204.072 194.796 208.08 193.2C208.08 193.2 209.91 187.05 205.47 184.39C201.03 181.73 191.21 178.45 182.47 184.39" fill="#34323D"/>
<path d="M192.63 145.8C192.851 145.271 193.112 144.76 193.41 144.27C193.418 144.301 193.436 144.329 193.46 144.35C193.468 144.39 193.488 144.427 193.517 144.455C193.547 144.483 193.584 144.502 193.624 144.509C193.664 144.515 193.706 144.509 193.743 144.492C193.779 144.474 193.81 144.445 193.83 144.41L194.4 143.55C194.381 143.663 194.381 143.778 194.4 143.89C194.446 144.1 194.569 144.286 194.745 144.41C194.921 144.534 195.137 144.587 195.35 144.56C195.475 144.551 195.597 144.515 195.706 144.453C195.816 144.392 195.91 144.307 195.983 144.204C196.055 144.102 196.104 143.985 196.126 143.861C196.148 143.738 196.143 143.611 196.11 143.49L196.37 143.19C196.357 143.276 196.357 143.364 196.37 143.45C196.409 143.57 196.479 143.679 196.571 143.765C196.664 143.852 196.777 143.913 196.9 143.944C197.022 143.975 197.151 143.974 197.274 143.942C197.396 143.91 197.508 143.847 197.6 143.76C197.7 143.68 197.79 143.58 197.88 143.49C197.959 143.524 198.044 143.542 198.13 143.542C198.216 143.542 198.301 143.524 198.38 143.49C199.114 143.24 199.832 142.946 200.53 142.61C200.481 142.589 200.438 142.557 200.404 142.516C200.371 142.474 200.348 142.426 200.337 142.374C200.326 142.322 200.328 142.268 200.342 142.217C200.357 142.166 200.384 142.119 200.42 142.08C201.244 141.413 202.117 140.808 203.03 140.27C203.062 140.243 203.1 140.222 203.14 140.21L203.19 140.12C203.404 139.427 203.354 138.679 203.05 138.02C203.271 137.752 203.427 137.437 203.509 137.099C203.59 136.761 203.594 136.409 203.52 136.07C203.447 136.065 203.377 136.037 203.32 135.99C203.19 135.879 203.078 135.747 202.99 135.6C202.829 135.4 202.704 135.173 202.62 134.93C202.599 134.869 202.599 134.803 202.619 134.742C202.639 134.681 202.678 134.627 202.73 134.59C202.39 134.14 201.99 133.71 201.64 133.31C202.497 131.85 202.904 130.17 202.81 128.48C202.802 128.322 202.744 128.171 202.644 128.048C202.544 127.926 202.407 127.839 202.254 127.8C202.101 127.761 201.939 127.772 201.793 127.831C201.646 127.89 201.523 127.995 201.44 128.13C201.104 128.661 200.8 129.212 200.53 129.78C200.442 129.838 200.369 129.917 200.32 130.01C198.875 132.978 197.269 135.866 195.51 138.66C195.21 139.13 191.51 144.17 191.97 144.29C191.94 144.52 188.94 151.43 192.63 145.8ZM194.79 143.67C194.79 143.67 194.79 143.67 194.79 143.62C194.809 143.641 194.832 143.658 194.858 143.67C194.884 143.682 194.912 143.688 194.94 143.688C194.968 143.688 194.996 143.682 195.022 143.67C195.048 143.658 195.071 143.641 195.09 143.62V143.62C195.18 143.685 195.283 143.729 195.392 143.75C195.501 143.77 195.613 143.767 195.72 143.74C195.712 143.873 195.652 143.997 195.552 144.085C195.453 144.173 195.323 144.218 195.19 144.21C195.057 144.202 194.933 144.142 194.845 144.042C194.757 143.943 194.712 143.813 194.72 143.68L194.79 143.67Z" fill="#FCBF81"/>
<path d="M193 144.19C193.802 143.576 194.481 142.816 195 141.95C195.098 141.768 195.231 141.608 195.392 141.479C195.554 141.35 195.739 141.255 195.938 141.199C196.136 141.143 196.344 141.127 196.549 141.153C196.754 141.179 196.951 141.246 197.13 141.35C197.187 140.946 197.218 140.538 197.22 140.13C197.22 138.05 200.49 138.02 200.45 140.13C200.524 141.762 200.087 143.377 199.2 144.75C198.221 145.988 197.029 147.041 195.68 147.86C195.442 147.993 195.175 148.066 194.902 148.072C194.629 148.077 194.359 148.016 194.116 147.892C193.873 147.768 193.664 147.587 193.507 147.363C193.351 147.14 193.252 146.881 193.22 146.61L193.08 146.5C192.922 146.354 192.795 146.178 192.706 145.983C192.617 145.787 192.567 145.576 192.56 145.362C192.552 145.147 192.587 144.933 192.663 144.732C192.738 144.531 192.853 144.347 193 144.19V144.19Z" fill="#FCBF81"/>
<path d="M175.12 151.95C175.12 151.95 184.55 152.4 187.01 150.14C189.47 147.88 193.01 140.77 193.01 140.77C193.01 140.77 199.51 144.95 199.83 147.35C200.15 149.75 193.04 161.35 189.88 162.16" fill="#BA3E00"/>
<path d="M219.56 238.45C220.43 237.56 220.99 236.58 220.69 235.61C220.16 233.87 217.8 233.17 216.19 233.26C214.58 233.35 212.9 234.17 211.27 234.66C209.561 235.273 207.737 235.499 205.93 235.32C205.638 235.281 205.37 235.135 205.18 234.91C204.678 234.79 204.216 234.543 203.838 234.193C203.459 233.843 203.178 233.401 203.02 232.91L197.66 231C197.66 231 196.29 242.31 196.34 243.1C196.74 249.2 205.85 245.72 205.85 245.72C205.85 245.72 206.17 242.96 206.26 242.59C206.35 242.22 209.84 243.3 211.26 243.08C211.926 242.894 212.558 242.6 213.13 242.21C214.21 241.62 215.26 240.98 216.31 240.34C217.36 239.7 218.48 239.1 219.56 238.45Z" fill="#E55600"/>
<path d="M199 184.73C197.16 183.86 195.23 183.95 193 183.96C193.31 188.48 193.14 190.11 193.42 194.63L193.5 195.83C194.36 209.21 195.34 222.58 196.38 235.94C201.58 238.07 203.69 237.08 206.92 233.78C207.64 219.54 208.98 204.5 208.46 190.33C205.43 187.36 202.76 186.52 199 184.73Z" fill="#34323D"/>
<path d="M161.52 181.48C161.52 181.83 161.59 182.99 161.64 184.39C164.56 188.24 168.14 190.5 173.75 190.33C178.29 190.2 182.08 188.21 185.64 185.76C185.2 177.53 183.87 163.48 181.79 153.68C181.61 152.85 179.46 152.3 178.79 151.95C177.31 151.14 178.18 149.75 176.73 148.88C174.627 147.658 172.438 146.592 170.18 145.69H170.12C166.5 145.64 160.27 148.42 159.9 153.26C159.33 160.71 160.15 165.19 160.73 172.62C161 175.62 161.27 178.57 161.52 181.48Z" fill="#E55600"/>
<path d="M174.11 131.6C174.59 131.72 178.6 140.96 177.03 146.6C175.46 152.24 165.93 146.44 163.53 142.17C161.13 137.9 165.1 129.26 174.11 131.6Z" fill="#FCBF81"/>
<path d="M174 132.89C174 132.89 174 135.94 171.34 136.89C168.68 137.84 166.46 138.54 166.6 139.77C166.74 141 171.42 139.6 171.44 142.42C171.443 144.322 171.187 146.216 170.68 148.05C170.39 149.43 162.38 145.19 159.74 137.96C157.1 130.73 163.74 128.81 164.03 128.76C164.32 128.71 164.95 126.76 168.19 126.04C171.43 125.32 172.34 126.59 172.34 126.59C173.076 126.146 173.937 125.956 174.791 126.048C175.645 126.14 176.446 126.51 177.07 127.1C180.07 129.47 179.3 133.8 175.92 135.56L174 132.89Z" fill="#34323D"/>
<path d="M175.64 161.53C175.64 161.53 185.55 179.63 191.03 181.19C194.962 182.217 198.978 182.887 203.03 183.19C203.03 183.19 203.71 178.19 203.03 176.01C203.03 176.01 194.26 172.06 193.4 169.69C192.54 167.32 185.15 150.69 176.76 148.93" fill="#E55600"/>
<path d="M184.76 175.6C184.15 174.82 177.28 167.04 177.28 167.04L185.54 184L184.76 175.6Z" fill="#34323D"/>
<path d="M196.42 195.16C193.846 198.755 190.197 201.441 186 202.83C180.11 204.62 171.54 203.78 168.45 197.62C162.82 186.41 168.11 172.39 162.16 161.49C161.474 160.112 160.505 158.895 159.316 157.918C158.126 156.941 156.744 156.226 155.26 155.82C151.4 154.98 148.76 157.87 147.36 161.28C144.85 167.39 144.94 175.01 145.07 181.51C145.075 186.77 145.456 192.024 146.21 197.23C146.21 197.23 149.81 219.07 177.91 213.23C182.774 212.347 187.444 210.618 191.71 208.12C193.901 206.846 195.816 205.146 197.34 203.12C199 200.65 197.9 197.68 196.42 195.16Z" fill="#CECECE"/>
<path d="M103.07 203.07C99.1723 208.066 97.2693 214.331 97.7297 220.65C98.4397 230.91 104.22 233.89 104.22 233.89L111.1 234.27C111.1 234.27 119.28 231.6 118.21 218.27C117.21 205.74 113.13 202.8 113.13 202.8" fill="#CECECE"/>
<path d="M108.14 204.86C110.935 204.86 113.2 204.059 113.2 203.07C113.2 202.081 110.935 201.28 108.14 201.28C105.346 201.28 103.08 202.081 103.08 203.07C103.08 204.059 105.346 204.86 108.14 204.86Z" fill="#003B94"/>
<path d="M108.14 234.59C110.935 234.59 113.2 233.789 113.2 232.8C113.2 231.811 110.935 231.01 108.14 231.01C105.346 231.01 103.08 231.811 103.08 232.8C103.08 233.789 105.346 234.59 108.14 234.59Z" fill="#8EA3FF"/>
<path d="M106.06 203.61L99.9301 168.45C99.8001 167.68 98.6301 168.01 98.7601 168.77L104.89 203.93C105 204.7 106.19 204.38 106.06 203.61Z" fill="#007F68"/>
<path d="M107.17 203.73C107.355 203.694 107.545 203.694 107.73 203.73C107.973 203.792 108.192 203.924 108.36 204.11C108.847 194.29 108.933 184.463 108.62 174.63C108.62 173.85 107.39 173.85 107.41 174.63C107.723 184.337 107.643 194.037 107.17 203.73Z" fill="#007F68"/>
<path d="M120.95 169.61C116.382 180.643 112.43 191.92 109.11 203.39C109.086 203.539 109.118 203.691 109.199 203.817C109.281 203.944 109.406 204.036 109.551 204.075C109.696 204.115 109.851 204.1 109.985 204.032C110.12 203.965 110.225 203.85 110.28 203.71C113.6 192.24 117.552 180.963 122.12 169.93C122.41 169.22 121.24 168.9 120.95 169.61Z" fill="#007F68"/>
<path d="M101.24 183C101.24 183 100.58 182.92 97.69 179.88C94.8 176.84 98.45 174.55 96.78 171.13C95.11 167.71 97.47 163.21 98 159.79C98.3251 162.188 99.1939 164.479 100.54 166.49C102.72 169.61 103.94 172.43 103.71 176.39C103.549 178.889 103.119 181.363 102.43 183.77" fill="#007F68"/>
<path d="M107.44 188.38C107.44 188.38 106.82 188.14 104.75 184.48C102.68 180.82 106.75 179.48 105.99 175.77C105.23 172.06 108.58 168.26 109.93 165.06C109.663 167.466 109.951 169.902 110.77 172.18C112.13 175.74 112.62 178.76 111.44 182.55C110.687 184.934 109.682 187.23 108.44 189.4" fill="#007F68"/>
<path d="M116.08 182C116.08 182 115.52 181.64 114.25 177.64C112.98 173.64 117.25 173.18 117.25 169.36C117.25 165.54 121.32 162.54 123.25 159.69C122.495 161.99 122.276 164.432 122.61 166.83C123.21 170.59 123.08 173.65 121.14 177.12C119.902 179.298 118.434 181.336 116.76 183.2" fill="#007F68"/>
<path d="M326.77 72.25V103C326.766 103.467 326.641 103.925 326.407 104.33C326.173 104.734 325.838 105.07 325.434 105.305C325.03 105.54 324.572 105.666 324.105 105.67C323.638 105.675 323.178 105.558 322.77 105.33L291.15 87.1C290.74 86.8645 290.399 86.5252 290.162 86.1161C289.925 85.7071 289.8 85.2428 289.8 84.77V54C289.803 53.5329 289.928 53.0747 290.162 52.6705C290.397 52.2664 290.732 51.9302 291.136 51.6951C291.539 51.4599 291.997 51.334 292.464 51.3296C292.932 51.3252 293.392 51.4425 293.8 51.67L325.38 69.9C325.8 70.1321 326.151 70.4723 326.395 70.8856C326.64 71.2988 326.769 71.7699 326.77 72.25Z" fill="#8EA3FF"/>
<path d="M289.8 79.15V93.28L299.37 87.8L289.8 79.15Z" fill="#8EA3FF"/>
<path d="M181.67 74.6201V105.36C181.667 105.827 181.542 106.285 181.307 106.69C181.073 107.094 180.738 107.43 180.334 107.665C179.93 107.9 179.472 108.026 179.005 108.031C178.538 108.035 178.078 107.918 177.67 107.69L146.06 89.4701C145.65 89.2346 145.309 88.8952 145.072 88.4861C144.835 88.0771 144.71 87.6128 144.71 87.1401V56.3901C144.713 55.9229 144.838 55.4647 145.073 55.0606C145.307 54.6564 145.642 54.3202 146.046 54.0851C146.45 53.8499 146.907 53.724 147.375 53.7196C147.842 53.7152 148.302 53.8325 148.71 54.0601L180.29 72.2901C180.705 72.5217 181.052 72.8594 181.295 73.2687C181.537 73.6781 181.667 74.1443 181.67 74.6201V74.6201Z" fill="#8EA3FF"/>
<path d="M174.16 105.69L187.7 113.15L180.93 97.39" fill="#8EA3FF"/>
<path d="M296.12 68.64L319.53 81.9C319.868 82.0411 320.246 82.0535 320.593 81.9349C320.94 81.8162 321.231 81.5748 321.412 81.256C321.593 80.9373 321.651 80.5634 321.575 80.2049C321.499 79.8463 321.294 79.528 321 79.31L297.64 66.05C297.297 65.8666 296.897 65.8232 296.523 65.929C296.15 66.0347 295.831 66.2813 295.636 66.6168C295.44 66.9524 295.382 67.3507 295.474 67.7281C295.567 68.1054 295.801 68.4323 296.13 68.64H296.12Z" fill="#F2F2F2"/>
<path d="M295.53 76.51L318.94 89.76C319.283 89.9433 319.683 89.9867 320.056 89.881C320.43 89.7752 320.748 89.5286 320.944 89.1931C321.14 88.8575 321.197 88.4592 321.105 88.0818C321.013 87.7045 320.778 87.3776 320.45 87.17L297 73.92C296.658 73.7366 296.257 73.6932 295.884 73.799C295.51 73.9047 295.192 74.1513 294.996 74.4868C294.801 74.8224 294.743 75.2207 294.835 75.5981C294.927 75.9754 295.162 76.3023 295.49 76.51H295.53Z" fill="#F2F2F2"/>
<path d="M149.92 69.72L175.6 84.25C175.942 84.4334 176.342 84.4768 176.716 84.371C177.09 84.2653 177.408 84.0187 177.604 83.6832C177.799 83.3476 177.857 82.9493 177.765 82.5719C177.673 82.1946 177.438 81.8677 177.11 81.66L151.43 67.13C151.087 66.9467 150.687 66.9033 150.313 67.009C149.94 67.1148 149.621 67.3613 149.426 67.6969C149.23 68.0325 149.172 68.4308 149.264 68.8082C149.357 69.1855 149.592 69.5124 149.92 69.72V69.72Z" fill="#F2F2F2"/>
<path d="M149.27 78.34L174.95 92.88C175.292 93.0634 175.692 93.1068 176.066 93.001C176.44 92.8953 176.758 92.6487 176.954 92.3132C177.149 91.9776 177.207 91.5793 177.115 91.2019C177.023 90.8246 176.788 90.4977 176.46 90.29L150.78 75.75C150.437 75.5667 150.037 75.5233 149.663 75.629C149.29 75.7348 148.972 75.9813 148.776 76.3169C148.58 76.6525 148.522 77.0508 148.615 77.4282C148.707 77.8055 148.942 78.1324 149.27 78.34V78.34Z" fill="#F2F2F2"/>
<defs>
<linearGradient id="paint0_linear" x1="188.49" y1="236.99" x2="150.77" y2="259.52" gradientUnits="userSpaceOnUse">
<stop stop-color="#808080"/>
<stop offset="1" stop-color="white"/>
</linearGradient>
</defs>
</svg>
