<svg xmlns="http://www.w3.org/2000/svg" xmlns:xlink="http://www.w3.org/1999/xlink" viewBox="0 0 400 300"><defs><linearGradient id="linear-gradient" x1="91.88" y1="195" x2="82.87" y2="174.91" gradientUnits="userSpaceOnUse"><stop offset="0" stop-color="#fff" stop-opacity="0"/><stop offset="1" stop-color="#006837"/></linearGradient><linearGradient id="linear-gradient-2" x1="186.35" y1="251.55" x2="172.18" y2="219.95" xlink:href="#linear-gradient"/></defs><g style="isolation:isolate"><g id="Layer_2" data-name="Layer 2"><path d="M37.19,188.36l165.56,94.8a22.84,22.84,0,0,0,22.61,0L341.7,217.06a10.13,10.13,0,0,0,0-17.65L168.59,100.5,37.32,172.69A9,9,0,0,0,37.19,188.36Z" fill="#cfe217"/><path d="M81.83,172.65l-18,10.1L87,197.28h.6c9.38-5.17,17.62-3.69,24.29-7.81C103.31,184.88,89.82,178.27,81.83,172.65Z" opacity="0.63" fill="url(#linear-gradient)" style="mix-blend-mode:multiply"/><path d="M178.39,212.87,137.6,233.94,179.17,260h1.08c16.83-9.28,28.22-16.17,40.18-23.56C205,228.21,192.7,223,178.39,212.87Z" opacity="0.63" fill="url(#linear-gradient-2)" style="mix-blend-mode:multiply"/><path d="M172.28,223.73l-1.1-.82,1-12.94,5.75.21s-.29,5.53.94,6.88,4.68.7,5,.83,2.63-.35,3.56.75-3.74,3.77-6.14,4.14a15.48,15.48,0,0,1-4.94-.17s-.27-3.35-1.12-3.08-1.16,3.76-1.16,3.76Z" fill="#9c4100"/><path d="M169.92,183c-.48,13.53-1,31.17-1,31.17s3.12,4.2,11.6,2.41c.91-.19,2.93-21.77,3.92-33A32.85,32.85,0,0,0,169.92,183Z" fill="#653200"/><path d="M187.28,234.83l-1.1-.82,1-12.94,5.75.21s-.29,5.53.94,6.88,4.68.7,5,.83,2.63-.35,3.56.75-3.74,3.77-6.14,4.14a15.48,15.48,0,0,1-4.94-.17s-.27-3.35-1.12-3.08-1.16,3.76-1.16,3.76Z" fill="#9c4100"/><path d="M189.75,185.45a34.57,34.57,0,0,0-12-3c.71,5.06,1.35,8.58,1.47,8.84.28.64,5.54,32.79,5.54,32.79,6.22,2.48,13.57.41,13.57.41s-2.53-25.08-2.75-29.27q0-.68-.07-1.35A9.86,9.86,0,0,0,189.75,185.45Z" fill="#653200"/><path d="M151.54,192.93s10.53-9.44,18.38-9.94,19,7.55,18.14,12.23S172.16,210,172.16,210" fill="#653200"/><path d="M173.07,176.09l-8.39-5.87a1.75,1.75,0,0,1-.6-2.16L170,155a1.79,1.79,0,0,1,2.57-.77L182,160a1.75,1.75,0,0,1,.64,2.31l-6.93,13.17A1.79,1.79,0,0,1,173.07,176.09Z" fill="#1784aa"/><path d="M172.32,175.63l-8.39-5.87a1.75,1.75,0,0,1-.6-2.16l5.94-13.08a1.79,1.79,0,0,1,2.57-.77l9.38,5.78a1.75,1.75,0,0,1,.64,2.31L174.93,175A1.79,1.79,0,0,1,172.32,175.63Z" fill="#29abe2"/><polygon points="173.72 174.83 164.28 168.23 170.47 154.6 180.97 161.07 173.72 174.83" fill="#e4f5fd"/><path d="M169.35,160.38c-3.12,1.69-8,3.62-11.29,5.86-.53.36-1.31,1.6-.79,1.42-.22.25,1.93,1.09,1.73,1.37-.07.09,1.39-.7,1.47-.67h0a5.68,5.68,0,0,0,4,.48l.54-.39,0,0,.13-.08a.32.32,0,0,1,.1-.1l.08-.06a.32.32,0,0,1,.12-.19c.72-.56,2.31-.86,2.48-1.81a1.93,1.93,0,0,0-.23-.71.27.27,0,0,1,.06-.37,2.16,2.16,0,0,0-.32-1.65l0,0,.18-.21a21.08,21.08,0,0,0,2.42-2,.49.49,0,0,0,.15-.29V161a.45.45,0,0,0,0-.09A.59.59,0,0,0,169.35,160.38Z" fill="#e85454"/><path d="M167.76,163.73c-.23-.6-.58-.62-1.12-.39a18.87,18.87,0,0,0-3.12,1.75c-.16.11,0,.37.16.26.61-.41,3.25-2.33,3.78-1.49s-1.24,1.43-1.73,1.69l-1.9,1c-.18.09,0,.35.16.26l1.22-.62a.15.15,0,0,0,0,.09,1.84,1.84,0,0,0,.36.36,1.14,1.14,0,0,0-.13,1.07l.06.07a3.42,3.42,0,0,1-4.15.59c-.16-.12-.37.1-.21.22,1.23.92,3.79.66,4.66-.7a1.7,1.7,0,0,0,.56-.18,3.65,3.65,0,0,0,1.47-1,1.2,1.2,0,0,0,0-1.23l0-.06a.76.76,0,0,0,0-1.1A1.15,1.15,0,0,0,167.76,163.73Zm-.13,2.78a2,2,0,0,1-.8.64c-.2.12-.69.46-.89.41-.4-.1-.16-.62,0-.84h0a2.18,2.18,0,0,0,.61-.36l.76-.47.25-.19A.94.94,0,0,1,167.63,166.5Zm-1-.57c-.43.27-.78.6-1.19.13.61-.3,1.21-.62,1.78-1a1.44,1.44,0,0,0,.45-.4C168,165.23,167,165.73,166.66,165.93Z" fill="#653200"/><path d="M160,163.91s2.11.47,2.26,4.85l-1.58,3.89-8.58-4.41S154.17,165.69,160,163.91Z" fill="#88d3d8"/><path d="M180.35,166c-.64,1.39-1.27,2.66-1.81,4.09-.39-.94-.76-1.72-1.23-2.63a.69.69,0,0,0-.07-.09.74.74,0,0,0-1.37.45,5.9,5.9,0,0,0,1,2.4.75.75,0,0,0-.2.15c-1.24,1.36-.94,3.44-.8,5.11a.65.65,0,0,0,1,.52.67.67,0,0,0,.33-.08,5.5,5.5,0,0,0,2.24-3.18C180.18,170.57,181.08,168.22,180.35,166Z" fill="#e85454"/><path d="M148.32,165.86l3.1-.91c.77.11,7.48,2.82,10.27,7.55a29.27,29.27,0,0,1,.68,4.39c.25,2,.46,3.94.56,5.93a42.73,42.73,0,0,1-.1,6.47c-.1.92-.15,1.38-.32,2.29a4.14,4.14,0,0,1-1.22.73c-9.31,3.2-16.13-2-16.42-2.73s-.72-11.36-.95-17.68A6.08,6.08,0,0,1,148.32,165.86Z" fill="#88d3d8"/><path d="M156.53,154.91s2.09,10.4-1.78,11.52-8.43-3.21-8.76-5.35S151.1,151.44,156.53,154.91Z" fill="#e85454"/><path d="M155,159.07c.12-.17,2.35-.75,2.81-2.61s-1.23-4.29-5.1-4.64-10.38,1.74-9.38,11.84,11.27,5.76,11.94,2.53A19.13,19.13,0,0,0,155,159.07Z" fill="#653200"/><path d="M155,159.07s.65,3.45,2.07,4.93,2.55,4.18.82,6.24,0,3.17,2.44,5.14.94,10-7.9,8-13-7.24-13-7.24,2.27-15.72,4.67-19.4" fill="#653200"/><path d="M161.71,172.65s2,6.63,4,6.83,5-2.73,7.16-6.54a5.6,5.6,0,0,1,6.14,5.32s-7,14.12-17.3,10.67" fill="#88d3d8"/><path d="M124.85,223.19c-6.31-7.78-9.2-17.74-9.08-27.7a31.39,31.39,0,0,1,8.92-21.63c5.2-5.28,13.05-7.88,20-4.3,5.78,3,8.58,8.67,10.59,14.51,2.41,7,3.23,16,11.84,18.12,3.34.84,6.85.26,10.29,0,6-.4,12.32,1.52,14.18,7.84,3.34,11.32-12,21-20.7,24.64a40.26,40.26,0,0,1-44.3-9.49Q125.7,224.23,124.85,223.19Z" fill="#7ec971"/><path d="M191.33,210.2c-6.12,10.95-26,15.89-36.91,15.34-9.86-.5-16.09-6.46-15.42-16.33.37-5.42,2.11-10.83,1.62-16.29-.83-9.3-9.76-16.93-18.87-15.12a31.6,31.6,0,0,0-6.09,18.31c-.13,10,2.77,19.92,9.08,27.7q.84,1,1.77,2a40.26,40.26,0,0,0,44.3,9.49c8.65-3.65,24-13.31,20.7-24.64C191.46,210.52,191.39,210.37,191.33,210.2Z" fill="#61af51"/><path d="M189.94,89.31l-1,52.08a3.31,3.31,0,0,1-4.79,2.87l-44.72-22a4.33,4.33,0,0,1-2.43-4l1-52.1a3.58,3.58,0,0,1,5.21-3.1l44.33,22.31A4.33,4.33,0,0,1,189.94,89.31Z" fill="#6bd1b6"/><path d="M254.84,130.28l-1,52.08a3.31,3.31,0,0,1-4.79,2.87l-44.72-22a4.33,4.33,0,0,1-2.43-4l1-52.1a3.58,3.58,0,0,1,5.21-3.1l44.33,22.31A4.33,4.33,0,0,1,254.84,130.28Z" fill="#9887dd"/><path d="M323.92,165.41l-1,52.08a3.31,3.31,0,0,1-4.79,2.87l-44.72-22a4.33,4.33,0,0,1-2.43-4l1-52.1a3.58,3.58,0,0,1,5.21-3.1l44.33,22.31A4.33,4.33,0,0,1,323.92,165.41Z" fill="#68e1fd"/><path d="M232.86,44.12l-1,52.08a3.31,3.31,0,0,1-4.79,2.87L182.39,77a4.33,4.33,0,0,1-2.43-4l1-52.1a3.58,3.58,0,0,1,5.21-3.1l44.33,22.31A4.33,4.33,0,0,1,232.86,44.12Z" fill="#ffaf5f"/><path d="M301.38,81.49l-1,52.08a3.31,3.31,0,0,1-4.79,2.87l-44.72-22a4.33,4.33,0,0,1-2.43-4l1-52.1a3.58,3.58,0,0,1,5.21-3.1L299,77.54A4.33,4.33,0,0,1,301.38,81.49Z" fill="#ffd3c0"/><path d="M55.46,154.9s-2.11,25,11.22,29.4,20-8.36,19.48-30.38" fill="#06577a"/><ellipse cx="70.82" cy="154.41" rx="15.36" ry="8.88" transform="translate(-4.87 2.33) rotate(-1.82)" fill="#f2696a"/><path d="M74.12,134.55s-6.3-8.51-3.87-14.61c0,0,2-3.93,5.1-4.65,0,0,0,8.26,3,7.11s-.27-8.63-.27-8.63,3.09-4.47,6.62-4.45.25,7.71,2.66,6.38S87.27,108,90,107.14a58.06,58.06,0,0,1,7.64-1.47s2.85,7.44.27,8.6-6.4,1.65-4.51,3.25,7.06-.47,7.06-.47.46,4.22-1.26,6.11-12.29-1.83-10.33,1.75,8.81,1.54,8.81,1.54-3.37,5.16-7.44,7.6S74.12,134.55,74.12,134.55Z" fill="#8ccc00"/><path d="M76.23,156.28s-4.49-4.16-3.75-7.88c0,0,.74-2.45,2.4-3.18,0,0,.86,4.69,2.46,3.72s-1.08-4.87-1.08-4.87,1.27-2.87,3.29-3.23,1,4.35,2.19,3.34-.87-4.37.59-5.14a33.54,33.54,0,0,1,4.18-1.65s2.41,3.92,1.07,4.85-3.46,1.62-2.21,2.32,4-1,4-1,.71,2.35-.06,3.6-7.17.27-5.68,2.1,5.17-.07,5.17-.07a16.35,16.35,0,0,1-3.42,5.11C83.27,156.08,76.23,156.28,76.23,156.28Z" fill="#8ccc00"/><path d="M59.92,147.5s-10.56.75-14.4-4.59c0,0-2.22-3.84-1.18-6.8,0,0,6.94,4.47,7.6,1.29S44.52,133,44.52,133s-2.11-5-.19-8S51,129,51.14,126.21s-6.55-4.06-5.8-6.84a58.06,58.06,0,0,1,2.86-7.23s7.81,1.59,7.4,4.39-2.05,6.29.32,5.55,3.39-6.21,3.39-6.21,3.81,1.88,4.48,4.34-8.15,9.38-4.08,9.65,6-6.61,6-6.61,2.54,5.62,2.41,10.36S59.92,147.5,59.92,147.5Z" fill="#8ccc00"/><path d="M95.46,109.08q-1.64,1.48-3.29,3c.08-1.2.18-2.4.33-3.6.08-.63-.89-.87-1-.24q-.3,2.4-.42,4.82c-2.88,2.69-5.74,5.51-8.38,8.48a35.69,35.69,0,0,1-.38-6.1c0-.64-1-.61-1,0a36.71,36.71,0,0,0,.52,7,69.17,69.17,0,0,0-4.73,6.09,19.81,19.81,0,0,1-3.68-7.87c-.14-.63-1.09-.33-1,.3a20.49,20.49,0,0,0,4,8.34.51.51,0,0,0,.1.09c-4.2,6.37-7,13.45-7,21.56,0,.64,1,.61,1,0,0-7.8,2.68-14.65,6.71-20.81a38.56,38.56,0,0,0,12.42.81c.64-.06.61-1.06,0-1a37.78,37.78,0,0,1-11.8-.71,72.53,72.53,0,0,1,6.7-8.31l.09,0c2.34.13,4.68.27,7,.28a8.55,8.55,0,0,0,4.33-.64c.57-.31,0-1.15-.53-.85-1.59.86-3.86.51-5.59.46-1.48,0-3-.12-4.45-.2,3.45-3.64,7.16-7,10.75-10.29C96.67,109.33,95.93,108.65,95.46,109.08Z" fill="#06577a"/><path d="M65.11,129.52a.5.5,0,0,0-1-.24A17.71,17.71,0,0,1,58,138.7q-1.85-4.66-3.41-9.43a29.87,29.87,0,0,0,5.6-8.46c.26-.59-.62-1.07-.88-.48a29.1,29.1,0,0,1-5.08,7.83c-1.16-3.64-2.2-7.33-3.1-11.05-.15-.63-1.11-.33-1,.3q1.84,7.65,4.42,15.06a23.45,23.45,0,0,1-5.51-1.61c-.59-.25-1.07.62-.48.88A24.53,24.53,0,0,0,55,133.55h0c1.16,3.26,2.44,6.47,3.81,9.64a24.18,24.18,0,0,1-8.75-1.64c-.59-.23-1.08.65-.48.88a25.51,25.51,0,0,0,9.65,1.76q2.6,5.93,5.67,11.66c.31.57,1.15,0,.85-.53a156.06,156.06,0,0,1-7.35-15.64h0A18.81,18.81,0,0,0,65.11,129.52Z" fill="#06577a"/><path d="M83.62,141.86l-2.6,4.7a8.62,8.62,0,0,1-.92-1.41c-.3-.57-1.14,0-.85.53a9.53,9.53,0,0,0,1.21,1.78l0,0-2.82,5.09a2,2,0,0,1-.65-1.18c-.1-.63-1.1-.6-1,0a3.15,3.15,0,0,0,1.16,2l-3.53,6.37a.5.5,0,0,0,.88.48l4.65-8.4a7.47,7.47,0,0,0,2.42-.44c.6-.22.31-1.18-.3-1a6.65,6.65,0,0,1-1.54.34l4.71-8.51A.5.5,0,0,0,83.62,141.86Z" fill="#06577a"/><path d="M251.71,172.69s-.21-10.65-.34-13.29c-.12-2.39-.46-12.86-6.85-16.44-8.07-4.52-17.36-10.34-26.25-8.2-7.21,1.74-10.7,26.29-10.7,27.94C207.58,165.66,229,182.23,251.71,172.69Z" fill="#68e1fd"/><path d="M222.73,120.86a10.23,10.23,0,0,1-2.56-4.86c-.87-3.35,1-8.08,4.63-8.37s4.62,1.61,4.62,1.61,13.47-1.79,15.08,8.78h0c.25,3,1.4,13.67-7.39,15.63S232,123.41,232,123.41" fill="#4b1b13"/><path d="M222.46,118.53s-.26,6.9-.41,9.47.67,10.05,5.13,10,9.23-5,9.29-6.2c0,0,4.61-2.6,2.17-4.86s-2.8,1.37-2.8,1.37-1.29-2.06-1.15-7.44A23.47,23.47,0,0,1,222.46,118.53Z" fill="#ffac73"/><path d="M236,139c-2.36,2-6.06,2.22-9.45,1.59a1.11,1.11,0,0,1-1-1c0-1,0-2.09-.08-3.14l12-5.23-1.23,7.43S236.1,138.74,236,139Z" fill="#ffac73"/><path d="M227.82,140.74c-.46-.05-.91-.12-1.36-.2a1.07,1.07,0,0,1-.95-1c0-.54,0-1.09,0-1.63,2.48.12,6.92-.29,9.45-4.78A10,10,0,0,1,227.82,140.74Z" fill="#e5894a"/><path d="M237.18,136.61c-1,.59-2,1.15-3,1.68a23.94,23.94,0,0,1-4.46,1.94c-1.29.38-3.53.91-4.21-.72a2.44,2.44,0,0,1,0-.88,5.78,5.78,0,0,0,0-1.07l0,0a3.42,3.42,0,0,1-1.45-1.15.31.31,0,0,1-.05-.14h0s-3.46,8.68-3,9.12,4.25-1.56,4.25-1.56,1.45,3.32,2.06,3.66,9-6.43,10.2-8.41Z" fill="#d4dee8"/><path d="M222.06,145a5.41,5.41,0,0,0-.16,3.72s1.48.75,1.78.65a17.06,17.06,0,0,0,2.79-2.94c-.1-.16-1.4-2.81-1.4-2.81Z" fill="#f47a63"/><path d="M221.9,148.75s-6.33,20.88-6,21.07,5,2.82,6.62,3l1.12-23.43" fill="#f47a63"/><path d="M223.52,129.31h-.08c-1.42-.06-2.51-1.64-2.43-3.52s1.29-3.37,2.72-3.3,2.51,1.64,2.43,3.52S224.9,129.31,223.52,129.31Zm.12-6.32c-1.12,0-2.07,1.25-2.14,2.82s.81,3,2,3,2.13-1.22,2.2-2.82h0c.07-1.6-.81-3-2-3Z" fill="#42210b"/><path d="M230,131.1h-.1a2.59,2.59,0,0,1-2-1.1,3.78,3.78,0,0,1-.71-2.43,3.17,3.17,0,0,1,3-3.29,2.59,2.59,0,0,1,2,1.1,3.94,3.94,0,0,1-.21,4.78A2.61,2.61,0,0,1,230,131.1Zm.09-6.32a2.7,2.7,0,0,0-2.37,2.81,3.29,3.29,0,0,0,.61,2.11,2,2,0,0,0,3.26.14,3.29,3.29,0,0,0,.79-2h0a3.29,3.29,0,0,0-.61-2.11,2.11,2.11,0,0,0-1.59-.9Z" fill="#42210b"/><rect x="226.44" y="126.09" width="0.5" height="1.66" transform="translate(60.49 326.61) rotate(-79.48)" fill="#42210b"/><rect x="232.59" y="127.18" width="3.77" height="0.5" transform="translate(-20.8 49.63) rotate(-11.57)" fill="#42210b"/><path d="M227.3,84.43s-.2-10.08-.32-12.58c-.12-2.26-.44-12.17-6.48-15.56-7.64-4.28-16.42-9.79-24.84-7.76-6.82,1.64-10.13,24.88-10.12,26.44C185.54,77.77,205.82,93.45,227.3,84.43Z" fill="#2b415d"/><path d="M215.2,53.33s1.07,8.81-7.2,9.15c-5.79.24-4.31-4.39-4.31-4.39s-2.92,2.17-5.84.27,2.28-8.66,4.55-9S210,49.34,215.2,53.33Z" fill="#68e1fd"/><circle cx="217.94" cy="31.41" r="6.52" transform="translate(177.19 247.81) rotate(-87.54)" fill="#4b1b13"/><path d="M199.16,36.05a7.86,7.86,0,0,1-1.51-4.63,7.39,7.39,0,0,1,.21-2.39,3.34,3.34,0,0,1,1.64-1.86,8,8,0,0,0,1.57-1.23s17.17-2.57,18.69,7.43h0c.24,2.79-.33,11.17-8.1,14.35s-3.75-9.25-3.75-9.25" fill="#4b1b13"/><path d="M202.67,50.34,213,45.81l-1.16,7s-.08.13-.22.34c-1.92,1.62-4.78,2-7.58,1.7a1.28,1.28,0,0,1-1.13-1.2C202.9,52.56,202.82,51.44,202.67,50.34Z" fill="#ffac73"/><path d="M198.92,34.15a3.34,3.34,0,0,1,3.3-3.76c1-.11,2-.08,2.53.89.7,1.18.74,2.55,1.79,3.57a3.81,3.81,0,0,0,3.94.8c0,1.1-.22,1.92-1.58,2.23S199.87,36.36,198.92,34.15Z" fill="#ffac73"/><path d="M212.5,31.58c-4-1.62-7.82-2.64-12.14-2.24a.74.74,0,0,0-.73.7c-.24-1.74-.47-6.1,3.09-7.27,4.48-1.47,11.74.94,13.6,5a12.64,12.64,0,0,1,1.14,6.4A17.46,17.46,0,0,0,212.5,31.58Z" fill="#4b1b13"/><path d="M202.86,52.18l.1,1.49s6.77.1,7.95-5.36Z" fill="#e28e54"/><path d="M198.9,33.84s-.25,6.53-.39,9,2.13,9.36,4.85,9.47c4.24.17,8.74-4.75,8.79-5.87,0,0,4.36-2.46,2-4.6s-2.65,1.3-2.65,1.3-1.22-2-1.09-7A22.21,22.21,0,0,1,198.9,33.84Z" fill="#ffac73"/><path d="M190.85,80.29a12.6,12.6,0,0,1-1.1-.84,76,76,0,0,1,2.68-15c.24-.86,1.56-.43,1.32.42a74.29,74.29,0,0,0-2.69,15.55Z" fill="#17283a"/><path d="M216.53,87.11a4.13,4.13,0,0,0-.59,0l.24-17.46a.69.69,0,0,1,1.38.06l-.24,17.34A4.81,4.81,0,0,0,216.53,87.11Z" fill="#17283a"/><path d="M213.17,48a10.31,10.31,0,0,1-2.74-5.58c-.38-3.28,3.91-1.62,4.55-.18S215.21,47.34,213.17,48Z" fill="#4b1b13"/><path d="M295.27,124.43s-.2-10.38-.33-13c-.12-2.32-.45-12.53-6.68-16-7.87-4.41-16.91-10.08-25.58-8-7,1.69-10.43,25.62-10.42,27.22C252.28,117.58,273.16,133.73,295.27,124.43Z" fill="#2b415d"/><path d="M280,96.35c0,.55-.7,1.34-1,1.79-2.23,3.84-4.22,7.91-6.36,11.84s-2.93,14.84-3.18,15.56c0,.07-7.77-3.2-7.83-3.17s-.41-5.73-.4-6.08c.18-6.29-.15-9.52,1.21-14.31,1-3.4,2.56-5.66,3.5-9.06a20.2,20.2,0,0,1,1.68-5C268.64,86.28,280.17,92.67,280,96.35Z" fill="#68e1fd"/><path d="M282.22,127.31h-.64q.37-6.49.59-13a.71.71,0,0,1,1.42.06q-.22,6.45-.59,12.89Z" fill="#17283a"/><path d="M259,120.88h0l-.15-.08-.37-.23-.44-.27-.37-.22q.36-7.71,1.12-15.39c.09-.91,1.51-.85,1.42.06q-.79,7.92-1.14,15.86A.71.71,0,0,1,259,120.88Z" fill="#17283a"/><path d="M267.66,87.9s-2,10.45-1.16,11.56l3.73-2.67,2,4.57,9.3-7.4Z" fill="#2b415d"/><path d="M266.77,71.66s-.25,6.73-.4,9.22.66,9.8,5,9.76,9-4.89,9-6c0,0,4.49-2.54,2.11-4.74s-2.73,1.34-2.73,1.34-1.26-2-1.12-7.25A22.87,22.87,0,0,1,266.77,71.66Z" fill="#ffac73"/><path d="M279.92,91.57c-2.3,1.94-5.91,2.17-9.21,1.55a1.08,1.08,0,0,1-1-1c0-1,0-2-.07-3.06L281.34,84l-1.2,7.24S280.07,91.36,279.92,91.57Z" fill="#ffac73"/><path d="M272,93.31c-.44-.05-.89-.12-1.32-.2a1,1,0,0,1-.92-1c0-.53,0-1.06,0-1.59,2.42.12,6.75-.28,9.21-4.66A9.78,9.78,0,0,1,272,93.31Z" fill="#e5894a"/><path d="M294.82,91.66c-3.85-4.64-5.42-13.6-5.42-13.6l0,0c-.72-9.81-7.56-13.06-13.63-13.67s-10.79,1.5-11.29,5.58a6.25,6.25,0,0,0,2.17,5.93s10.19,3.43,10.92,2.19,1.12-7.13,1.39.61c.09,2.56-.07,5.11-.2,7.66a55.37,55.37,0,0,0,.39,9.33c.27,2.31.51,4.89,2.69,6.23a12.06,12.06,0,0,0,11.6.34,148.23,148.23,0,0,1,1.79,17.43s7.12-.14,8.39-10.68S298.67,96.3,294.82,91.66Z" fill="#4b1b13"/><path d="M185.57,130.49s-.21-10.65-.34-13.29c-.12-2.39-.46-12.86-6.85-16.44-8.07-4.52-17.36-10.34-26.25-8.2-7.21,1.74-10.7,26.29-10.7,27.94C141.44,123.46,162.87,140,185.57,130.49Z" fill="#4b1b13"/><path d="M156.59,78.67A10.23,10.23,0,0,1,154,73.81c-.87-3.35,1-8.08,4.63-8.37S163.29,67,163.29,67s13.47-1.79,15.08,8.78h0c.25,3,1.4,13.67-7.39,15.63s-5.13-10.25-5.13-10.25" fill="#4b1b13"/><path d="M156.32,76.33s-.26,6.9-.41,9.47.67,10.05,5.13,10,9.23-5,9.29-6.2c0,0,4.61-2.6,2.17-4.86s-2.8,1.37-2.8,1.37-1.29-2.06-1.15-7.44A23.47,23.47,0,0,1,156.32,76.33Z" fill="#ffac73"/><path d="M169.81,96.76c-2.36,2-6.06,2.22-9.45,1.59a1.11,1.11,0,0,1-1-1c0-1,0-2.09-.08-3.14l12-5.23L170,96.41S170,96.55,169.81,96.76Z" fill="#ffac73"/><path d="M161.68,98.55c-.46-.05-.91-.12-1.36-.2a1.07,1.07,0,0,1-.95-1c0-.54,0-1.09,0-1.63,2.48.12,6.92-.29,9.45-4.78A10,10,0,0,1,161.68,98.55Z" fill="#e5894a"/><path d="M171,94.41c-1,.59-2,1.15-3,1.68A23.94,23.94,0,0,1,163.59,98c-1.29.38-3.53.91-4.21-.72a2.44,2.44,0,0,1,0-.88,5.78,5.78,0,0,0,0-1.07l0,0a3.42,3.42,0,0,1-1.45-1.15.31.31,0,0,1-.05-.14h0s-3.46,8.68-3,9.12,4.25-1.56,4.25-1.56,1.45,3.32,2.06,3.66,9-6.43,10.2-8.41Z" fill="#d4dee8"/><path d="M155.93,102.83a5.41,5.41,0,0,0-.16,3.72s1.48.75,1.78.65a17.06,17.06,0,0,0,2.79-2.94c-.1-.16-1.4-2.81-1.4-2.81Z" fill="#f47a63"/><path d="M155.77,106.55s-6.33,20.88-6,21.07,5,2.82,6.62,3l1.12-23.43" fill="#f47a63"/><path d="M157.38,87.12h-.08c-1.42-.06-2.51-1.64-2.43-3.52s1.29-3.37,2.72-3.3,2.51,1.64,2.43,3.52S158.76,87.12,157.38,87.12Zm.12-6.32c-1.12,0-2.07,1.25-2.14,2.82s.81,3,2,3,2.13-1.22,2.2-2.82h0c.07-1.6-.81-3-2-3Z" fill="#42210b"/><path d="M163.88,88.9h-.1a2.59,2.59,0,0,1-2-1.1,3.78,3.78,0,0,1-.71-2.43,3.17,3.17,0,0,1,3-3.29,2.59,2.59,0,0,1,2,1.1,3.94,3.94,0,0,1-.21,4.78A2.61,2.61,0,0,1,163.88,88.9Zm.09-6.32a2.7,2.7,0,0,0-2.37,2.81,3.29,3.29,0,0,0,.61,2.11,2,2,0,0,0,3.26.14,3.29,3.29,0,0,0,.79-2h0a3.29,3.29,0,0,0-.61-2.11,2.11,2.11,0,0,0-1.59-.9Z" fill="#42210b"/><rect x="160.3" y="83.9" width="0.5" height="1.66" transform="translate(47.92 227.1) rotate(-79.48)" fill="#42210b"/><rect x="166.46" y="84.98" width="3.77" height="0.5" transform="translate(-13.68 35.51) rotate(-11.57)" fill="#42210b"/><path d="M317,206.14s-.2-10.08-.32-12.58c-.12-2.26-.44-12.17-6.48-15.56-7.64-4.28-16.42-9.79-24.84-7.76-6.82,1.64-10.13,24.88-10.12,26.44C275.22,199.49,295.5,215.16,317,206.14Z" fill="#2b415d"/><path d="M304.87,175s1.07,8.81-7.2,9.15c-5.79.24-4.31-4.39-4.31-4.39s-2.92,2.17-5.84.27,2.28-8.66,4.55-9S299.68,171.05,304.87,175Z" fill="#68e1fd"/><circle cx="307.62" cy="153.12" r="6.52" transform="translate(141.41 453.88) rotate(-87.54)" fill="#4b1b13"/><path d="M288.83,157.76a7.86,7.86,0,0,1-1.51-4.63,7.39,7.39,0,0,1,.21-2.39,3.34,3.34,0,0,1,1.64-1.86,8,8,0,0,0,1.57-1.23s17.17-2.57,18.69,7.43h0c.24,2.79-.33,11.17-8.1,14.35s-3.75-9.25-3.75-9.25" fill="#4b1b13"/><path d="M292.35,172l10.38-4.53-1.16,7s-.08.13-.22.34c-1.92,1.62-4.78,2-7.58,1.7a1.28,1.28,0,0,1-1.13-1.2C292.58,174.27,292.49,173.15,292.35,172Z" fill="#ffac73"/><path d="M288.59,155.86a3.34,3.34,0,0,1,3.3-3.76c1-.11,2-.08,2.53.89.7,1.18.74,2.55,1.79,3.57a3.81,3.81,0,0,0,3.94.8c0,1.1-.22,1.92-1.58,2.23S289.55,158.07,288.59,155.86Z" fill="#ffac73"/><path d="M302.18,153.3c-4-1.62-7.82-2.64-12.14-2.24a.74.74,0,0,0-.73.7c-.24-1.74-.47-6.1,3.09-7.27,4.48-1.47,11.74.94,13.6,5a12.64,12.64,0,0,1,1.14,6.4A17.46,17.46,0,0,0,302.18,153.3Z" fill="#4b1b13"/><path d="M292.54,173.89l.1,1.49s6.77.1,7.95-5.36Z" fill="#e28e54"/><path d="M288.58,155.56s-.25,6.53-.39,9,2.13,9.36,4.85,9.47c4.24.17,8.74-4.75,8.79-5.87,0,0,4.36-2.46,2-4.6s-2.65,1.3-2.65,1.3-1.22-2-1.09-7A22.21,22.21,0,0,1,288.58,155.56Z" fill="#ffac73"/><path d="M280.53,202a12.6,12.6,0,0,1-1.1-.84,76,76,0,0,1,2.68-15c.24-.86,1.56-.43,1.32.42a74.29,74.29,0,0,0-2.69,15.55Z" fill="#17283a"/><path d="M306.21,208.82a4.13,4.13,0,0,0-.59,0l.24-17.46a.69.69,0,0,1,1.38.06L307,208.8A4.81,4.81,0,0,0,306.21,208.82Z" fill="#17283a"/><path d="M302.85,169.72a10.31,10.31,0,0,1-2.74-5.58c-.38-3.28,3.91-1.62,4.55-.18S304.89,169,302.85,169.72Z" fill="#4b1b13"/><ellipse cx="330.53" cy="71.66" rx="18.09" ry="25.17" transform="translate(-4.6 117.22) rotate(-19.97)" fill="#ffd3c0"/><polyline points="313.55 78.09 310.72 95.81 325.47 86.07" fill="#ffd3c0"/><path d="M320.36,60.87l18.82,10.75A1.5,1.5,0,0,0,340.69,69L321.87,58.28a1.5,1.5,0,0,0-1.51,2.59Z" fill="#fff"/><path d="M319.53,68.11l18.82,10.75a1.5,1.5,0,0,0,1.51-2.59L321,65.52a1.5,1.5,0,0,0-1.51,2.59Z" fill="#fff"/><path d="M317.34,74.88l18.82,10.75A1.5,1.5,0,0,0,337.67,83L318.85,72.29a1.5,1.5,0,0,0-1.51,2.59Z" fill="#fff"/></g></g></svg>