<?xml version="1.0"?>
<svg xmlns="http://www.w3.org/2000/svg" xmlns:xlink="http://www.w3.org/1999/xlink" version="1.1" id="Capa_1" x="0px" y="0px" viewBox="0 0 512 512" style="enable-background:new 0 0 512 512;" xml:space="preserve" width="512px" height="512px" class=""><g><g>
	<g>
		<path d="M495.996,195.904c-0.013-1.975-0.421-4.021-1.276-5.955c-0.097-0.22-0.194-0.44-0.302-0.657L442.709,85.875    C435.037,70.532,419.615,61,402.46,61h-26.459V15c0-8.284-6.716-15-15-15h-210c-8.284,0-15,6.716-15,15v46h-26.459    c-17.155,0-32.577,9.532-40.25,24.875L17.584,189.292c-0.984,1.97-1.564,4.266-1.579,6.612c0,0.033-0.005,0.064-0.005,0.096v30    c0,19.555,12.541,36.228,30,42.42V467c0,24.813,20.187,45,45,45h330c24.813,0,45-20.187,45-45V268.42    c17.459-6.192,30-22.865,30-42.42v-30C496.001,195.968,495.996,195.937,495.996,195.904z M166.001,30h180v91h-180V30z     M96.126,99.292C98.683,94.177,103.824,91,109.542,91h26.459v30h-15c-8.284,0-15,6.716-15,15s6.716,15,15,15    c9.506,0,259.282,0,270,0c8.284,0,15-6.716,15-15s-6.716-15-15-15h-15V91h26.459c5.718,0,10.859,3.177,13.417,8.292L456.73,181    H55.272L96.126,99.292z M436.001,467c0,8.271-6.729,15-15,15h-330c-8.271,0-15-6.729-15-15V271h360V467z M466.001,226    c0,8.271-6.729,15-15,15h-390c-8.271,0-15-6.729-15-15v-15h420V226z" data-original="#000000" class="active-path" data-old_color="#000000" fill="#0099FF"/>
	</g>
</g><g>
	<g>
		<path d="M391.001,301h-270c-8.284,0-15,6.716-15,15v121c0,8.284,6.716,15,15,15h270c8.284,0,15-6.716,15-15V316    C406.001,307.716,399.285,301,391.001,301z M376.001,422h-240v-91h240V422z" data-original="#000000" class="active-path" data-old_color="#000000" fill="#0099FF"/>
	</g>
</g></g> </svg>
