<svg xmlns="http://www.w3.org/2000/svg" viewBox="0 0 500 500"><g id="freepik--background-complete--inject-11"><rect y="382.4" width="500" height="0.25" style="fill:#e6e6e6"></rect><rect x="363.22" y="390" width="17.85" height="0.25" style="fill:#e6e6e6"></rect><rect x="391.89" y="389.88" width="43.57" height="0.25" style="fill:#e6e6e6"></rect><rect x="244.7" y="394.26" width="64.97" height="0.25" style="fill:#e6e6e6"></rect><rect x="227.72" y="394.26" width="11.22" height="0.25" style="fill:#e6e6e6"></rect><rect x="94.78" y="389.63" width="42" height="0.25" style="fill:#e6e6e6"></rect><rect x="142.33" y="389.63" width="29.82" height="0.25" style="fill:#e6e6e6"></rect><rect x="66.89" y="394.14" width="35.61" height="0.25" style="fill:#e6e6e6"></rect><path d="M237,337.8H43.91a5.71,5.71,0,0,1-5.7-5.71V60.66A5.71,5.71,0,0,1,43.91,55H237a5.71,5.71,0,0,1,5.71,5.71V332.09A5.71,5.71,0,0,1,237,337.8ZM43.91,55.2a5.46,5.46,0,0,0-5.45,5.46V332.09a5.46,5.46,0,0,0,5.45,5.46H237a5.47,5.47,0,0,0,5.46-5.46V60.66A5.47,5.47,0,0,0,237,55.2Z" style="fill:#e6e6e6"></path><path d="M453.31,337.8H260.21a5.72,5.72,0,0,1-5.71-5.71V60.66A5.72,5.72,0,0,1,260.21,55h193.1A5.71,5.71,0,0,1,459,60.66V332.09A5.71,5.71,0,0,1,453.31,337.8ZM260.21,55.2a5.47,5.47,0,0,0-5.46,5.46V332.09a5.47,5.47,0,0,0,5.46,5.46h193.1a5.47,5.47,0,0,0,5.46-5.46V60.66a5.47,5.47,0,0,0-5.46-5.46Z" style="fill:#e6e6e6"></path><path d="M119.2,382.4H98c-11.06-19.32-17.21-71.09-1.66-127.34A254.34,254.34,0,0,1,106,226.75C111.84,305.76,137.2,359,119.2,382.4Z" style="fill:#f0f0f0"></path><path d="M80,382.4h21.22c9.85-14.28,12.75-52.54-6.33-94.12a175.49,175.49,0,0,0-11.42-20.93C82.56,325.75,60.55,365.08,80,382.4Z" style="fill:#f5f5f5"></path><path d="M347.07,302.88c-21.52-33.37-19.08,64.95-58.63,21.26-48.58-53.67-118.3-71.66-87.83-30.57S213,348.88,136,302.88c-55.78-33.36,47.08,66.65,18.91,62.85S84.2,354.15,120.64,382.4H357S368.6,336.25,347.07,302.88Z" style="fill:#f0f0f0"></path><path d="M391.76,382.65h17.75c9.25-14.72,14.39-54.16,1.39-97a182.29,182.29,0,0,0-8.07-21.57C397.91,324.26,376.69,364.79,391.76,382.65Z" style="fill:#ebebeb"></path><path d="M424.53,382.65H406.78c-8.24-10.88-10.67-40,5.3-71.7A129.43,129.43,0,0,1,421.63,295C422.4,339.49,440.82,369.45,424.53,382.65Z" style="fill:#ebebeb"></path><path d="M379,382.65h14.68c6.81-9,8.82-33.11-4.39-59.31a106.37,106.37,0,0,0-7.9-13.19C380.72,347,365.49,371.73,379,382.65Z" style="fill:#ebebeb"></path><path d="M139,382.4s-1-7.2-11.87-10.91a14.29,14.29,0,0,1,3.48,10.91Z" style="fill:#fafafa"></path><path d="M190.8,382.4s1-7.2,11.87-10.91a14.34,14.34,0,0,0-3.48,10.91Z" style="fill:#e6e6e6"></path><path d="M329.69,382.4s.69-14,8.23-21.19a68.85,68.85,0,0,0-2.42,21.19Z" style="fill:#e6e6e6"></path><path d="M433.86,382.4s3.51-10.06,19.78-15.24c-7.75,7.29-8.06,15.24-8.06,15.24Z" style="fill:#e6e6e6"></path><path d="M67.47,382.4S64.71,367.61,84.56,360c-5.66,10.72.13,22.4.13,22.4Z" style="fill:#ebebeb"></path><path d="M78.5,382.4s-5.6-12.08-25.87-18.3c10.33,8.75,11.8,18.3,11.8,18.3Z" style="fill:#ebebeb"></path><path d="M145.2,382.4s-.73-12.1-14-16.48c5.92,6.2,5.58,16.48,5.58,16.48Z" style="fill:#fafafa"></path><path d="M261.2,382.4s-1.67-12-19.86-18.24a23.92,23.92,0,0,1,5.83,18.24Z" style="fill:#fafafa"></path><path d="M261.72,382.4s1.67-12,19.86-18.24a23.92,23.92,0,0,0-5.83,18.24Z" style="fill:#fafafa"></path><path d="M271.65,382.4s-1.22-20.22-23.36-27.56c9.9,10.37,9.33,27.56,9.33,27.56Z" style="fill:#fafafa"></path><path d="M396.58,382.4s-.85-5.23,10-8.94c-4.46,5.22-1.64,8.94-1.64,8.94Z" style="fill:#fafafa"></path><path d="M396.27,382.4s-1-7.2-11.87-10.91a14.29,14.29,0,0,1,3.48,10.91Z" style="fill:#fafafa"></path><path d="M390.34,382.4s.72-12.1,14-16.48c-5.91,6.2-5.58,16.48-5.58,16.48Z" style="fill:#fafafa"></path><path d="M435.42,104c-2.61-4.56-7.87-8.09-11.76-7.87a3.81,3.81,0,0,0-3.13,1.64c-7.1-5.68-15.27-9.17-22-8.79a11.55,11.55,0,0,0-7.94,3.27c-7.62-8.57-17.34-14.65-24.39-14.65-4,0-6.49,2-7.38,5.25-7.82-5.76-15.86-9.3-22.34-9.3-10.33,0-13.69,9-9.46,21.61-1.69,2.38-9.84,5.7-9.51,9.68H435.88C435.73,104.56,435.59,104.28,435.42,104Z" style="fill:#f5f5f5"></path><path d="M320.12,151.07a4.49,4.49,0,0,0-4,2.66c-9.67-9.26-20.58-14.94-29.36-14.31a13.16,13.16,0,0,0-10.16,5.34s0,0,0,0c-10.51-13.95-23.61-23.84-32.84-23.84-5.25,0-8.37,3.2-9.3,8.54-10.61-9.38-21.35-15.13-29.83-15.13-10.51,0-15.15,8.84-13.7,22.45-5.07-4-10-6.29-14.1-6.29-5.61,0-8.24,4.47-7.79,11.48a10.14,10.14,0,0,0-1.46.11c-8.57,1.17-11.85,10.23-7.73,20.59H335.39C331.54,155.83,324.92,150.73,320.12,151.07Z" style="fill:#f5f5f5"></path><path d="M149.61,107.49a2.19,2.19,0,0,0-2,1.3c-4.71-4.51-10-7.28-14.31-7a6.42,6.42,0,0,0-5,2.61h0c-5.13-6.8-11.52-11.62-16-11.62-2.56,0-4.09,1.56-4.54,4.16-5.17-4.58-10.41-7.38-14.54-7.38-5.13,0-7.39,4.31-6.69,11-2.47-1.93-4.89-3.07-6.87-3.07-2.73,0-4,2.18-3.79,5.6a5.68,5.68,0,0,0-.72,0c-4.17.57-5.78,5-3.77,10h85.59C155.18,109.82,152,107.33,149.61,107.49Z" style="fill:#f5f5f5"></path></g><g id="freepik--Shadow--inject-11"><ellipse cx="250" cy="416.24" rx="193.89" ry="11.32" style="fill:#f5f5f5"></ellipse></g><g id="freepik--Seat--inject-11"><polygon points="345.51 353.21 344.69 359.03 340.24 416.24 334.96 416.24 339.4 359.03 340.22 353.21 345.51 353.21" style="fill:#e0e0e0"></polygon><polygon points="372.2 353.21 373.02 359.03 377.46 416.24 382.74 416.24 378.3 359.03 377.48 353.21 372.2 353.21" style="fill:#e0e0e0"></polygon><polygon points="119.1 353.21 118.27 359.03 113.83 416.24 108.56 416.24 112.99 359.03 113.82 353.21 119.1 353.21" style="fill:#e0e0e0"></polygon><polygon points="145.78 353.21 146.6 359.03 151.06 416.24 156.34 416.24 151.9 359.03 151.07 353.21 145.78 353.21" style="fill:#e0e0e0"></polygon><polygon points="152.95 295.09 144.71 353.21 143.89 359.03 138.61 359.03 139.43 353.21 147.67 295.09 152.95 295.09" style="fill:#e0e0e0"></polygon><polygon points="379.35 295.09 371.11 353.21 370.29 359.03 365.01 359.03 365.83 353.21 374.07 295.09 379.35 295.09" style="fill:#e0e0e0"></polygon><polygon points="380.21 343.58 138.23 343.58 142.73 327.4 384.7 327.4 380.21 343.58" style="fill:#407BFF"></polygon><polygon points="374.69 343.58 132.71 343.58 137.2 327.4 379.18 327.4 374.69 343.58" style="fill:#407BFF"></polygon><polygon points="380.21 343.58 138.23 343.58 142.73 327.4 384.7 327.4 380.21 343.58" style="opacity:0.1"></polygon><polygon points="386.95 303.18 144.97 303.18 149.47 287 391.44 287 386.95 303.18" style="fill:#407BFF"></polygon><polygon points="386.95 303.18 144.97 303.18 149.47 287 391.44 287 386.95 303.18" style="opacity:0.1"></polygon><polygon points="381.43 303.18 139.45 303.18 143.94 287 385.92 287 381.43 303.18" style="fill:#fff"></polygon><polygon points="381.43 303.18 139.45 303.18 143.94 287 385.92 287 381.43 303.18" style="fill:#407BFF"></polygon><polygon points="381.43 303.18 139.45 303.18 143.94 287 385.92 287 381.43 303.18" style="fill:#fff;opacity:0.30000000000000004"></polygon><polygon points="383.58 323.37 141.6 323.37 146.1 307.18 388.07 307.18 383.58 323.37" style="fill:#407BFF"></polygon><polygon points="378.06 323.37 136.08 323.37 140.57 307.18 382.55 307.18 378.06 323.37" style="fill:#407BFF"></polygon><polygon points="383.58 323.37 141.6 323.37 146.1 307.18 388.07 307.18 383.58 323.37" style="opacity:0.1"></polygon><polygon points="378.06 323.37 136.08 323.37 140.57 307.18 382.55 307.18 378.06 323.37" style="fill:#407BFF"></polygon><polygon points="378.06 323.37 136.08 323.37 140.57 307.18 382.55 307.18 378.06 323.37" style="fill:#fff;opacity:0.30000000000000004"></polygon><polygon points="374.69 343.58 132.71 343.58 137.2 327.4 379.18 327.4 374.69 343.58" style="fill:#407BFF"></polygon><polygon points="374.69 343.58 132.71 343.58 137.2 327.4 379.18 327.4 374.69 343.58" style="fill:#fff;opacity:0.30000000000000004"></polygon><rect x="110.7" y="353.21" width="240.91" height="5.82" style="fill:#407BFF"></rect><rect x="110.7" y="353.21" width="240.91" height="5.82" style="fill:#407BFF"></rect><rect x="110.7" y="353.21" width="240.91" height="5.82" style="fill:#fff;opacity:0.30000000000000004"></rect><rect x="351.6" y="353.21" width="33.11" height="5.82" style="fill:#407BFF"></rect><rect x="351.6" y="353.21" width="33.11" height="5.82" style="opacity:0.1"></rect></g><g id="freepik--Character--inject-11"><path d="M199.52,415.64a2.13,2.13,0,0,1-1.39-.38,1,1,0,0,1-.31-.92.58.58,0,0,1,.33-.49c.83-.4,3.08,1,3.33,1.19a.19.19,0,0,1,0,.34A8.82,8.82,0,0,1,199.52,415.64Zm-1-1.5a.6.6,0,0,0-.21,0,.24.24,0,0,0-.13.2.66.66,0,0,0,.19.61,3.46,3.46,0,0,0,2.53.13A6.41,6.41,0,0,0,198.52,414.14Z" style="fill:#407BFF"></path><path d="M201.38,415.38a.15.15,0,0,1-.09,0c-.71-.4-2.07-2-1.91-2.79a.58.58,0,0,1,.57-.48.91.91,0,0,1,.74.23c.81.7.87,2.79.88,2.88a.19.19,0,0,1-.09.16A.16.16,0,0,1,201.38,415.38Zm-1.31-2.93H200c-.23,0-.25.13-.26.18-.09.47.74,1.64,1.44,2.19a4,4,0,0,0-.73-2.23A.55.55,0,0,0,200.07,412.45Z" style="fill:#407BFF"></path><polygon points="202.4 418.64 209.63 418.64 210.54 401.91 203.31 401.91 202.4 418.64" style="fill:#e4897b"></polygon><path d="M202,414.36h8.12a.6.6,0,0,1,.59.5l1.09,6.42a1.13,1.13,0,0,1-1.12,1.29c-2.84-.05-4.2-.22-7.78-.22-2.19,0-9.45.23-12.48.23s-3.28-3-2-3.27c5.63-1.22,10.53-2.9,12.4-4.5A1.84,1.84,0,0,1,202,414.36Z" style="fill:#263238"></path><path d="M271.88,275.6c-2.53,5.37-5.17,10.64-7.91,15.89s-5.56,10.45-8.56,15.62l-1.14,1.94-.29.49-.44.69c-.31.49-.6.82-.91,1.24a30.84,30.84,0,0,1-3.61,3.68,81,81,0,0,1-7.36,5.68,142,142,0,0,1-15.48,9.23l-3-4.55c4.46-3.73,9-7.5,13.25-11.31,2.12-1.9,4.21-3.85,6-5.8a27.84,27.84,0,0,0,2.34-2.83c.11-.2.29-.43.34-.57l.38-.74,1-1.94c5.16-10.4,10.2-21.06,15.48-31.51Z" style="fill:#e4897b"></path><path d="M274.9,270.36c2.11,6.47-11.22,25.51-11.22,25.51L249.63,288a93.62,93.62,0,0,1,9.23-16.92C264.37,263.48,272.6,263.27,274.9,270.36Z" style="fill:#407BFF"></path><path d="M223.45,325.36l-6.73,3.89,4.87,7.16s5.21-2.63,5.76-8Z" style="fill:#e4897b"></path><polygon points="212.43 338.05 217.94 337.5 221.59 336.41 216.72 329.25 212.43 338.05" style="fill:#e4897b"></polygon><polygon points="203.31 401.91 210.54 401.91 210.06 410.54 202.83 410.54 203.31 401.91" style="fill:#ce6f64"></polygon><polygon points="268.98 418.64 261.75 418.64 256.47 401.91 263.7 401.91 268.98 418.64" style="fill:#e4897b"></polygon><path d="M260.4,414.36h8.12a.59.59,0,0,1,.59.5l1.1,6.42a1.14,1.14,0,0,1-1.13,1.29c-2.83-.05-4.2-.22-7.77-.22-2.2,0-9.45.23-12.49.23s-3.27-3-2-3.27c5.63-1.22,10.53-2.9,12.39-4.5A1.86,1.86,0,0,1,260.4,414.36Z" style="fill:#263238"></path><polygon points="263.7 401.91 256.47 401.91 259.2 410.54 266.43 410.54 263.7 401.91" style="fill:#ce6f64"></polygon><path d="M258,415.64a2.16,2.16,0,0,1-1.4-.38,1,1,0,0,1-.31-.92.59.59,0,0,1,.33-.49c.84-.4,3.09,1,3.34,1.19a.2.2,0,0,1,.08.19.19.19,0,0,1-.14.15A8.72,8.72,0,0,1,258,415.64Zm-1-1.5a.67.67,0,0,0-.22,0,.22.22,0,0,0-.12.2.66.66,0,0,0,.19.61,3.44,3.44,0,0,0,2.52.13A6.38,6.38,0,0,0,257,414.14Z" style="fill:#407BFF"></path><path d="M259.82,415.38a.15.15,0,0,1-.09,0c-.71-.4-2.08-2-1.92-2.79a.6.6,0,0,1,.58-.48.93.93,0,0,1,.74.23c.8.7.87,2.79.87,2.88a.19.19,0,0,1-.09.16A.15.15,0,0,1,259.82,415.38Zm-1.31-2.93h-.08c-.22,0-.25.13-.26.18-.09.47.75,1.64,1.44,2.19a3.93,3.93,0,0,0-.72-2.23A.57.57,0,0,0,258.51,412.45Z" style="fill:#407BFF"></path><path d="M305.1,267.77c1.35.27,2.49.55,3.7.88s2.37.67,3.55,1q3.52,1.09,7,2.49c2.29.92,4.55,1.95,6.78,3.11,1.12.56,2.22,1.18,3.31,1.81.54.32,1.08.67,1.62,1l.81.51c.05,0,.48.31.76.52a10.68,10.68,0,0,1,.88.78,8.18,8.18,0,0,1,2,3.75,10.12,10.12,0,0,1,.24,3.14,17.86,17.86,0,0,1-1,4.58,39.56,39.56,0,0,1-3.36,7,76.84,76.84,0,0,1-8.64,11.81l-4.44-3.12c2.06-4,4.09-8.24,5.75-12.32a38.12,38.12,0,0,0,1.94-6,8.65,8.65,0,0,0,.25-2.33c0-.26-.09-.41-.1-.34a1.25,1.25,0,0,0,.37.71,1,1,0,0,0,.21.2c0,.05.23.16,0,.05l-.72-.36c-.48-.24-1-.5-1.44-.72-1-.45-2-.92-3-1.34-2-.87-4.07-1.65-6.16-2.39s-4.2-1.42-6.34-2.06c-1.07-.32-2.14-.64-3.21-.93l-3.12-.82Z" style="fill:#e4897b"></path><path d="M317.56,307.3l-4.38,5.82,9,.62s3-5.87-.17-7.19Z" style="fill:#e4897b"></path><polygon points="313.69 321.27 321.17 321.42 322.21 313.74 313.18 313.12 313.69 321.27" style="fill:#e4897b"></polygon><path d="M262.92,327.89s-50-1.72-56.68,18.17c-7.33,21.77-5.8,62.11-5.8,62.11H213s4.83-28.79,8.14-43.39c3.44-15.16,52.26-8.27,58.46-13.81,4.95-4.42,7.45-11.9,8.11-23.08Z" style="fill:#407BFF"></path><path d="M262.92,327.89s-50-1.72-56.68,18.17c-7.33,21.77-5.8,62.11-5.8,62.11H213s4.83-28.79,8.14-43.39c3.44-15.16,52.26-8.27,58.46-13.81,4.95-4.42,7.45-11.9,8.11-23.08Z" style="opacity:0.7000000000000001"></path><path d="M276.63,327.89S227.56,330.41,231,351.1c3.76,22.66,24.92,57.07,24.92,57.07h12.63s-8.62-33.08-12.61-47.5c-2.75-10,31.33-4.16,37.53-9.7,4.95-4.42,7.45-11.9,8.11-23.08Z" style="fill:#407BFF"></path><path d="M276.63,327.89S227.56,330.41,231,351.1c3.76,22.66,24.92,57.07,24.92,57.07h12.63s-8.62-33.08-12.61-47.5c-2.75-10,31.33-4.16,37.53-9.7,4.95-4.42,7.45-11.9,8.11-23.08Z" style="opacity:0.6000000000000001"></path><polygon points="213.81 408.47 199.6 408.47 199.21 403.97 214.73 404.37 213.81 408.47" style="fill:#407BFF"></polygon><polygon points="269.3 408.47 255.09 408.47 252.33 403.97 269.21 403.97 269.3 408.47" style="fill:#407BFF"></polygon><path d="M275.08,271.18c-2.77-1.34-6-.22-9.47,5.12s-6.5,14.27-6.86,16.82l4.93,2.75S276,278.29,275.08,271.18Z" style="fill:#407BFF"></path><path d="M275.08,271.18c-2.77-1.34-6-.22-9.47,5.12s-6.5,14.27-6.86,16.82l4.93,2.75S276,278.29,275.08,271.18Z" style="opacity:0.1"></path><path d="M307.09,265c-.24.93-.47,1.86-.68,2.79,0,0,0,.05,0,.08a168.21,168.21,0,0,0-3.34,20c-2.11,19.32-1.06,35.69-1.47,40H262.92c-6-40.65,3.66-62.47,3.66-62.47s3.23-.88,7.33-1.52c1.24-.2,2.56-.37,3.89-.49a140.62,140.62,0,0,1,16.43,0c1.18.06,2.37.15,3.52.26C302.75,264.16,307.09,265,307.09,265Z" style="fill:#407BFF"></path><path d="M297.75,263.67l-1.09,1.5c-.21.29-5.23,7.05-15.8,8.95l-.94.17-.87-.41c-3.33-1.57-5.23-3.68-5.64-6.26a6.64,6.64,0,0,1,.5-3.72c1.24-.2,2.56-.37,3.89-.49a140.62,140.62,0,0,1,16.43,0C295.41,263.47,296.6,263.56,297.75,263.67Z" style="fill:#fff"></path><path d="M276.46,296.66a3.55,3.55,0,0,1-2.55-1.11c-1.43-1.43-2.12-4-1.84-7,.45-4.7,3.14-8.6,6.14-8.87a3.51,3.51,0,0,1,2.86,1.09c1.43,1.44,2.12,4,1.84,7-.45,4.71-3.14,8.61-6.13,8.88Zm2.07-16h-.23c-2.45.22-4.84,3.88-5.23,8-.25,2.6.35,5,1.55,6.18a2.51,2.51,0,0,0,2.07.8c2.44-.22,4.84-3.87,5.23-8,.24-2.6-.35-5-1.56-6.18A2.52,2.52,0,0,0,278.53,280.68Z" style="fill:#fff"></path><path d="M293.56,244.91c-1.31,5.28-2.84,15,.67,18.5,0,0-4.4,6-13.9,7.76-7.16-3.38-2.53-7.76-2.53-7.76,6-1.41,6-5.78,5.23-9.89Z" style="fill:#e4897b"></path><path d="M289.27,248.42,283,253.51a16.41,16.41,0,0,1,.36,2.92c2.27-.32,5.49-2.8,5.85-5.16A8,8,0,0,0,289.27,248.42Z" style="fill:#ce6f64"></path><path d="M277.6,228.64c-3.64,1.51-6.09,11.48-1.66,13.77S284.48,225.79,277.6,228.64Z" style="fill:#263238"></path><path d="M294.6,237c-.81,7.16-.92,11.37-4.73,15.05a9.27,9.27,0,0,1-15.73-4.9c-1.2-6.44.32-17.06,7.48-19.91A9.31,9.31,0,0,1,294.6,237Z" style="fill:#e4897b"></path><path d="M289,221.28c3.92-2.47,9.91,0,8.7,3.37-1.94,5.45,3.05.22,3,6.67,0,4.21-4.75,14.19-7.75,13.93s-4.15-5.57-2.33-11.47c1.36-4.44-2.39-2.69-7.84-2.15-11.06,1.08-18.67-13.41-5.94-12.63,12.31.75,11-6,11-6s4.43,7.24-2.56,7.27S280.87,226.39,289,221.28Z" style="fill:#263238"></path><path d="M297.43,244.84a7.29,7.29,0,0,1-4.41,3c-2.36.51-3.28-1.61-2.41-3.74.78-1.92,2.95-4.5,5.22-4.06S298.69,243,297.43,244.84Z" style="fill:#e4897b"></path><path d="M295.74,226.78a6.22,6.22,0,0,0,4.65-3.2S300.58,229.25,295.74,226.78Z" style="fill:#263238"></path><path d="M283.64,239c0,.58-.37,1.05-.75,1.05s-.66-.47-.63-1.05.36-1.06.74-1.06S283.67,238.37,283.64,239Z" style="fill:#263238"></path><path d="M277.05,239c0,.58-.37,1.05-.75,1.05s-.66-.47-.63-1.05.36-1.06.74-1.06S277.08,238.37,277.05,239Z" style="fill:#263238"></path><path d="M279.13,239.24a22.32,22.32,0,0,1-3.05,5,3.3,3.3,0,0,0,2.76.52Z" style="fill:#de5753"></path><path d="M280.47,246.36a.17.17,0,0,1-.17-.17.16.16,0,0,1,.17-.17,4.92,4.92,0,0,0,3.86-1.81.18.18,0,0,1,.24-.05.17.17,0,0,1,0,.24A5.14,5.14,0,0,1,280.47,246.36Z" style="fill:#263238"></path><path d="M285.75,236.82a.35.35,0,0,1-.28-.14,2.61,2.61,0,0,0-2.12-1.14.32.32,0,0,1-.37-.31.35.35,0,0,1,.32-.37,3.24,3.24,0,0,1,2.73,1.42.35.35,0,0,1-.08.48A.36.36,0,0,1,285.75,236.82Z" style="fill:#263238"></path><path d="M274.3,236.69a.42.42,0,0,1-.16,0,.35.35,0,0,1-.14-.47,3.56,3.56,0,0,1,2.54-1.91.34.34,0,0,1,.38.29.35.35,0,0,1-.29.39h0a2.86,2.86,0,0,0-2,1.56A.35.35,0,0,1,274.3,236.69Z" style="fill:#263238"></path><path d="M306.41,267.77v.06s0,.05,0,.08a168.21,168.21,0,0,0-3.34,20c-4.21-5.93-5.45-12.13-4.71-16C299.17,267.63,303.88,267.51,306.41,267.77Z" style="fill:#407BFF"></path><path d="M306.41,267.77v.06s0,.05,0,.08a168.21,168.21,0,0,0-3.34,20c-4.21-5.93-5.45-12.13-4.71-16C299.17,267.63,303.88,267.51,306.41,267.77Z" style="opacity:0.1"></path><path d="M300,265.67c5.28-4.38,24.53,5.95,24.53,5.95l-11.34,14.21s-2-.45-10-4.05C294.8,278,294.33,270.36,300,265.67Z" style="fill:#407BFF"></path></g><g id="freepik--Cup--inject-11"><polygon points="195.17 332.67 193.75 353.21 183.42 353.21 183.14 349.14 182.28 336.74 182 332.67 195.17 332.67" style="fill:#407BFF"></polygon><polygon points="195.17 332.67 193.75 353.21 183.42 353.21 183.14 349.14 182.28 336.74 182 332.67 195.17 332.67" style="opacity:0.2"></polygon><rect x="180.88" y="332" width="15.42" height="1.33" style="fill:#e6e6e6"></rect><rect x="181.82" y="330.67" width="13.53" height="1.33" style="fill:#f5f5f5"></rect><polygon points="188 336.74 188 349.14 183.01 349.14 182.16 336.74 188 336.74" style="fill:#f5f5f5"></polygon></g></svg>